<mxfile host="app.diagrams.net" modified="2021-08-23T21:20:55.097Z" agent="5.0 (Windows NT 10.0; Win64; x64) AppleWebKit/537.36 (KHTML, like Gecko) Chrome/92.0.4515.159 Safari/537.36" etag="dp09kxwjV5JIYsSuW8i4" version="14.9.8" type="github">
  <diagram id="Oe3WXVhOPCYiUSg5GITC" name="Page-1">
    <mxGraphModel dx="1899" dy="582" grid="1" gridSize="10" guides="1" tooltips="1" connect="1" arrows="1" fold="1" page="1" pageScale="1" pageWidth="850" pageHeight="1100" math="0" shadow="0">
      <root>
        <mxCell id="0" />
        <mxCell id="1" parent="0" />
        <mxCell id="MeHVMLw1KAwCeqkkqlxQ-2" value="" style="shape=image;verticalLabelPosition=bottom;labelBackgroundColor=#ffffff;verticalAlign=top;aspect=fixed;imageAspect=0;image=data:image/png,iVBORw0KGgoAAAANSUhEUgAAAm4AAAEQCAYAAAAJaPg/AAAgAElEQVR4AezdCZRmR1UHcI4bB0UlZMVMJpnJCkMCgZAVsocYkkASspBAJgmLMSYQQSBuoBCQ1V1UCG4IgmIARVCUCCoBQQQ3BBUEXMAFFffd5/lV+t+p/qa7p7u/nu4307fOeV/Vq+VW1a3t/92qd+see2/aMqzs2Trsd/Bhw/6bty6efvNhw/4HHzbsd9BK81lGurXMa8V8W0Z9Ko/F+9Zuzp99Nm0ZdvYYm+K0MXrglmHvAw/ZNc+cfBbIo48zp0zKNVm2lHkBWkutx2w+U9KRX8q/Q1lXgfZS67NDvLv4lH6wIx8nypY64MsOtCbirjQ8eSyHT9O000JpZ8pxd//v6jebZrl8mOmrSb+YvZz6L4nXE3P/qtPv+rh6LalMhwx7H7S1no4H+x60Zdhv89ZhX9im859077f50OGAQw5v+AbG8eyzSPw+/b6bDxuk3+/gQ+ekWch/Mu09VgbadMACbivn3cQAXmzyqLA9FrxlsV7MngVsK1lMlzpxixf6bcJfbNKf23dnF9WJfjrrv5wyzBc3dOcLW4nfLL3F6tgBhJXkseQ0PShfRhvM1mEXljP9YUngYqIeS67/TPkXrE/X15ZLs8Xv0ieP+exWx13dHzoezZTh7jGyinmnfktqtxn+LxFs9OBhT3YDX0sFYE141YG3paa7i3+HDvtOALd5/QG8zYfOAZG7HrilI62FXRK3PRbk7IkgeTHA1oetCXjrx+dyJv0sen36LPr8VrTgdoAkdKelM5u+W8xn/br81syvW8jn5LmQf1fGVedJR7svy5LacRX4OVV99LGuDKG1kL2svr0AX3oeLcndlW9O/Lv8VxfAzfBjTj47qUcBtzmgaLmgFKjafwa8FXBbaOAt5l/ArYDbYv1jZGE9OFvIPWdR6heoHSbmfnFYAWCa5M0O9Hcy+U/GD71J/52+d/UIDfZO0y2jfKG7mjSXRWsn4CyAaV6QMcOfecMW4cFsnZfJy5RlofQL+S+TH7N/zBZMt0C/SP6TduPPMuu6YN49X+cpx87SpWwLxZvh8eoCuL7MO3EXcJsKuAF6+wJvBx/e7KUDvyVK3OZpnyZxa+K+gw8d7K8uZv7v//5vNpjb8+d//ufDX/zFX6zb85d/+ZezeStL/65c8Us5/+zP/myOn/if+cxnGg1xPN75i8vNjhvNhM1HP/mzP/nJT7a4yZtf3OFZ8sw7O/l99rOfnVOu0E5ZQov/pz/96dly80/cPk6fx3q7jz/++NaX+j4127k2oKPnwz/90z/Ntt96t9N65q+fp/8qR9wZR7GFcYvPbcwaDyl7xgM77snxkbTshCX9RrF/+Zd/efiGb/iGDTj6qsrFgXFzYBIMdsDN4bpDFy19v7hwezKZrtfklgmb3U+4vVvZFntPHTKp512aHhCljsJN8AF8/WSftOKGXvJHC82kjztl69P+9V//dYsXvyws4iZd8mADeeKI35eLf5+fuGN4CrjNHWr92CrgNrePpl9PjpP0+YyDvt9PjhNxkj7uyXGbNGMYH+tRhgJuc8dkvRUHxsKBec+43SVxO2zYb9OWRcvZLy5jAm6ASQCOCc8EnknZZMzNX5xM3nF7Fz80vCdMGmCrf+dGr0+TSdZCIn2fR/JlZ2FBI260vIcGO2Xv/fs8U0Zx5fmpT31qtjzoCu9ppDx9HuvtLuA2d6j1Y6uA213ATf/vx5T3jInY6cfe9fM8kbjF5p+xkT9Q3o0TefDLmERzkn7y2ZPtAm5zx2S9FQfGwoFFgNuhw767IXDLhG1CzaT9p3/6p8MrX/nK4dBDDx3ue9/7Dvvss89w//vff3jta1/bJuqf/dmfHbZt29bCnvSkJ7UtzT/8wz8ctm/f3uJKs/feew/f9m3f1ibzH/7hHx62bt06G3bUUUc1WvL+2Mc+1tKJL92v/uqvtjze8IY3DC960YvagqBcwNVTnvKU4TWveU2jaRv1F37hF4bnPOc5wx//8R834Cbeu9/97uGFL3xhe1cP4QceeOBwwAEHDC996UuHP/mTPxm+6Zu+qeUlv3333be5v/Ebv7EtNr/+678+nHbaacOHPvSh9o5mFirusSw8BdzmTgkF3OZK2fRTQOoP/uAPhic84Qlt7Bljd9xxx/BXf/VXw5ve9KY2Pn/lV35lOOmkk2bHgzFxzjnnDL/927/dxrWx9IpXvKKNASDNWLjttttm6X3N13zN8NGPfrSNT+M588mYxspajdkCbnPHZL0VB8bCgUW2Sg9tB9sXK2i/uIxF4mai9Y/Z5JZJFyj6wR/8weHlL3/58IlPfGIWrAh/17veNZx55pnD+9///pbu1ltvHW655ZbhAx/4wPD4xz9+eM973tMWDADphhtuaAvF933f9w3f/d3fPQBS+WduUZHPt3zLtwzf+Z3f2fyBOAvBb/zGbww/9VM/1c6LZAGw0Nx4442D/AA1/m9+85uHZz3rWW3hSPmV77nPfW5bSIDPZz7zmS2+ejh/8mM/9mOtPhahlEu9lEccdQbs1D95B7it1QKwlHwKuM0daf3YKonbXSBOv/3mb/7m4Xu+53vaWAPirr/++vbn6HWve93gz4q+pp+/973vHR71qEcNH/zgB2fHx2/91m8NN9100/C85z1v+KM/+qM23t/ylre0cW2s5I+R8Wv8GFPsjMWl9OM9KU4Bt7ljst6KA2PhwB4H3EycmXS5TeImfFKyl73sZW3CB2wSRiJ1wQUXDCRiJu7f//3fH171qlc14Hbttdc2oCauif5rv/Zrh1/6pV+aBYGkZuib4MW58847h8svv3z4nd/5nQYa+Zn83vnOdzaJHFAnvnTc/AFAtjIBbsCYvMTzkCh867d+a6MPpJHSKbP4pAs///M/3+qkjoCbRY1buEXLImQRA/jUDc3UX/nG8hRwmzslFHDbsW8aX5dddtnw4Q9/eLbfGjvGwetf//r2pyf92R8xwI2kLX7A3atf/erhO77jO1oa4xZw8wft537u51o8f9TEyxgxXqTPe2htBLuA29wxWW/FgbFwYI8FbibaTLqAzPd+7/cOD3vYw4YzzjijSdiAst/8zd9sIOdnfuZnhquuuqptKV5zzTXD7/7u77bnsY997HDyySe3+A9/+MPbVgwpGnCE1tlnn93o2V593/ve17Y6SdH8e5/8p25b9tnPfnbzt5gAbuIBa8JI6yweJG6Am/J7SNwAN3UgYfiBH/iBtvUj72//9m9vW7PipY7qyW1RAup+4id+otEmrUNfuYRbeMKfMSxCBdzmTgkF3HYEbvrv0572tPYHS9+NREz//+mf/unhGc94RuvX/I3H888/f1bi5k8ZyTX/t7/97cOLX/ziNr4+/vGPt/EHEJK8P/WpT21/cNAwLpJH3scwVtaqDAXc5o7JeisOjIUDexxwm2+CNbGTojkT9pGPfKRNxibyABc2KRg/591sbzoTdvXVVzdpmMkdsBIHLduOaDkHBwTxl+9b3/rWBgBtq6KZx0Rrq9TCIT7p3v777z988Rd/8fAlX/IlLR9p5P31X//1DYyhJy/SNcAtZeUH8AGQtkGd1wHG+H3/939/A5Xqoby2hO5zn/sM97znPYe99tqrSRrUxZmgAMu1WgR2lk8Bt7lTQgG3HYGbM6CkY86g6U/6sfFkTBhT/gwZN8aKP2XOthnH3knrHvCAB7Qx90Vf9EXtD5k/SOJn/Bgb/uC84AUvGP7mb/5m9s+NOHnfWT/ek8ILuM0dk/VWHBgLB/Y44GbiNNFmAjVpm9wBnJe85CWz4Mtk7/FxwHd913c1oGMCt1Xi3AzARCrn4wD+6KDrQUsagI2/vNj5oOEd73hHy1O+tmhJA0jVnMGx6DhDRxqGlsXDgmOSJFEglRMn5/RslWZBki8JnfKgbeu0P2tnq5TEDWgj1bM9aptUXO/Pf/7zB+d8lDf1D5/W2y7gNndKKOC2I3AzVvyZIjHTf/1ZAbSANpJl4yr92lbpeeed14Cb/i/MWEk/B86MJ+l+/Md/vI0R4+r2229vf5TQMT6Na240knaj2AXc5o7JeisOjIUD8wK3Wa3Vu+FXpQE1mVy9A1i2GB/zmMc0iZZzZA45WwBsP/palJ+tFufYfuRHfmRW4uafej+Bm8SBI7Rs20gDWAFrwkjN0CA5s+0izJk3Z3AsHgChjwWcPwsYdA7Ntqct23PPPbelQ9fCoowkdcAYEKncKSvbmbssLIAbQGmR8fFDQKB8LHqA40/+5E/OLlL8w6f1tgu4zZ0SCrjtCNyMZWPEcYSbb7652aTRGV/+qARo2RLNGTdSt4svvrhJ4dLPjQ9fpwInzrxJ+/SnP73RNFbllbjGV/8e/z3dLuA2d0zWW3FgLByYvDlmh7tKFytov7hwe0xy6z2hAS4mWmXxmMxN3m9729vaYWSSLZKrfERAUmYbhh8Jl61GNEirSL96gAMESmdb1L9ztLjRB/CkA7AAOGG2ZpWFbTFBD2gDxEjVlA94JOlTDkANXYemqRKxJSq+fPHV164WHeUFKuWX8v3e7/3ebJ3QlC7toWzeSd7k632926nPv4Db3JHWj636qvQuEKcvGze+0jYGjDsf3OhHxonxaqwZD77U/rVf+7UWn2TOmJQ+48jRBONLmDOtGVNoi+NBq//T1vfXjeAu4DZ3TNZbcWAsHGhXH3ZXpu0RwK2fbLlNwJmETbjAjvMx3PwDbrxzB9gE3OQsjQVhkhY/kzw7QCx0//Zv/7blFbqf+9znZgGTfJI3WxyPsvX+yiAu+p6UzwImXvyl6+Ny5z20pe1vYEjahK+nXcBt7pRQwG1+iVvGiLFmDPTjwTj1rt/3/VzcPp1+zy9/egLSxJE24yLh7MwX6zlG1jrvAm5zx2S9FQfGwoG2KzoNcIukLXY/uZhEvZsId+Y/GaePP59b/NCPzS+gJ37SmozZ/BZKlzwyWXtHq3+Xnl/ooeURl937c+c9ZUFL+sT3nnxTttCLf+w+X3SzSCU86dke8eMnTtzSLpRHaK21rTwnnHBCGxPpR2MZIOtdjv/93/8dSNwm20R7pl3jxse4J+Mv9t73hz5975a+j9fn1fsvls+0YSlPxkLGQPxjy6d36/MZd71/H49/6iRuX6fJNJP1SNzQyPtkvN3hPWVXF2pWHMcoUxwoDoyLAysGbhbY//mf/xksLGzv//3f/90mzExgmfACFvpJoY+TeJnY+ndpAp6Snp04bBOthzv+oTWNLZ88oZMyeM8Er34Jl3/eE5fdly1ljJ20q2XLP1KGlCG0Uw7+k2GJs9a2sgJuAW361EY3xlLG2D/+4z+2ttLftI1208bpf2mvtGc/Fvp2Tn9jJ660aPV/KhIvfyyE9/GFT+aRMmxUOzzVl9NO4UXPu96d8DHZ6pHHsRFnbWs8bvTZqOo/Ng6sGLipiAFtgQmA+/d///emhfw///M/B493D/d//Md/NPtf/uVfhv/6r/9q7n/7t39rbu+ef/3Xf23xuRM/cYUlXuizexrSJM5q2eq3UN7yl486Jm+2J+Xq654y9X6hkbDVtFMGNJUpbZH3XZn3UuuRcj3iEY9oYyPgbWwDZa3Lgw/GFz76SIV6C+2VNs1Y6cdY2hVPucXVf72nrdnpB6EnPGnSbhmn6dvCky5xQvOf//mfV33cJY/dwQ4f2Jkren7yy3vab8z1Ug+PM7H0SuqLZYoDxYHxcGDFZ9wymPNvzERkUnILARN/NmDHWEQSloWJbVJLHPH5mTgS14KR+JHuiYde4nOL41lNE7ry8TApS/Jj9+Xq/ZOeH3cfbzXLGVrJO+9s+TLCtFNflz7eermV69RTT12v7EeXr/bRTgzeUOPi0HzaLWNFePy4jSPx08cagZkffp70Bd7iMgmLH5oMO/2XWzym78fy3OgGH819eMQdvuJTeIlH/PEw4WPkW+qgbD7CKonbGFupyrTRObDir0ozCWVCZ5u8aCvPhBVbXE8fF+OzYMS/f0/DJK0w8SbfA0SSVvhqGbT6RUr+HkYYd+qoHCkbW3n696SLLV3CV6u86IR++NWXNeXlJ/8xGGXyuJliV/BjDHVcbhnwIe3IpirGV5H806/Sf8K/pOnf4yf/9M8+XfqINOL2j7DJvNDp4yac30Y2+Maww9/wls0vvAqPx8qvtK/yAW7OuKV+Yy1zlas4sNE4sGLghlEGdCYoA96WAIkbAEc57JOf/OT2uBKKEloTmC0f1zhJR6pGDcZtt902u7Bkovv85z/f1GnYhuHHWHyowcidm3Q4yQN9OtOo34ikbjUaUv1sGaHri1AGff7qq1zKQu2A8yBUcPAT5lFfZaa2gzqQfgIXDx3PahlnkSzw//AP/zBLO/koBx1y9Lml/KuV7zR0woN+q3QaentC2vAk7UTiRnWFs24Ux+rvnq/7uq9r6l1IvdzBSbWFPmb8UfxMvU3any2M5I5KmuTBz7h1G4jzV/zdIOD2EGOLTjNxSL31LeexqKqhQkMfD509ge8rrUN4YIw50I+//RzAjf/mNDeo4PdYTeqivJG48StTHCgOjIcDUwE31TDATUwMwHDhhRc2sGNhoWfJIkBnEuWzJgIAziJjMQB0KIVlm/QyabCBEJIGgCmToMWDskz62OgsozCTXjJ61zx///d/32isFnuVQ97oKi/QlrrKQ/gv/uIvNpCqnBbMvg7iSuN2BopyE8Yf35ie3rTllpc2UFZP8pOXxQJABiIZYauZ97RlD3AbU5mmrdNK06fdtCHj6jJ/Dhx8v+6665q+Mv3dGSRXr1GLsX379qbjTzu7Co3C6YyH9DVjzE0BlEUnD7a+e8kllzRdaMAfZbVAmnHrXl7gTbsAjvqY8vijgu7Y+tFKeT5NuvRZvPi7v/u7BnJ7/mYL20cL/mBql7GalFtficQt9RtrmatcxYGNxoGpgVvPMIuGrVJSqqc85SlNumbQe1w3Bci5nsY1NXQnuQUAAMtkgZa43gPcTHLuCXT5++mnn94WGFI3//jdQEBXmvgMG7hzE8LWrVuHSy+9tOVDOS4JggXJpfHeLYqufzr66KOHY445pt2WAHhRvWBy3bJlS7siR10sVMpDUrh58+b2uBGBNNAiCIg6QG4xUy8XVkuvHJTqurz6xBNPbEpBXXXFfcghhzTpSRbnno8rdeMlyQkp4JVXXjlcdNFFwwEHHDArITnuuOPaNUB46gaFhz70ocNZZ53VQK9FWP2OPfbYBr4BbTy2WNMqrz6AMv4AqwC6eyMDDqaZ3LUb4JZ2XGn996R0eBHApf+RlhoHN910U+uL+K0tADft7RYACp5Jw4wv44AJT9n5E0E/l3dSvDPOOKONVbcMkAq709f1bBmHVG64gYM0jhRP/9p7773bWBTfTQb68rZt29qtHfnzElC3J7XJQnVJXQE0N5eQalKk/cQnPnEw5jZt2jS4gssfp/vd737t1gfA27g64ogjGv/pnQOWxDnqqKPancd2FJgPf/jDbSwffPDB7XouQNvc8rjHPa7RMu9m/MVOuy9U5qX4B7gtJW7FKQ4UB9aOA6sO3CwAJhISNxOPicgVUSYp2sxN9CY0C4ZFwgRjssmEE7eFgsTNP9gXv/jFbcGwiNxwww1tuxRIueqqq5p0wYJCqkW6R3oHNFpAADR5AiBXXHFFA1EmUNdRiQt82dbwT9gWlAlSWYEr2xpuMBBmqwoAk4cJ1nbRC1/4wraAAjGAGwnHO9/5zgZObYdYON2eQEpCymGxNLGjyQ8NEy/3ahk8+aEf+qFW1izEwCSeAViu8qJdniQFAAAESAKBWuUBroEAaiCcbSHNdHG9q7QAOIsF0Ezi6RouwEGdGO220sVCugJud/cC/MjD1ziIxM2fgpe97GUNRLH9YdB2gJt2BKaNgbRH6LABt/RFY1QbuonDWDjppJOa+9Zbb23jIGAkknB/UgBCi7k4+o0/TY5E6BtoGKfGaJ/n3bXac13qi9/+hLkPFXBzE4M/liTgxqRxZE5zTZ5xZ47AO/w1f/3oj/5om6fMjeYEf3Kf85zntHkEOAfczYWPfexjm9ufXkc4kjfuTrqn5XgBt2k5WOmLA7uGA6sO3CJxA9yAG1ujwBqAZJIicSMJsggAUP55BqyZ+LJg0CUEMJnsnOUBOCw8wJ5zJBYn20YmPDRNlKRiJjdAwwJnm8eCA7hZbCxWAIy7Dk2EJHDKYjJ0ITUQBuCJryzKFYmbxVG+6LqnFOjiR+KmTJG4WcB8Qk/aBzT1iyV6JmR5CD/nnHMaMFytpgXc8BUAvf7669uCCnACaRZXANOZQnX3r169H/3oRzepG/5qL4sKQGYxAdwAOB8OXH755U1a+aIXvaiBULTULW3HXqmx4BRwu5t7+MFkIQaYtRlQpN9pG+NKn9de+jjg5kwa6ZxL07M9p13QMa74AW76JVraVh/WjsaEPzpAoi1Y8TMW0Qhw07fkAbgZz87R6Rv6EdChPKspRb6bK+N14RMeqbd7h7UViZt28AcS6DY/+BMIuLEd+TCuzCf+ZOG7NjXn4as/UP5ISa9tv/qrv7rxmZT8da97XQvTFvJOX0m/yfu0HCvgNi0HK31xYNdwYJcAN/8ySb1MLFk4TCoAgX+aFh4TksnN1gJAJTxgiU2y5R8nm2QMiDCh+Zdq0TCpOB9n2yBGXiYyC5F0tnxIz6QFpoA654EAJ0AFCCFdIjmw4CiHxQ8AyiSonBZOgIdEAzBzwN/Ea9FTB5IsW0i2npTdIudfM2AKBJLUAX38TNzok3q5jN4kvlpGXngLrMkb6LSdZetXmwBbzrjZUrP4Wrzxz4MvgC6+KT8pQfimXomHR+qiHfBGm+AV3q/USF/AbUfuBThpK1Ic/QcI1+/wPeFA+dVXX93a1R8d0hh9IXH0ScY7MEEyrD+gG1rUPgALJOT+DGXcGrPGGbr6RCRuaMjDNioa+jTQYhwx2jRjqHns4T/aAp/xwPlAf+jMdXjuncTNH0t8Nt+YM8xN3OYlY85RBWAN77WFuZHk3s6FP6rGoLhskj1+GXu7gtcF3PbwTlvV2205sOrAzVelJiEgBzjKBB5QRTpmYTChWTwAIH5ABmMCFNdCATCRkJEQ3Hzzze2fLAmZCc+kBZCYFEkISAuAD8DEFgU/4AL4ACCBNYAPeDG5mgAd4ja5omFyNFkKNykmTyDIv2BbSoAWf/nbfnSeLcDNVqkw/5oBNefnIjF0noyfBU6ZAR/5nnvuuU1L+Wr1HounclhQATeLLkknaYo2sSg7A2WxsOBafPkBk/wANxIZEoIAWFJIQABwdcaNhEX51QdAZrJ4rLQe0hdwm8u9nqcAlj4KuOk/+p0xYgyxgentMx8nSKevkuQA7eLw82gvwE37ARn6ujFi+/vII49sxwqACxIe/RodY4UEW/8hzdW3HCuQ1rgitXP8QL83RrNVir48N4LBV3Ul0cQvX847TuCPozDjzLj0p8gcAhBpA3HNE/5Aahe7DNrRmBPfGMVHbQToAe/mMRI9AO9jH/tYa/9JHq8W3wu4TXK23osD4+DAqgM3W6U530WaZWHJRGISMhlk21MYYGRiAtzES3ygzrkw/sCc7QFnaAAH59YAO2d8nJ2zeLABQAuMr+C8AyHe5Ql0mCCdYSMpkhew4pwPiR6wYpGTF2ApPRAorn/P/uX6R8zfhGxhs0gpv4lanUjiTM7+KYtnQUMPILRVIr6tUtI/k7MzKuKvliG9I01j45P6yNOWmkVFOW3rktBYgNUdT/AB3wECW8oWatumQB9jqxuPgU3x8N+insWZX9ptJXXRFgXc5nIuY4GvbTSLtb6sLY0NbcuIp231SeMt7wD6G9/4xhaWdmIDClEJA6Q5PwWE+1OTvshfe3vQNZ6NA+Bd3/KnCOiQnzOb+rM+AqD4Q5Syy28jmPR/9TWPkKYDzf5M8nMcxFwCYOOTP3LO0BqjwJk/T8YkvkljPvKn0vzGz9wDyGkPcxA68tEWwj3pC717Wt4XcJuWg5W+OLBrOLDqwC03JyiuCW0xk0lGnLgn7YRN+uc94b0tX4BJHI/FKudFki5hee/Tc0+axIvd1y1+0nDnyfskrcX854u7Wn4pZ+yUw7uFA2gDvJ1XsmBbrGP6OvV+oRG/ldhoF3DbkXNppwC3vIs5X/9LeOzEybt03HmfdKcEvX/v17tDYyG/+Wgk7p5mz8cLdZz07+stTPuET+Yrf5ycn3We7dprr21/wkIj9nx0+7A+j2ndBdym5WClLw7sGg7sANz22bRl6J/lZOufYA/clpN2teJmscq//QA47wkz0fXu1cp7d6SDF9nyJLnhJs0Jf9aiTspQwG1hTge4LRyjQnY3DujzHiZzk/Fn7BmDnoTHXus6FnBba45XfsWBpXFgjwNuJj4THeDh4c7EGJb0E2HvTvhGs8OrgNy8rxUftEEBt4W5XcBtYd7sziEZb2xzlHHgyR8pfn3YWte1gNtac7zyKw4sjQN7HHBT7fxbDQAJgMvEuDTWbIxYeJIFBJ+4875WHFCGAm4Lc7uA28K82V1DMsb0/ZiMxcxXmb/4c6+1KeC21hyv/IoDS+PAHgfcMsmxs+XHPZ9ZyH++uHuqX/7dZyHJAuF9rYx2KOC2MLcLuC3Mm901JHNPwFl2Bfh7Mh7jXo96FnBbD65XnsWBnXNgLnDbMtyjP9/GvRwzhjNuk4DDxBgJXOqSyTHvG93O9jLe4dckD3c1f7RHAbeFuVzAbWHe7K4h+nz+JPV14M8IA+aY+LWXNfwp4LaGzK6sigPL4MDdwG3LsPemdQRumZxiO6hLV1u+bAQmfHXl60cm8diTbu8mvoTlPRNl/OVBFxXgEiNsdzCpQ8ra15df6hE7fnmPHbDmnRqI6OEKrybT5b23uakUoXwVHfrqqFChAqHnrXjakCoX7UrdiPieADfuMnM5MC1wC0+1Kf5T/UEtDf1tVNYYB0zawh8wOgH1jaRNiSbfky7hk+/zxaebESiQj3DqRuhgzCwMYIsAACAASURBVFjvacyXPuHCPPos1Rjx7+3F3JNh3ldq+nLG3dtxh753jzbJ+baMYXynaoVqlYzPyfE4SSf0xafvzzxJlRLl2fRLosXguXGp7X1tL2/xKBafNAXcJjlS78WBcXBgFrhtWmfglokpk5eJmLJRSilNSiYXtxNQqJtJLxOfNJ4sNPHH4tCLnX+x3unFoivOgiEtI23suJvHiH5Sz9SJzY8d6Rl36hE7cbz3adVTGH1eFIei4T3xxM0jbp7kYTFwLyvdcBYIClrp3KNAmaJRRhp6wtyoQR+ceLTJ03clLMAt+bRE9dM4MC1ww1M81q5u1qAcm65BusLo8ssCnv5BxxidbCTVaeO+zcXzLizu/j35sZM+fYANOFA5QyeZdIA+5c/s0Otph46wGH7Jk846/S/v7MRlz0cz5RG3j8+9XNPTl74fg305U6fk7b13pyzGE4W7dPeJExryme/dnBZ/Ot/ovKQ7jr44bUzJubkTQMZ7Y5OScbdw0MlnLNLL549byqBcBdxa89RPcWB0HGjAbQa07X3gOkrcTDyMiYMbYKPR32TuHXCjrR04MAFRcHvMMcc0BaImLv8qgTBuim1JFEyAFr0HPehB7V5SUgTSHnecuktVPNdqWahIi2gtR1M+Ofs1uhab4ZF6msgtEiZl0snwwUIGlKrb0Ucf3e5jVW//vt0qwY+0i0Les846azjxxBObUl3a22nHp0vKzQl4rz38O8cX6aRBWzxa3Gn11yY057upgSJiC4Zyha/aT5sBau5QBdyEa+MoRAbcGHHVq8zdHJgGuGm/8JNkTbtRUM0IA9Qt9NpQm3ss7hZ77UNhs8XfJfRAn3H3wAc+sCnj1Vb6kX7hFpAo1tYn9A3x9Un55JEv5c3XXHPNcMstt7S+JB9Kn/VR/UKeaAo3DkkFKek2Pt3vq/+431NZKSOmBJiCa3fvXnLJJa0v67sAqnuOSRj9EaSqSHqASD4BQsqkLuFJcyzjR93Uk+SPolx89mdQOSnoVhb8yHwlX3w3FpSRBNL7aaed1v7YmIvC92OPPbbxwViSD4CKN2efffbsWKSoF/8p9wWGzX3Kg5/4p1zhtbzMpQxlzv5kGZsU/xqfyo4X8irgtoxOUFGLA2vIAWDNUTY2ELduZ9wyscc22bm2yeTDD1gwOdvapHGc24Tj/kTbdCZvk5pJ0Y0Jbj8wgXHzM4nyM5Ga9GwNWDBM/iZ1/ziFm9RoKAcCx2pMygy+MLYlKc+1WJh8SSUtVhYRCxRpBjAKqJKwMFks1R2gBaD8y8/1WBYDafxzd02PxcS1S6Sg+A0UmvhN8tmO4c6tExaXRz7ykbPtJy0eAw4WGHG1iwX7E5/4RFu0lIu/p8zdHJgGuKGin+B1QJE2IP00xiim1i8AckDCIu9mBWMPKAPsSU31A1dhuXYJkHJbgu08ElTbr6R2wIEtT33I2JNn8s+49k7Ko91JfowzY1y/1Rf1XWCGHwCozwAjrpiLNOniiy9u0iF90Q0k8gLYAoDUz+0Fp5xySpPoAj2Pf/zjGxABRtwXCvApU/pbxlLsVvAl/gScGn/KbI5SF3XEI/MJUIu3yoGv/mwJB6y0A3Csfm67ANq0iwcPtb8/T8AVwGuOMr75S+MuWfTVBb+0VcaQOdItC66tM4eqH5rK7MYGgFi/SNlts0orXgG3JXaAilYcWGMOONfWngMPWT/glsmSnYfY3sRsAjexkJ6Z7ExeFhlXNZEUuE7KRGPxAQjEJVGw7UcC5F5R8dwbCphYlCxAwIfJ1WJl4gQEs2UEkJAWoDVWY8I3+XrUKQuTLRAgS91tdwGstkQsZhY4kzVjgbRwmMwzkeMZXqFJAkCKhgcWWnSAOSDOYmGrzfVaFgZ8z8KBvsULXWncAQskAnTAgnLIQ/nR5ibtOfXUU1s50v5j5ft6lGs1gBu+4rk/OgD14x73uPbo94CAvp+7gQFp0m62K5mMwQB9Y8Udmf4AuAILHRJWYIN0i+QX6NNn5Mn0Nrcw+QIwJFH6kT8O8jBejXN90B8KNwjot/yAC3nqQyRDpEWunjNeARD92HVs+rU80DYWgDgA1B8R/fOJT3xiq4M8Uj7lytM8l/EjnTlI/qTWymqOkh/e6vduIhF2+eWXt/FqbLiizxgAXvEj0i5znT9dwBmjfuY37Yeu+c0fNW0AlALAjhzISxsCX8qiXOYGbSmOOY/BR39ygbmcfVN+oA//wocCbo1d9VMcGB0HRgHceq5kEjTZubPPQmFSAQQAB8DNpAQoAFcAnAnf9iCpmzD/XknaLAKkACZQW4QmbZI24MPhXelI3IBEky1JgrxI9KTJxN6XbwxuPFK28MqEbxIGTC0GwJTFDmhSZ/W1sPrXDoypo+2qHrjxswCTYFhMxDW5W6RJVSz4FgtA1wKAXxZWeQNuFlTlwXPlQA8YuOqqq1q72MayCNsSvfrqq5tUQD7AogXi4Q9/eGMtGp4yd3NgGuAWfrIt/ECP9ur95WRcGTcWdWPEhfFsbU6SRXKkvwAFAW5AhPFjrHhIi4QDCgCDPpB85MHNBLgZ0/4gkEgBYf5I6bdAjP4NjOgr4uibyk96pC/rd8CI/mq86ueMvgSAqI/jEP7AACP6n7orpzFifgm46cuZMjZiS/yRBg1lBlyNN3MRUKmO5iB/HNVLOfBPGwiXxjEPwLUHbsppjmPExRd/toBjYSTe+gXg5s8aSac5zZxJspe6oa9NgTw0gDt/ovIHTzxlZ7u3FsgNDwq4LbEDVLTiwBpzoN8mXdet0r7eJhKTmEnINpx3QCNbKIABaRKAYhvQokJyY/I3IdtKMTlZaEygJi5ndvIvnwTKVglJAlBiojOR+dcuX+d4/NvNBNaXbSzuTMwpI5D10Ic+dJZfFjeLnckcePIOVFlcGRN0FkuLjQXadpVFEm3AzQIHzFoALRD4Hokb0EzaKa620E7cFhAX1JN0sIFtiyd/D6ANBGoT7apN+J9++ukNMCpb6jQWXq93OaYBbuGnBRxQ1m4545YwNjAF8Oj/gA5ptz6ivUhY/YEynowZkjKSHVtyxhI7/QlgA8R6ABD+aW8GAAH8gQhlIqFz/gxtYN+fA3+q9B9gwlYpgC+ufqYvG/vGtP7qT5vyAkkkUxnn+q3+b6wDgCS7yupPXP4Qpq/pu56VGPXCX7T0a+DqjDPOaP1a/j7EcEQDEDrvvPMaqPUHCuiUVrki7QSuAGh1IIlkADfj0ZyUehqr/pgZl6TfpKPyl1Yd8Tbb2dpPOn+05Ik2SZv46qwMQLE5IHyRr3LZVg6PVsKbSlMcKA6sPgf6bdLRALdU0z9+Z1eOOOKI4bjjjmsTkkkEELjyyiuHww47rC1EJh//1rdv3z5ceumlbWI3mfvHbgLdtm1bAwtAnIUFIDSxAWwkVSZXgM/WSmiaiMdqMpGy4zZZ+1ftvBHjX73Lqi+88MI2WVsoTdoWOmnwzGJwwgkntEPT4tuScRZNmAVSfAu5xfn4449vEgsTuQXWVo8F3KQP+OXjBHxD52EPe9jw9Kc/vaUXh5GvLSOLkzxIOiPlyVelfZ1aovppkhUH6ldq8JrRNv7gaHdtwp+N59owgMgfIaAeoNZvgAMLOvAEkPP3RwdIAUiMGf0DaOIHcOmH6ANb6Ccf5QD40RJXmH4EIEZSJM/DDz+89TuAAoAxntEC7PQ9/uKRwPnjQAp1/vnnt/GPjvICaLYd5a08Pkwwj/jzEp6slKeT6dBL38UH/JM3P3+A8IgUE28AV+PQWNMm6uJP0UMe8pAGMAEtaYBp6f3hAl4BUMc8jFngSx4AmC1YY4mx7Zr21U5nnnlmy9ufOHwAhI888sjGX/Mi0AcEA3XceCwe46weEK4MZYoDxYHxcKBJ3HLObT31uM3HkkyEmdy8ZwHgx83u/bmzWMQfbROrJ+l7d+Kxmcn3+cq2nn7Klyf1SZ3z3i8k/OKv3D0v+DOpc9IlTfjLPzxPXLZFh6SDVMDkLx6T9HEnTcKBZVIDacTtgVsjUD+zHJhG4obvHiZtkHd8j1/f7vFjxy1u2j922ljauOXDzQ+oA0hIWEn62PoJIJh44iYfNpP3uPs46T/Joy9fX46kYecRnjgto1X8SR79eOEXXqUuKUPqmHDvKZt0icedsNQ1afuwpAVagXMSSyZx5COOtClj8onUDmDnF1PALZwouzgwLg60r0nHDNwy2fQTUD9xCe9Bi3cTUyanPj0aoRM74aGpeaQVPlajrMqn7Cl/6ssfmJovnF/qKV3e2dKHHn4yeZcm4ck7acQVz4JB6hm6wuMOH6UNTRJPoC3pe3UgiV/2XRyYBrihoC08aTs2E1tY4vHr4yVtn17ctG3aL++hy5902xY+sJaHFFfbJ754SSNffTdlEJb8+aUPsvmHRuyUy3v8UpfQSVjLdJV+5IFun1fKGL4l35Qj9ck7W335M/FPEb0nn7iTR/iUd6DNucTEi60Moc3N32MHQ1tNmgJukxyp9+LAODjQ9LjNfFE6uq1SLDKxZMshgCT+mfzYmfDYtvfmM32cfoHgLx9+tm96+vPRWW8/EzQT28SdhSN1YefJJC1+Ju+4867+4jPhBTvvoYW3WWCSVpykFS6dJ+FJK17vJ64wfj1wC62Wef1MtVWKl3074rX2y+NdeMZW4uof3NKLy3jnzy8PP0CMSZ/ilsZ7TGjlPemTr3JM0haHf+LGjQY3Iyy0+fVl7OOkLOLvCtOXNXzAA+VJOTI20u+lUX9GPE/eUy9h4aXwmND2jr73pAkfE1e61F9c8Zj4cYvDv38KuIWDZRcHxsWBUQO3TCJhmcnFk0nKxJMJjNsjPIuBdxNVJiU2k4kzdCfj5D3hY7PDF+VUx7yrHz/v3H29EyY+/vTpej7hZ4w0TOKizYSufJj45z15CZOWSZulbdJuwqQLcEvZW6L6aRyYVuKGiD6fvoHH4XPa3nvaJu2ZdhfWp037C+dOe4du0sc/Nn+Pd2nllzSxMzbznjTemZRJ/4lbGJpM4oUO/9DiTh1b5FX6QbfPXx4pS/KPXz+++rqlDuzwiDs8TlGdRwvNPk3SsRlxQj/0UoakSzy8Er+nK04Bt3C97OLAuDgwauAWVmVSiW1S6Z+AAn4mOiaTkEmLP9OniX/vJ00fr72M8Cf17PmRyZkfN5Nwbmn49/ESt+df0iUPduiw8x5bfDS9J5/E6/NKmHhJ2+dLj1tPoxGrn8aBaYBbeI1Q2iNgIO2WOGln7x7twy8AKeGxxZmPhrxCg1t88RI3dtLnPXTZ8uQfv9Cb9EvZYic89ZUu5UHLO3u1jfzRlT+TcsdO+YXFnbKk7EnPv4+XcRLa7KRNXGm5J/3jF/+eLjdaHnnEJE3UgXgvUxwoDoyHA6MBbiavTCImIcZ7Jr5+YurZlwkptrC4k55f6PDLe+L1du9O3NDs31PGnlYm2EzEScdeTaMcyunhTlnYKeNkfVOvxGHzU1bGewy/hPNLPuzQiR16SRv/3u7d4k8+wgG35BVaZd/FgWmAGwr4zaSt00/7dhGWvsTfk34gvXcmYbF7v7Qrv7iTd+gJI/lZKD1/Rt4e78k/YeyEJbyPk3gpR95TP/7xa5nN/PRlnYzTA5s+DbeyMCmDfEI/eYZ23qXh551J/NBhC8sjPPlwT9IL3dASJ0/KlTTxT17eQ5tfTIBb3ssuDhQHxsGBUQA3EwdjYsnkkokki0zeE97HFcfEhU4mOuGZzNihn7y8o+k9D79sJ7QEM5Nn6KLJTZ0BtSM+vadLiiqRlCt5JX3KKd1qGnTVO3Xo87WdEn4l39Qh/imvMqlz0vOPW9xso/DraSSO+PzZoY2mdw8j3BMjbdKFZv9VaR83aTayvRrALW0QvuNn34Z5D0AJuIqdNpE+fSHty9b2Sdv3A3SFe9BwXjXGe9LIJ/RS1pQp7ylLaEmbsNAUJv/EYaee4vbvfZyoJpE28djekz55zGejFZNtWuknzaQf2uFXytOXP2VJ3RM37+hLl/zjP5lP0vFPWPJL/WKnzAXcwomyiwPj4sAogBuWZELpbeoEXAhPGkNxJQ3pJn6TkHj9pGcSz0SEHrfJ2JU9ucYl4dKiIT03/4QFqPR+iRe6dF7RsURhJd1XmfQz8Umb8nDHf7WaPmVVdoYdd8rqPQtb+BW/lIk/N8Omn42iTl+koZN8Qic2OsISbrGQljJkX6jx95Uapad4Lx2dfBQo0yvlSixgl3Z7+rfwL8Ctz7cVrH6m+jghbRubvj+a/F1o7qJ2utDS3n0/1YbpH31bp83TTuIw3tPPEifp/JGgJ9CdmlH8mrjS6h+Ji076lz6kX9BLFkBCDxldbnmXLmnQ9IQW2qGlDG4iyCXw4oibeojnPeXx3j8JaxEmfpQl+SZeypB8Qp8tT3XOeEJOPGGMr0LdpOAWCiY0exuNhKWc3ik+ptfNeHSzBP653QL/pacqhLLj6ILT9nTG0XkZmo3wzC0U9LiVKQ4UB8bFgdEANxMXk0mIbrBoRjcx0vtF6aRrdsT1b9C1L247AOZcw0SzOMWgFNECBQ7XUrpJuScQSDUBBZjUVpCaWQTQcDuAfGkKJ92gFJYmcvmYPNE0kZoMTbbypt6AAkw3NAArFgYa6eXt+h2KStFEw8O9msYkHLoUdlLSqQyAJ2WlFkigiTZ8ZaLsEw8p/qSM03U7+GZRVGcXiVswaH0Xhvf4Ih/x8A4d2vMpAqXck6JR2tspUKV01+0WJv+AWgpRATZfHbpuyMKpfNqFglRxKe6VzpVXPb9Wk1e7O63VkLjhgf5Bdx4lyHitj2hTCmz1JYDIWNGngWl+2tkfFABbHwG49TXqX4zLd7zjHW3sWfj9sTK+ci+m9tWnlN8YckOCPmis6g/yBiTT7uJz5zEGzz777KYkm4JZ/vplFNO68J4ybePOGDTm9Elzgvz0PcCUsl99UP9zQ4E+7AFalMcYwBdKjvkBd+KZa5TJmF/MiINXxoF5xZjBW+MHfeU1z7g0XpmMAWpRjE15GF/GD35oA2PDjSMAGD/zjbqbf7x7jFF0gFvtBZApO7155jHthD/Krl1cAai9jLXMl/5YKS8+m/P0j96UxK3nRrmLA+PhwCiAm0mPiW0i9M+RZMAEZNISZsI3OZvATDr+KZrILSoWjhtuuKEBDJMwyVEkdiZmGtZp/bfQmOxMjDT4AyTASvxoKHfDAn8ABU2a1knWLGD8TMDuY0TLv1lbptKQOEnvXkJhym0S3xUGP7LQWWTdbkA7vIXWAslWHuUCaNXRJO36K3yzgCi3Rc2CZSFT9ssuu6wtfBZ3iyL+W2RIyYA/tPGGW55sCxYwqG2UC9gFGvHOooAG4GtxcLUVRawWD/yxyADBblpgAkh3Bc92V5rTADc8zvixiGv7U045pd2UoK2ABMCf8lXtDRDID3gBOgAxAMIY0IeMKdfEkTrrd24e4Qc8GXNu3HAtmnyAu2uuuaaNT/1MfwBo9DXACpjQ3+TflzN9AKjLXajGsP4OWAJCAI5bBIBINyT4s0Kq5C5Q4E0d9HVuVz+Jr5+75B2QAZqAOsBSPH76KtCn7u4PdfVdFEQr30ImZVcuaZVTfv7AAT/bt29vY02d5Qtk2gkQ7k+kcpmzzBl4CFyZq4wLf2zwzfyE18azsgKCxpk/Yk984hPbbQzGHNCsXVImvHTThHoxmTMo3cV7f6IAOmNTm/amgFvPjXIXB8bDgVEAt0yKJhUmUi0SLZOQd4tM4pkULTImHJK1xzzmMW2yA+JMxBYckzkgQ9QPxPhnC6wJY6QFHsQxWZqggRPgwz9P+fEjsbOw+Md/4403tn+1/uFamEyKJl+Lh7KTEgJ2udbJP+JMoC3TVfpRthj0vau7Sd0CpnwMvqmLxRIIxjfAyyKgrBYLE3cmc4uIq8QsmMCWRcDiIA90TPYWcYswwCZPeQOBkXpoLwYfLD7CtMm5557bFhn+JJ2kEQzAYAF33Q9+MWimrZvHBv+ZBrhhnb7O4Kk+a4G+973vPdzrXvdq/YGkBojX/4EK/d71TPoLsKHt9QP9BUgHJMTRh4AigAHI8AdKXBI8kh9/pvQ3efqzZTz78wWAGE/6nftESfJStvRF7wH/AAQpkzSAj75jjEVy6E+ZP1W5W9MY96fMeNenAEVgiMRNHfVj/VDZpDGu9XdAE1A1p5DQATyAkTKpw0JGmPLq544DmC/MD6RowoxDc438AU/lU175SMdP+bgZY4LED5CUTvtHuTWey0fdhKuncYrv2oskEx2PcSSfE088sbV5xpf6iOeKK0YZzRsAYW8KuPXcKHdxYDwcWBy4HXToskpqknF+YiUmi3UmbguEMzEBDiYXoMrj37d/nBYkk7k7RgEz/3ZNyCY5W3jCcsbNfYcAjYnPQgXIPPKRj2xn53xoYOK2oLmg3j9w0id3Ch5yyCHtDkR3frr8GggkXRKuTEAH4GaxAvLU3zkuC5nJM/VZCU8WS4Nf4ZlyWMxM5kARyZp6ciu384HKBKSpNyCHTyZ8k30merwmScRji5hwNtp4om4usrdAWyyzSFjELdQWJGVSHgsfCQ3gZrG2OOGxBUY6Uju8AZwtwA960INadXcVvxbj5djDpgVuaV8Lt0XfOGW0ESCk75KqHnPMMa2N/REClEiCSI/FB0aML9I1EjVtrr3dR0vSZeH3xwFICXAzJvUnbQ64Afr+FAB+2l0/8QeMdEu/kZYJ6ABM9CFAS3/Rx/ACXVdoGYfiknTpX8ohXL1ImfX/ALc777yzbR2SLPlzoV+TGANPAKXxoH+S8NmeNW4e//jHt36+sz6pDIy8jEF8A4oAT/zGL2PHeTPzkfoAxHghDb8AN3OaNDnjhnfmOn+21Mf9w84mkhwCeECv8Yh3pIuk2ZkXlIlbmwGp6i1vgBSYlXfqBmRK35sCbj03yl0cGA8HFgRu+24+bNj/4MOWVdKVArdMfDLjNpmYZGxJmkxM8CQBtv78awWwbMEAGhYMk7uFxMJiYrLI+FdvYgP+TKDSmfiV0SRosjR5WwRsuQA7tnnkbaID8qQzQdpOQgtIUw5Aw4RpUsw2kn/I/AAmgMfWUuoi3q42FkZbWIAZHgCtpAvKbdvZQgSIWigtUvhAgkLSYrEgQQPGLGb41wM3QMsZGgsivqmz+BYMbQPM4gm66oqH+KRdLNBpOyARaCTVsLjjj7ZAGyBM++9qXu1u9KcBbnisTbSTNtevtR1/7QJM2aKzSAMwwBi3NtGu+rU+pJ1IsY0N/QwwAsqND3+yjFPgSj7oGWsACImaPgBc6Tv6lj9Vzl+hC4hE6qucypVHOhKs/s+WPyD6MUkTia46yMv5V9IzdQB2hANp+rZ+bvzLk3TNvIEHpIXAXiSNxg3ABEQpiz+IpIbqpEwLmfR5tj90/hACxMYLiR2JvvkMYNKWeAy4GZfoimuLWrlJ8P1RUmZ/QJVfmve85z3tQy1/OrWFeQ1/8No4FM+8iK7yqpcw9M2Ntn21P7BLYo6nPb9tpSp7bwq49dwod3FgPBxYALgd2kDb/pu3LqukJoZpJG4yM9HkX6CJzVm2Bz7wgcNxxx3XtuNMgB4T25FHHtnUclhATFT8gAegA0BhW3gsLiZQE7y0Fg+T6VFHHdXS2Bay+Ji0H/zgB7d/3CZPE6AJ3hd4J598clvMpDf58TfxmfAsEiQWyukMl4XAVom6iJMJclnM3ElktD3hmUmf1MHEbRK3oFmY8AiQBGQBU4svyQIeWwCcjyHtsjjgAbAFXFncLOriklaSFpBMOusnH5M8tzLgOeBmoWfwTV9Ai9RE/S3iJJa2RJVHGmVA2wKJv+FT6tWI1U9rG1KclZjwkq1dIoXOmNKWJKL6tT8+ttX0d0BLn9I24pKc6SPGGunVSSedNFx77bVNKqUf2WbzZ0UeAW6kQMbd4Ycf3sYgwCYvbU5qdNhhh7U/XvLRF6TVB6RTXuPfHwkgg9GX/AEBrPgZ4w94wAPaHy9x9V+SQoBJufutUnl6SPtIFJ2FA3z0S38kzAnKAPwAXkcffXQbM/p/+uVC/JdOHI/64Y05QT3MQeZEPDWegE3jC1hTH2OV7c+juvhz6g8jiZgxaByF7/i3bdu2JsED3PC9B27GlPZUF+BQftpO/toMMD3jjDOGI444os1zxx9/fOMlfslDfr0p4NZzo9zFgfFwYH7gNiNt2++gLcsq6UqBm0k6TzI0iTOZNE2CmSATp0+TiVMcRlgMt22B0Eoc4fGL3fv1buVJfuzE50avD/fOP37exV9N05chZbEAxp3wvg7CUve+TKlDymgx6dMJT5y48548SRtJXfp2Slz05JcFOXzQJhYqEk3AkEmaxCl7mAq44V/4j7dM2jm2tvFM8l7/BTKADxIfW3WkQKGR9Ow+LXf6Fzvx+zyk8egT+hCAJB+PPPLnIrRCx7t0k+99GZJGvonf2/z7soRW4ovrUX9PxoPwhYw46sKEXugIU77MB5NlFZ64idPTQFM4k/CMJWMoBh1/qIDl5Ccs+aHJnXe0uEki/dGcNAXcJjlS78WBcXBgceC2ae2AG3aYRGJnIuPXT2z8+XkyebHj14fHncmuj5OwTKreTWzsuDPRoc/tyWQnDsOOH1rcSdfXpUVepZ8+75QhfvLm7subMibMe56kZ6fcSc9O3bnxLzZ34rMtICQu/umL40l40kzapCQWDbRIJEJfvDJ3c4A0ZKUSN1TwM7zPWMm7Nkp4b0sHtDnj5nwjCbXjBEmnrfIkXdo74y3+fbsm/36cqJstUfnkIbUmvQoNtD3Sp096T/2SR+LFThnllzyTDmAM/aT3jr6xLB5/JnZ7mfhJGDt1lxYt70nvPf7JJ3mIJ33eY0sbtzTihA7/+CUOqRvwZhyGXsL6YqdcpG2OLUgnfm8KuPXcKHdxYDwcWBy4rZHEDTsyGcXNNpFkMmGLk8d7P3ElbiayxENHvD5uJtekCS22dJnoQiP+0iUtukyfsqGP5QAAIABJREFUVlifV9Lz25Um+bCVJ+XKe8o/Wa8+nTTee5BsAeOnXmiETp+up5k47NRZ3PjHnfRZgL0HuCXuruTX7kZ7tYAbPqctY4ffaRN2jLD484tb23pCI/5safq4/PIuDMDnFxrz5R86CWOLn/7oXRz593HjFpfpy8fdp/cuXmiH5iTdlLMRXOAn+aLR0+HvYRInZePXx+dOXr078UJDnNDq80q83o879VR3Rvr4Jw16odsizfwUcOu5Ue7iwHg4MD9w25QzbmsjccukkQkJe0wuTPz6ycVk1PuLlwmJf5+OW/zeJE78Qku80E4cNtopYybGlA+NpGcnPn+0xOvjJs9pbHkwk/nlvV+gJuPmfbIefVkzyafc0qh/TPghPPzi7uP3+UjXp08YO+lqqzTc3dGeFriF97EDzr1Ptpk26dsl4X2p+vbjrw8w4ib9fLb8+McWnzvvPV1h6Yd9msRNeZKmf+/jx52yseMWxh2Td3bGUNyJM58dehkLsaVlEs6edIsbv+SfOuadHZp9XLSF5enLzC8meaAbkzQpkzDu3hRw67lR7uLAeDiwAHDbMqzlV6XjYUeVZD04YBEB3PrFZj3KMdY8pwVuWZAt7L4Q9sGKDwY8j3vc49rXneJYvD0+YPBRj61Eiz6TtgmAyMLPlrZ/T5ykEzYJDMTxYY8PVnwY0acPzdCNjR466uFDIh/b+LoVHdu4yixMfPR9fOBjAOfm+DGhNZlfytoireAn+UoKGMtHWeUjjOFm+jJ4D2/4e/Ddl6KOETDq0qcJf8On3ibR9KGIL7gdRfAhBuXWvhKWzley/HygoO2dJfRRkQ85+q1j+RZwa+yvn+LA6DiwIHDbZ9OWYZ/Na6MOZHRcqQKtKQcsPAXcFmb5NMCtX9QBCvrP8sUzwED3moc6GR+X0EnoS0vnznyFSPUGVRrUiPjSlPoYX59S5QFMWPjpDvNVMT95UCvjvCPwEFASEJN3oMoX0MBWdJj5Ehp9et2orFAmxkdPvtJ00wGaAIavLuXjoxhqenzQ4EtvIMnXlspLNxk9c+g4w6Xe4gIq+KIsDHfsuJvHMn8AUOqFnBtTDl+64wl3yq+8eOTLUX6+fpXOOzU7/JQVcKPUWntJo87KC3jhN/6E3z4c8Q68oqMtnHEDaoFwbeTLeV+N0lsH0Kkn2h7lwSuArweFBdyW2QEqenFgjTiwOHBbo48T1qiulc1IOWARKeC2cONMA9xQxV8gywJNhQt9YoxFGkBwrRLA4cMA4M3ibqEHgKjSAXZI6uhvo1KH+gwSGh8vUO0CyPk6mN400i0qN6iloFpDHoz8IzUiFcrXj4AINT6ACYW09LSRpqGHNn9gjn42gCTXVwW4ASdAC1BJdQhA6LYA+tCAEmo/ADV+yiQvajKAo4C08CfvrcDL+JHOA2DiDcADvOEZXuK3uig/pb7qrHxU85Aa4hkekoqpJxBFgS+3tqE8lyoTgAtv1Vd9pNEGdLRRLyIc+MJbbZ1yAWzUufh6O8BZGNrAs/bIhyjstFMBt2V0gopaHFhDDhRwW0NmV1bzc8AiUsBtft7wnRa4WYgZCzSp1Vd91VcNe+21V3sosvb1JuADFLk1g642YIF+MV+TAlSkOxZ5NkBHLyBJHIkWcCUd8EDKJG22+eQbIMBN+iQ+Zb3oCAOmgArSokc/+tFNSkT6BogBOegCI0CgG0kAHGUhmQN8SNdIBt1QAOCoo/SkcABOgKh3daUDjVJa/S5li7sxagU/4TFQBdQCi+olTxI1QAr/SRiBZCCOhI0fXgGZiUfSCbiShDKRhqGRr7bRAEDFVUdKjBl8AeACmPGY7jaKuVNG8bQpUE4ix6g/sKjtuT0F3Bpr6qc4MDoOFHAbXZNsvAJZJAq4Ldzu0wI3lC3aQBMpEPDjPVuFwm1BWvSBKoDNDQMWcepASGEAK5IwQMTtCfwBN4qTKVX2uC5OGGkd8IC+tmXY3oEPYIHCWYqfpXPFFJUUpGXbt29v0jAABRAD3IBDymndruHrY0CNdM92LmkciSCQQeEzhbQACImXcgM3wJzzXGiSivHL7Qj4oGyeHti0Qi/jR92AJcCVUutc+wWMKSPwdOyxxw73u9/9GlAj7aJvTTrbo3iPN2gAnSShys3Y4rWlivd4gg+Uh7uHmeQQL7SZOpPi4X3aN3wHJvFJHwDySE+BV3mKw99NNYBeTAG3cKLs4sC4OFDAbVztsSFLY+Eo4LZw008D3PDWYyG3SANuvbJVYYzFPAfULfykZmwgBwAiaYsEyeJOi7+tULcXCKetP9t+0orT55182K53AjYADe9AFNronXXWWbNnteh2A+Zs76IN1JC8udoK0HGmLWfcSAwBN2AEcLP9KJ6tRWDS1VuACEmTrUVApy8T2t7jt3Br7BiSdGxAjZQS8CVJw3NgS7nx6aKLLmqADHh224p8lR1ochuE2x/EJYEDjBnnBZ09FB9tUjpSOJK2SOdSH+nwERDDG5JQ8SlP9hGHdrYF6zwco18E5NlK1s7eGfzzccdKeNII1E9xoDiwSziwYuCWwa1UmbhMPPvuu+9w7rnn1lM8WFIfcFel/mLrLqbvW/HbyPY0wA3fMj4t5g62O/QePzZ+k7gBUyRuABupma3LADdSsgA3/i4+J+0hLXr4wx8+nH/++Y02AGexj9Qn+aQcJExAlzuG5Qu4AGe2L0mmXGkFgF155ZVNegb4ACLXXXddu4rK9qn8nXED3HLGzVYpUKNMzo+5Usv1V4AlaSFJ3CWXXNK2Ym1nAjOpe2+vtJ/1NEjHzjvvvPZRBH/5nXDCCQ0wApDOEZK4AbD44f5RwM02sSv+AFlgFXCTPsAN6MQf5/acpcNn/MZPYQywRpKnrW2nyu+cc85p98QCjkCb67xIOdFyfR8e5+ovYDrjD9At4LbSHlHpigO7jgMrBm6KZNIxsbBNwIwJw3s9xYOl9IG+v+g/+lOZuRyYBrhZhMNTbot0FuaECfekLeTOzS9xuYE6bYoGO+m5Ez9p+Ukzn5EuaYWTUnl3LsyZO0AGPX5M8jTHhG7yA8DE48/NyNd7yps0SZ/3lCHv0i1U5kZ4gZ8+TWiy40Z/kmfJK/OmuMovLj/vfR2TB//Ug5thx+0LUlvJJG2hlTYPXe/hjTwYQDhfATePGSms7djkHf+yiwPFgfXlwIqBm8GcidKk4d2EUKY4sBwO6DfpP7GzkC6Hzp4cdxrghi/4Gt4GEMUvNp578q5d0jYBCvELTe/CAgykT5h8SONIVJ3v8px++ulNckYCFhPa4gMb2TJUjoCy5Jvy5D1AhO3hP1m/1Il/4sg7tFJv7/FP2ZZjo4M+O+VTB/n272j2/Er+4oZG4rPDg9ihh4780l7ehXlcKO9sYGijw58JnfixSdtsn6PVG9uqBdx6jpS7ODAODqwYuBnkBn0/OfQT4ziqV6UYOwf0IU/6U9xjL/dalm8a4JaFPfw1XrkzbrmZLPrGMJN4icsv4z1tlPceiPDzoBf/+KEVesm3f5dn4qZ83pOOnXDuHrjEnx06sTMvKVNoCYs7aUO/MWAZP9Khh35sNEM/5ZjMh3/4LS53H5ebSfmTnp24wnv/pE9dkpa/8uU9ZQsdNPjFeC/gFm6UXRwYFwf23rRl6MHbPZriXcp3Z56FimtgZ5JgezJZLJSm/IsD83FAX7KAMNWHduTQNMANb5ks3P24Da/D+4xjduIlTvy8xy8goF/8k46deHFPvqemk2mSRx9fHMAj4Ms7E7CU96QFGhnl5pd0Cecfv9QfjdBpiZf4g5b8khcaKTv/0GWLkzy4k3fiJ27K2fNWcUjMxBHOJH5oJp0w9GMnTfKJP/rz0RK/gFtjX/0UB0bHgRUDt9QkE0kmBpNhmeLAcjiQxcS5mzI7cmAa4Ia34atF2uF9h/i/9Eu/dDjooIPaeSjgQpgxnEc6Y5vpQZDwxBUn4z3jX1gMvxhqMnyA4DB96ErPJC136HELF+aLUjrmfPwU/+STtMlLmoAjcXx96UMIB/59qPD+97+/qdpwrk4a+fmQwpauw/vTmgA4dFImtiflCj8TJ3NogJytZMp1Kc4Nj8SNO3UPMAsdefia1tej9NVR+vtlX/Zlw6WXXto+lJDOlujmzZuHe93rXk1PnPZwJo6qkZQv5Y06EO9ligPFgfFwYCrg1g/08VSpSrI7ccBilMVWuS0SWaB2p3rsyrJOA9x6ngIIAIHbD/DZQXZ6v3y9aCxTKeFcGv1oAI12cO7MV5JUW1CrQRcaNREAoDTOUtE75lopEhpfSvrSE8iSHhiSnsJdwM27MNdVAVTeAYqAhYCE2PSuASLKSW2GPIEuQJBKC7R9USkvacRxewC1GuhSYqtOAW7q4yMIdIAcX5uKA7ipB9rUcaCLH6Gb8szXzsLkhV5/TRc9eHiOji9J5QUoiUttia9ofSHrnZJgcXy968wZBby+EI1feOmdahBf2qoDwKVtfEGKV75AdQUWOlSOiOMrYjrclAXP1VPb+3I3fHzFK14xC9BTxwJu4UTZxYFxcWAq4DauqlRpigN7JgemAW5ARcCHhZu2fkpu6euyqFOjATxYyHOVFYkc8EM1hFsI3JLg9gLXJgFEdKMBb0AOSRiAQr0FfzrUqN0A4HwdSsoFdPnoQDi9Y24NAOKkpVyXH/CinMqkzCk36RPVGICeMogHHLk6ihoMuszkCRBRWIsuvyc/+clNkgaUATokbeoB4NBlJz4lwnir3tR3kFIBPg7kU4NCnYi6yVN5FjIpq/yVFegFzKheAXbxU9mp1gCaASd1xxv8VzZqOuhR44e3ygBM4Z06AXPe6c9TbjagqG6uKlNuZaWvDTBOmfATgAPc8Dd9AQCnBFn+JIDS6Qe9CXDr/cpdHCgOrD8H+vNt3Es+47b+Ra8SFAc2BgemBW64ZAG3QFuwKXI9/PDDh23btjWwAIABRoAKN8kZBbIkWnS7SUOCQ0EvCRtQxCbhASyAOcCNNA84tD1J8z8lvJToAnCkXOhHykfSA8AAYCR+ARUBFgFLpEfoKRdABsgBMcqAPtBHvxwawA4dZuqprNL1EjcAiMoLSmrlT1EwAMftZgW0qcVQfzTEs7WoLP0W7mSvC9hUR0BUfUm2SBnVkb96AY1AojLjBdDEX56kZujQaUeCCGSqH1rcaGgD2954CKyKpy0BOf7KjZbyooW2NqHHTb0D5pQf0JNOe/F3nypavSng1nOj3MWB8XCggNt42qJKUhyYlwPTADcELeCxga0AEWCIJIwiWyDnPve5z3DAAQcMmzZtakDGVp68Sd4AHCDAeTA3AQB1JDuAG7ctPEAFwJGO5AnoIqUDDoAioIVU5/rrr5/drkRffGUCloCI2PyAK2VyVRTl3gAHidvznve8JiFTBnnZ3lUucdzFKg1Ap16RuPXAjcoM1z4BPM6SXXbZZW1Lk6SNtAzPSB3lh2c7M8qtnsClbUx8BQjxzhVYyqNs+KHMABZeoE0iR+oGbAW8Rdkx4Od+UxJSksL99tuvPWeeeWYDsLalgWQ8U1dSPmVh2OpB6gfUam/xbB27PSLgTjztJ31vCrj13Ch3cWA8HJgHuG0d9jv4sGH/mWc8Ra2SFAc2JgdWA7hZwEnObNU5B2axtpC7f9Tib5uPFAeoINkBbEh0ABnnqAAHEhqSNgAJUCIFsk1H4hbgBgw4yyUf4bZHASPgAcgDANkkQM63AUxAS4xyBnCQIF177bXtPB0/4C+g0fksINL2JhDnDBtgBgQCYyRwzpYBk4Cb+uXjBABImO1KdcMP5eC2/QpwAmH4QXIGQC5mArjYzsaRMkrrHCAJICkcXgvDQ+1Akqn86uU82x133NFAlfN1gKN2wTfAzjYqiRwASAKnXfQJ7URKhtfyJsGznYqH0jo3x63NAGBtixcAuLLJ2yOtc3DO1PWmgFvPjXIXB8bDgR2AWwNtm7fOqAPZOp6SVkmKAxuUA9MANwsz4GEB95COAQ+ukLLdyG17jmQHmHBFEjAGsFjoXYlkG1EZAC7bd8CQa5ecs7riiiuan/i2JYGASIEAKB8WuMoJeHn2s5/dtgmdfyPtcm8nyRSpFBMgwSYZAqJI09CMRM5VXM5rKb9rt9ABXAARANI5Mme3AEZnvpRV2QA75Qfo0JSnsrliCvBTZ4DK5fDczgGSEAJAATcLdT/lw1vxSAMf/OAHz26xkqpdfPHFg6u6nGG75ZZbGnhVt3z8AGDZmrZtrE6AG4mbM2x4SOKm3aRVXmCaBA1tQNVXocqQL0nxQjnEwydXiOE5/8c85jHDBRdc0PzxCM+AQ5JCW9C9KeDWc6PcxYHxcGAH4Lb/wYcO+y5Bj9t4qlAlKQ7s2RyYBrjhTIAQGwAitQHWSGyAlYCOSNtInmx5ig84kLaRkOWMmTDSL8CCBI00yQMAJA1a6JJcSQ8AOdvFDyiThzIIl4Z/yhGgBmiEjjgMP+CRFIrESjmSrzi+GkVXHRlhKZ+06gOkigu8ASvSkP7JH3+UjbRQPH5M8m8vEz8JY4uvrvJk1BWfwmvgShy0hTHqK45yqy+eaBf+HuVWLvzDSzT4aQf1C4/EJdUjvZNH4qc91Re/AEZ01BE/SOqAWOl7U8Ct50a5iwPj4UD7qpQS3pnnHtkijT2eolZJigMbkwPTArcefHDnHTcDOvhZuBPO3yF4UqAjjzyyXSRPWsU/z+RCH1oJz/t8rZYwgISE7qSTThruf//7D0cccUTLz1YokJEyiq9sbMDIWa6As9ASN+VHt39PnJ5O6tvb0uRd3KTjx80O3eaY+UlY4rPzpNwJS3rvAcihlfL3+SXPAL3QlSZh0nEDdc7lAW2MuH3++NL7AZC+OgVexetNAbeeG+UuDoyHAwFsse9RErfxNE6VpDiAA9MCtyzuWbD7hTwgAICIvzy5pctinnjxz3tPU5gHLWn7fMXrTdLzEx+gSPrkG78+Lj/hbIa7LwN30vf+ffw+PGVNvYR5xE++wnp34qS8yUd5QidpQkdYaCS+MPH6MOCMf1/GxA/NhCVd/y5t/FOW5Js2TvzQS7yWsPsp4NYxo5zFgRFxYIet0rln3LaMqKhVlOLAxuTANMAti3YAhEXbE/+8Z/HOYo7T4gQIxJ8f09PzPpk+4S1yJ9nr3+WdtClP6Ajj7p+UO2BLGuGxe1r8U4aeRtyhlffUM+VgpwzxS1x2wKY4jPT8k4bt6ekIz3vqwGb4x4RW4vOPm90/KRsbLWFJH7/JcvDn19Pt/VKOAm7hRNnFgXFxYAfgts+m+qp0XE1UpdnoHJgGuOFdFuks5BS8Uv2xzz77tEPzthz7xV2aAIse0PAjEeqBQ9omeXh3Rksc+S1kfOXpEL9y7LXXXu1xRZMzc5TV2g5lnMFiQisAI+VyloxSYV+Gxi95i6u8bGVnB9hwx9DVZnuRUQ9xwg80Ezfp2aEnPHH5SRs6zdFdGZaw+EvLDz00PFSI+CgiH2ykLD3NxMVnRnoP3vnQAk98hUp1yDHHHNPcwhlp6Kfzdan8qQaJjrcWofsp4NYxo5zFgRFxYB7gdvcF8y6aL1McKA6sLwemAW4WfoDCIu3xFaFza7465G8B94WjMCDJwX+KYoXzc85NGrrJnIOiisIXmg7EA3xAILUdDsmjhwb1E/yFBzBMcpA6EV9LJjy2jwR8femwPpq+pkTfmS2ARR7CADVlcaYLWPH1qPNavrQEfpTPuy80lQWYAVrUweF86X11CtgBPB60hQMs6CQ/H0Gos0P+AV/KK5zhVr6cE+PvYwTlx0d5oZmPI6hG8eQDA/xSTjSU3Rej3tU7wFV9vHt8WJC2EV/7qKuvgtESTmkv3vgAgXJktJVTOU4//fThNa95TXtXz4RPtlEBt0mO1HtxYBwcKOA2jnaoUhQHFuTANMDNYg1sWOgBF6ozXve617W8hAEEUf3h4wOqI+j8ouMMWKOWgioLVyJRw0GFBLUeAAJ9aOJt3769Sb18CQkQ0LVGbQcls+gH7PQVpCvNV6rKoGzicAN7JE7AB1roo0X3GPqAEB1pVHtQIuvDBh8yACokR9RdRNUGm5oNjzoDN9SPqCO61IYAhsLcHAAQ+uiBPji0AS4X3FOaKz71J1HhAZylzOolb/xQX4ASmAS+fP2KX5QOU60CBJ599tntZgfAiB427SuOcEDs8ssvb+Wk+kO5lJtEULsoG5Un8tA21H3Q3Yaf6guIcpNCajNXluEl3pLi4aM2BHSVH7jUrso12U4F3PoeW+7iwHg4UMBtPG1RJSkOzMuB1QBugIZFmmJXynUZgIm/x4JPJYSts7gBL8phb7vtthaHkl2gSXxKc0nGAC3SJfrHAD2gCKiw1Qlk8JMPE2AgPYnbqaee2q5jAmSAL5I+ki9gBxCiP46Uy0M6R10GIEVvGRBKmsSPXjZpkz8pIbACUEpLigikAV2kUpTNKpO60dsGHAGJrv3CA9I55QdmgCFAiJ8tRmnlHdAGEDHKYatXvgAcYBTpHn7iufQkbfTaiUciBlQCo8AZvpGeKSueylc4MKjseC1v5cZ/bSlPZaEGhK42bgqQgTzSVGUB3tAAcpXfVrTtYQYfxKNCJHVpAcPQpHOkf2WKA8WBcXGggNu42qNKUxzYgQPTADfEApws/BZ94MwizR+o4LYlBwhEBxhgRaIjPiAgrlsAqI5gAKitW7cOX/AFXzB84Rd+4XDcccc16RHQAbCgB/TQEcbII8CNjT6pFDcglzKSqpGKOaO1ZcuWWfqHHnpoo0UiBnRII634gBvpGAkXmgCq7dFLL720ARZxSA2BIqAvak1IpYAdki5uoMb1UbZMlcdWJgXFuVOUdMy2YsqqDAE7gBGABGyRmAFh+ED57j3vec/GIyCIRI2UTHzAkCLjbGPK19Yl6aFw9XFbAl7K98ADD2z8OProo1uZtI/yA3P44uYDPNFeJHTSAYj6D+AISKuTcqYdlR8gd2OD+vSmJG49N8pdHBgPBwq4jactqiTFgXk5MA1wCzCKTdM+jfrAjYWa1MpVUEAd8BKJGzeJG/DlLlPpbalmwQeUbNGRFHlIu4AE23CRuAEgzmRJC+ykDMAC6ZZ6xV8Y/0jcnCmzRUoqRdpFUsUGVGz3cis7SRTQAozZviWtUzcSMACJ5MxZNoCSrV7AlbyAOGAMELRdijdAIMBDUidPl9UDmfyEiQdgAUtopNzqgT94qV7CgS1SNnwGpvATGAMiATPADjCjBNi78uEjgGVb0zYuiZt6qhfJIX9SNvyx7QmgJW/AWpnwXF7KjJ4tXuDsjDPOGE477bTh8MMPH4A/4Fb5SdwA8UlTwG2SI/VeHBgHBwq4jaMdqhTFgQU5MA1ws5D3AIPExYLvHJpzYs5u2WazgJNy5Qybc1QkVKQzFnXhQF2AAkAFuKFhe5Rkjh/plbs6nRHjB9RFMsVGxwO4XXLJJQ3oADsBFz5OcMbNViGQBfyRVDkPJywSKWfCXKNFkgRQAaPAJIkbcEOSaFsX+AOUlIvkzXkuaZSFdA1Ys00KkAGB6CiP66VIoWyl2nZUT9vBQCmghKepT/gLaDn4T/IlzJez11xzzfDc5z631UkdADf8URbgTtnlB6xxC5cXvnG70gvAAyCVw9an+PgHsL75zW9u/ARagWxlkxbv8AjwU3cgTjnlqf0BcO0A5Ko/kDppCrhNcqTeiwPj4MBc4LZluIcvSftnHMWsUhQHNi4HpgFuuEZCZNH2MKQ7QAUpFXBmUbfgAzvehQFOFnYH9oE9aQEnEjGgxMMNLIkvjnxIwkh8nMESjoa06HNLx03CZwtS2jxAkfTOfCmLcoWWc2vo8CNNA75IqNASH3ABWEivkpd394CigS7Q4jYGoAktNJUDMOIvnXorOyCjPsoBQDlDh7Y6hD4aHnViyyOSQX7ykzc+KzPpH1CpnuGL+uADPioLGuLKW1xgkltaUjYStLSJemsTRjmBTu0nb+0hX/XX3vJjhEmnbZSZFO+1r31t412L0P0UcOuYUc7iwIg4cDdwuwuvFXAbUeNUUYoDODANcOsBgkXbY8GOPztuAEE4wJA4whj+DKDBCAdg2H3cvAfcACT3vve9h6/8yq9s9ld8xVe0a61svwI2jLjoAy2hjQ4wwqR8CVPOlLtFmCkff+n6cnlH28Of4U7e3MmHW/yYpJVX0qYsbDRii5u0KYewGGFohE5oJ4148o8tbU8n6YT3acXz7tFuOeMXWombvFMmNn7bXrVlKjxhrRD1cULYUHZxYHQcmAVuuau0l7aVHrfRtVcVaANyYBrglkWdbWH2xA8r896DFuEW8sRL2rwDLPFL+tBm93STJv4BFEk3mW/is5k+PGlawMxP/EI/6YGe3oRewoXFzU654s9GM0/S8w/Qix9bfuKyQ6sPF5b3uPv3+IXveWf39KRJupTVex+Pu0/fp+nDpEebX2g1x8xPSdx6bpS7ODAeDjTgNrM7uveBtVU6npapkhQHZjgwDXALE7NAW6Tj7kFCFvqAAO8JD1AIAIi/OB4GzfiLlzyS/55sq6+6qzN3z0v15hc7bu/hsXTzpRUXEEQ7fObn6fOIu7e5+yfAMulbgXbyU8BtJwyq4OLAOnEgwK1dMn/gIXXGbZ3aobItDizIgWmAWxZqUiKLt0Ppp5xyyrBt27b2ZSElr85UiRfglYJY+PsF33kqh+TZPTBDO/mERkBDaO3Jtu1j9fZV6SMe8YhZ3vooIefL8AOPmPDGRwy33377LO/Co7SFj0V8jEBdiHNozrsl/SS/855w5dF2DHeAYcrQAnbyU8BtJwyq4OLAOnGggNs6Mb6yLQ4slQPTADd5ZFEHMACBKF/lD0QwFnlfhVLp4axUAJuD/PwcdgfYfFnpIL/D8vwC1IQ59O6gfw/kllrH3T2e82LUi/iaE199renmAgp9A6Lwl5oRtvgU//oSFL9tP/tgwMcRwJ401HT4ule4Dy34sfHdBwriC0OTv3xQF1G3AAAgAElEQVTxXlvwU4YARmFpq6XyuoDbUjlV8YoDa8sB26OOsrGBuPo4YW35X7kVB3bKgWmAWxZsQMwDuEUVRCQ/4kQVyEUXXdQAByAARAAfpHLUVfj6kUoK6iTcakC9BRDia0tqRfhRKEtVRSQ8O63cHhABH/EWaKNuxLv6U11ClYmvRX2VStWKe2LxiYoVKllIP90S4UvWJz/5ycMVV1zR1IdQLUIVCMXG1LXgOeW99LlRFyIuPXVUrkhDbQsQp42oZ9GO2gyISztjNbf2Xoop4LYULlWc4sDac6BtkTbgdkgBt7Vnf+VYHNg5B6YBbqhbrBlSHcDtUY961HDttdcOT33qUxugANIAASo2ADFKYX1p6NomutuAElr+qaIANsQj8QEiqJ8gaQMYxLOll2uxgJeNYki6ADdPwBEe0QdHMgZ02eoURv+abVVKcelQI2HLrRV4KFyYWyxc9QV8uSVBG9h+dQUZmtoQANQGtrABRG1CNx2a9MVRHgyopQ+kbEtplwJuS+FSxSkOrD0H5gK3+jhh7VugciwO7IQD0wA3C3UWbeCCJn8PaZotTws8YEBx7P3ud79h06ZNw5d/+Zc30EbK42aB0ADqSHHoP+vBhK07UrnNmzcP++23XwNuwMJSJTs7qf5uEQxw2Ral7Db1xmOAGK8AYXeyHnTQQY1Pb3rTm5ryXEDPdjSQhf946Coxynip6iDVBMgANzri6GqjGFi7Ad7AIH127h/VPlddddWw//77t3zue9/7tlsmMNA2KZOyLYWpBdyWwqWKUxxYew7MAreZL0trq3Tt26ByLA4syoFpgBvCWaydqwLaXMUUyQs7EjcSHQAE4ODnDFaAG/BBcaybDAAJj2uVSHuc7QLypHUDAYkbE8C4aOX2kECgGB8AN/XGC1drAbrOmpGoueQdgMKrSNxsrQJupGzAnbYCwPiRnAW44bX2oaeNFC3ATZt4nJWTzq0K6JB2AubaEc1IP7nTH3bG+gJuO+NQhRcH1ocDgFuvuq2A2/q0Q+VaHFiQA9MAN4s0EAEwZKsUIGOyiAMark4CCl70ohe1rVIfJAAerp9ytZUtOCAOEPEBAikbAAK4kQC5WskdooCDuIBCwMKCFdtDAtTThx8kbraSnTvzuHLK2UHhAJptU1vJPjjQBu4vdY4NIAPSXPsFoInnzJuzghdeeGG7MYHEzS0HgBzlxYCb84bO0Xle/vKXNz90bK96dwbOWTntqwxLBWxplgJu4UTZxYFxceCujxLycUJtlY6rdao0xYFVuDnBwg24eWyt5eomC7kFXTjgAShQTwFIMPxc2cSP7fC7659I7oBAQIJkiESJagtARFpx0PVsBBMeknwBwM4Gepz7wyd8dt7N1ifQRf2KuCRktkydEcRDYdL5WAFNUk3vtkLxFVgDxGxVA+PahJ820Bby0mbAonS2VrW59g1IX057FHBbDrcqbnFg7TjQ1IEceNeHCfVV6drxvXIqDiyZA9NK3GRkUQ/AYEf6wra42+qLZCYgTzpuIIGRznvc7KRnByCIE1ot8gb4SZ1VtedX+MyPO+9xS8eNt0mHRs8/YX2bCc978g1ATDo0hTF9XtLFvwUu8lPAbRHmVFBxYB05sANw6w+9cZcpDhQH1pcD0wC3lDyLN9viznDHTnjeYydOAIa0oRG3uD1gAA76MOF7sgnvwhcATP3zBLThC4CceOGR8PA3triexI2bnXSxEwePEx4QiF6fv/elmgJuS+VUxSsOrC0HZnEaPW6btgz3mPWYubx0bYtTuRUHigOTHJgGuFnUs7D37j6P3r8HA/wBASb+7ICI0A1YSBzggNuzUUx4EVu9uQOUwpvwRVji8sPDno/9e+/fp+Hu4yWPxBcufw8/73mW0i4F3JbCpYpTHFh7DkzitAJua98GlWNxYFEOTAPcsphbsEle3v72tw/vfOc7Z/NzNspB+Szo4jNJF1t43MJ7wMAdIx4TevHfk218xQNfjV566aXDOeec0x4qOpwL7IFsz5f3vve97aMEaRMHn8JPHxpoK1+GOjvnK1Ft4BEnbZL4kbKlDdDi17ebfPrwxdqlgNti3Kmw4sD6ceDurdK7PlAo4LZ+bVE5Fwfm5cA0wA3BLPAW7agD4W9R/8AHPtB0g3kPgBBvMWO7r4+/WNyNEgag+ao2Nyd4f/7zn98U7IYH+OrBZ2DKlVavfvWrEzwL2HiIQ7XIG9/4xllQFwA2CdB6INZvxfbtLk3SzWa4E0cBt50wqIKLA+vEgbuB28zNCZMiuHUqV2VbHCgOzHBgWuBmwfdY1AG317/+9Q0MIP/BD36wXWslzFeIrmQ67bTT2rVK9LlRBfKkJz2paen3lSTN/RTJnnvuuU16tzOQtxEaEcgCiuhxA9zwBL/dNOHKK1+M4t0111wznHnmmcPFF1/cVKhQlrtt27b2FagvRK+88srhjDPOaDwGqC+44ILhgQ98YNPbRr2I9nGdlfti8Z86EOpauF1jpgzSoXviiSc2UChvBogLkFtqmxRwWyqnKl5xYG05UMBtbflduRUHls2BaYCbxToSHmo8KHoFEOhb87jeiv4wYbT4A3W+UAQUSIPoaqNQFx3XNgEG3Lbw3I9JHYX3jW7wDP9ycwKeUNtBlxu9d4AZIAdc4amtT480eEh/m61RAJoyXdI412FpD8qPpUHDbQlUfVDpct555w3AlS1Xet7Eu+mmm9o1Zp/97GfbvbHaLCYSu7zvzC7gtjMOVXhxYH04UMBtffheuRYHlsyBaYFbFmygwD2XlOy69NyCDzhQvEv/F+3+dLkBHWwAwuOSc350kbkf84QTTmiPM1zSAX0b2eAvKRsFvNkq5QdcUbBLHxtpGcBMEnb00Uc30EaHG3BGmfH111/f/PH2IQ95SGunXKElPSD9kY98ZHja057W9OQBg0AaXXCkpkD0Zz7zmSaxk/74449vV1+5yxRwVz5tmGcp7VXAbSlcqjjFgbXnQAG3ted55VgcWBYHpgFuMrJYZzuP5Ma2GhAHXNDQD8gBX66rIkkTF6h46Utf2iQ5lOuSFJHA+ZCBm5JX264bHbSFv3iSrdKAI4DKLQg+LgCA8ZFkDiBziTxAzE2BLuAFmOG9tkEPCATsAtwo37VVSooGRLulAW1XXGkLII4fAAeo2SZFR3litPlSTQG3pXKq4hUH1pYDBdzWlt+VW3Fg2RyYBrgFRMjUIv7KV76ybb9lMaelH0ADGAAJV1rZniPZIZFzxu2OO+5oQADYcJ2SLT6XnbtWySF8QGMjG7zEW9LLZz3rWQ304qF7XQFhIIqk88UvfnH78hT4cl+sK8ScgXOW0NaocLy1veo+UnFuvvnmdiuCrVBbpdolwA0doO5DH/pQ2wLXFoAekOhDicsvv3z45Cc/2QC69k05tVXav2+3Sb8Cbj13yl0cGA8HCriNpy2qJMWBeTkwDXBD0IIMPFi8XUdl4efncRbKwXlhJDQAhPNW73vf+xogI82x5ScuiQ6pnHBgAS2gTdhGN/hHYvaqV72q8QfQsk2JP3jviisSS9JOd4uSnrnqCpB2DRmpm7Nr0gHKgCBAh9euuwKinJkTBqwBadwkeLZNtYV80PElqm1vZ+q0TUAbm8QtjzBp2Pwm27GA20bv1VX/sXKggNtYW6bKVRyY4cC0wA2ZLMxsxoIdM7mwJ9xCbit0Mi1QwS9P6GxUO3zAU278ZPAvvMWzAKO4A5qAr6RL/Lyzpcs7d/IJneST9+Sf9kj60PLO9O/ck6aA2yRH6r04MA4O3HXJfHdXaakDGUfDVCmKA+HANMDNIg0Y9It1Fnh23Fm4IyESPwDBBwjcTOIFYIgXv5R3o9l40fMgvMaHgCjh3HkXJl7iCucW3ksx+XvSFpPpk4e0fVuGVm+nXUJT2GS7Jg67gFvPjXIXB8bDgQJu42mLKklxYF4OTAPcEAxg6Bdsbgt375d48U9a7/FLfDagIA33RjbqH2CFTwy/uMMjNhP/xIm/d27hoZc4/Lh7nodOnx/QF3pJIx163if9kmfCWwFnfgq49dwod3FgPBwo4DaetqiSFAfm5cBqADcL8+c+97n2UQFFsJ7t27c3Rbuf/vSnZ8FCgINF+z3vec/sgh8AEdthe2pEpA1QmLfwG8ATTzwBWwFBPVDiDm/jjoSsB1Pi+GCEupbQCf3Y8Q+d+HunxsWZuLTJu971ruGjH/1oawV+viL2UcOtt97avkh1vs55RTSTJk1WwC2cKLs4MC4O1Bm3cbVHlaY4sAMHpgFuFnULuoUZUHCQ3aF192la1H2ckDNWiSeuryF9JdmDgt7tC0j3nNpGLXOXFC28xkdP+MUGinpglLj8Apri5wMRHzF4Z9CK6cFewpLORye+KPWRCT9fAbt5QTtLR0HvM57xjPYxiq9PqSDh5wtU/WDSFHCb5Ei9FwfGwYG7gduWwfG2uqt0HO1SpSgOzHJgGuCGCHAQMMH2VeKjH/3ophRWmK9KzzrrrKYc1lejttuoBrG4A3pPf/rThyOOOGK47rrr2teRrr3aZ599mrqLT33qU+32hcMPP7zFAwRIi0jzXI213377Nckd4HDnnXc2Oscdd1yj7cMH+QMZeXqQMsuAkTuUGfDxBWgkkNSoqC8J2NatW1u9n/nMZzYp19vf/vYGnCnQ9WXp2972tuHkk09u6jt8wevr0htvvHE49dRTh4suuqh91asdqAZxRZYrydAmWXvkIx85XH311Q1ov+QlL2kqQ7ALTf2G3j7AjfEVKr1xH//4xwftBjDiuxsbgLxJ3hdwG3nHq+JtWA7kW4R9Nm0ZPAXcNmxXqIqPlQPTADeLscU5kh3vn//859s9mNRXUDHxhCc8oamooLKC7jGLOnBhkbfw2xYFsgAT+sks+O7LFI/aCSCF9v8XvOAFw+23396249wEAJTQReZKLW7Ag7SPmgvXbVFhoVwBb8rGvbsZZaaew3ViFBMDccAtfuIXHvOjLw9oAqroatMO9KzR5QZMA9DUsADMQJ5wdF772te27VMgEO/f+ta3NmW/1Iq49goNqloo+420TZnwk7qRd7/73a0PoKsNxAPC6elDT3qgj7s3Bdx6bpS7ODAeDgS43XXWrYDbeFqmSlIcmOHANMANiSziFmYgDsg6//zzm94xZ5xcw+RCc9Kd008/vV2h9I53vKPpJAO6XHzuYvRTTjmlLfDu1qSIFwgBOgAAIOEtb3lLAxTOaNlKBSLcHgDkARnAmrylB/YAEekibWN7390Mvnre8IY3NOAKWNmG5EfKhXf4fdlllzWwS8IFENuiJtnEY22U+gO/QBY/thsU3JRACnfJJZe0S+WBxP9n705jtj3K+o8TlRiWAtJCkdKNlh3BQil7W6AUqEAREBCxIBYUF6LEiCiJCQrkHwJo0KigMUYFY1QQjcGI4BI1RH1jDEaN73zlvm9v7n8+037LPFfvp8/d597vZya5rjnP2eeYmeP4zTHLaWn01ltvHcud2lFbWLqOpmygWxk8S8d3Z2lUaeF8p1Yb/e3f/u0A3ZtfwVjA7bj1xFXec4UCX1gqve1KkKVxO1daftXz2FBgN8AtUKSyliu9W3YD1Gi/CHz7ngADl7fS8hDswAdwAID5sDx3oMsnlgh4wI1G6V3vetfQsAEpPrAOKFgq9VUFIMIz4CYfX1ugWQLc3ve+943lPuWaQYvyHVfjUl3AyKENXzmgWaR5pNGineTn+VOf+tS4jFddgV4HBdAK3RlLpUAgutB6Am/aAn0tRQN7lrQBN2BOm1hi1SbAoHjaWno+wwWkyQtQ9s1TbeVAAiCpLbW9PgbEzWYBt5ka63lR4OhQYAG3o9MWqySLAttSYDfArQQJc1oXP8t6N91009jjRlhbjrMZHljzySaAA7iwROezTJZP7akCDIAKoAAYs58LiHBKUXh74YA8GjcAASiw/CesE63veMc7BgChmZPnvM8KsFC24wjcKjtg++Y3v3nr1a9+9R1gyj42S5X2kPmOqDr7ZqmvKKCj74pyTwvnywvo41uxAFbfKwXgLFUDwoAhjaXTom95y1tGXtrU58qkVztre0A6zabyAc+0qbSfyiAswEkDuGkWcNukyHpfFDgaFFjA7Wi0wyrFosBpKbAXwC1wwSbknRi198o7LQ4NGe0ZYAAwODEKdAEXQAfQBTzQytEOAR+0cDQ8PrFk3xTg5x3ws9dLOsCdsICj/NTl3e9+99D2BSZVvGf2cTMBJbRSb/WtTrRdgK+9ftwBK8vGAG51BpDQD32BXZpQnxrjrw387BG0Rw54lqYlaPvmgDztoR3RX1vQtJW2fCxpexfGvkL0B8q1j7i0ezSE6jGbBdxmaqznRYGjQ4EF3I5OW6ySLApsS4HdAjcCO3CRXUYJa4I94c6Pe8Lfe2nMz7kVThxuhWGX35n8gIg5zEjk9nylWV7AESPP2R4vh/Q317lyVr7KGx0qc3G4M7O/d/6lVdg5XPSa3WhPHUawhJop3Ezb8mLTtgF7wHx5lh8wR4sq3DKLAosCR4cCC7gdnbZYJVkU2JYCuwVugQgCeH4uM4IawEigexYud+ES6oXh75mGjREnkOC9cAGX3Ao7vwvLBBikUzm58Z/TLmxlGpEP8U8dlaU9apXPe3WrTt6rZ7bw3P3Qk3vxom/+hWXPNOq5vDfp3rtyVN7Sqi29M+VF0+fAQ2W53XtZiwKLAodMgW2B24MvvXLrwkuv2HrQJVcecvFW9osCiwK7BW6AQGCAEE5we86d8PbrnZ1Azy2Bnvvmu5bixojjx5SufIuTv3fuhSmv2V8awpVeYUqLfZhmsxyBzMo824VVh5mO1U09PM8/4aKP+LXfHKY8uJUHW7zMJnicw81tk7sDDA6uSHOZRYFFgaNDgbsAbreBt6NT1FWSRYFzkwJ7AdwCCQS0/VL2rNmgvrlMFkCYwUFxAwoEeyAgoCBM4QIM+Xl3krR9caXDntPpXdjf+73fGwcaSou9+ZzbYfeK6pl9OuCGPmnhhPXO7ofm9qlpn+oafbwL573wvRfWJ8rEdWjBvWz21nWi1F42hxG42eNm35v4n//857fe+973joMP9jqivc9i0fTZ4wa4SX+ZRYFFgaNDgbsEbg9+2OVHp6SrJIsC5ygFdgPcCGeAIGDVKUab2p0Udc2EE6WEcyBhE3gg+wwyAgqlmV8CXp6e5VtaQIGTpK6e4CdM8Qovn8pr472N+rkVh/8cXhpHwVTPGfBWf+Wbyx+do5/6eBbeKVSAieEmnt8cdq5/9HAdCADmAIiDEE6OOs3qRK89b+5qe9WrXjXAs71rrhBx0te1LE4Gf/SjHx2fy0Jz/cHhh7VUehR61irDosCdKXAXwO2KrQct4HZnii2XRYEDpsBugFuCH1gADGjYgLWMG/e7uR+o8ymsBzzgAeNmfxvWXUHxoQ99aOuqq64afgT9eeedN+LQzvi5AiM3p05dB/La1752xLnPfe4zTloCE5dccsnWC1/4wnHS1P1m97vf/bbufe97jxON7jfz6aanPOUpA4AAIdxohnzWSfpOPwZU1KW6VZfDsmmzXKLrrjplci2HS2/RwbdCL7zwwkEj4NW1G12iq25O8z7wgQ/ces1rXjNO4/qygS9QXHnllUMrCrC5d89lueh1/vnnj5Oh4rp2xOXJTgg7kWppM5AXLbTfxz/+8XHZsq8laG9tho5OrrouxOngDifID8jT53zFQd9YZlFgUeBoUeAugZvPKiyzKLAocLgU2C1wS1vj1KFLYIEKhntAyBKey1r9aGMsp7nwFcjr80yWV8UHmmhyaG4AOXEANm7SdqXIm970pnEprMtjuXcVCHAoHjBhOc69cD6M7oqMV7ziFSMOTVCX1VrOpR10/9nNN9884iozgMLMz8PhEP6UBa3USf0AUJcTA8m0XYAdIIougBuQh94+K4a+/C1pAl6AmzA0jsCa+K70oBUTBwD2VQbLoS5RtjTqUmOnSQE8ZekHKFoapcFzpYvvnL7kJS8ZbSP+Zz7zmZGHe+R83UEZ9Akg37Uj6rOWSg+hQ60sFwXOQIEF3M5AoOW9KHDYFNgL4EaYA1c0MH0CCQDzA36Ahx//8R+/Q3gLQxvkW6QEuCU02hn7qKTlTjGAwtKeG/jd4P+CF7xg7KOyRwpQARSBFUukATfaHEBDOYAUYA1Io0Fy9QTtD+Amb99S9Uknd8oBE+6ZA2Dkn1H2wzbK45JbgAutgFkgCxADdl1QTKOGXrSX7lBD7/e///1jSVMdACZAFk0sYdOAAU8AFi0ZcMvvla985bh8F03QXJsCtfJGO2XxAyB979Tns7SxdGjQlIt2Trt++tOfHho1QF3ZaE6lgdbaBCAH3JRtmUWBRYGjQwEflp/B2/jkVadKl8bt6DTUKsm5S4HdADdCtx8BbrkRAGO4Awi+cgAcENT2RXH3IXTgDLjgtgncgBNAwJcW7KdyaayN7kAXsAYYAG72SdGa0QYBcDRJtD8+peUyWOWRlmVG4QAaIA9w+Ou//uutb//2bx9aJ6BGXr7kEFgLwGUfZg+xrAtc9bkr9QU+fVHCXWm+WADQAli0ZtqCti0QrU4AE3BGI4ne6AFwCS8t6QB9QC8NpUt70QVNgW5fRpAGP6ANAATUtCca8WO0l/D2sTnEgOZo/brXvW4skwqvfSzBWiqN3odJ35X3osCiwBcocMHFD1/A7QvkWE+LAkePArsBbtWG4PbzVQN7nWiIaGp8Yol2jLC2QR3AoM1561vfOkAHAe80qH1RP/VTPzVOe0oH2AIkAC9gBWijMQOsAALADWgA7jqUoB7i+JwTQAgs0Bp5BjZop+QD/HHz1QW2pUHg0YfaLUEqKzDh5/koGOUGul72spcN0AW4oSU60xxa9vRdUvQEXJXbZ64sI6tTgE4a6AdQR1eHBYC86CWsJVTgTDhat5ZKlQMYA/YcWKDh5AbsaRt0tgzu1K4yAu3aBEj3zVTlAhrlTbu5NG5HoXetMiwKnEqBWdvmeWncTqXPelsUOHQK7Aa4AVkBncAbQHTLLbeMvVg0OZbHgCBLmAAZP/uzaGIsp9GMAWH2RFnSpLkBAgADYWhmxAECAQkAg8ZOHJooy3XCASAAAu2aZUAaNBo5QAbA+NjHPjbSBkTs/7JHKwAkfYCGCbTRWlWnw2ykACSQ5joPZVI2tHMIg/YQ7RwGoGGjeSsMmqgbYKUdLGPat4Ze2sApXMDOXjV7DS1pog3a99kq7StfNKd106bS9KOxlB8wpm1p1ew7pA1VbvT/ju/4jnEgQttxsycOWEbvtcftMHvWyntRYHsKbAvcLJH22z7acl0UWBQ4KArsBXADJAI87ACP54Bdtnrl3nNxhCnupp0fYFd49uavJTvhPZdO8QvvneHPTVj1KP3Cj0CH/KeMc7mUlxtTOasXd26FqX7eGXZpAb/8/bj59V663gE2y5tA+ezOzzsjbvmWz6YtHUvmwKIl23WqdJBu/S0KHCkKLOB2pJpjFWZR4M4U2C1wS9AnxNmZ/BL2ubNnP+8JfXbhs4ECJjDCnn/CMQGP4lWWOV5uwnvmx6Rh8yx+7/mPQIf0V/mrl2JEP89zGatTdnGFK372ZhjvpZdftkMGgB4zh/MuvdzzY2+2B5pKR/h1Ae8g2fpbFDhyFFjA7cg1ySrQosCpFNgNcDs1pfW2KLBzCgBu55LGDZD1C2Rn75xiRz9k9auugPpsZoDPvXDzRKLn/LObgIhTOvyaHPCXX3TN3ixT6WVXBuHLezNOebJPklGf6DfXfQG3k9TKqy4nkgILuJ3IZj3ylTrXgBtgQFD6ebbnz8EO9kn60ahWN8/Vkd07275I+01nN+/iciuN4vOb0/Bc+NIRrx//fuVRGrmz7f1kl4b3wimD5f05PLeT8FOnaDXX0Z7iBdyOPPtcBTzXKbCA27neAw6n/ucycKPlcBeeU9gOzpyUXyeN1U2d7Inkpp4Oxfh595vrz733/MUvnHQcpBFOWsLyK4zn0s+fX275F768vPsVh7u8xCusZ/ELU5yTYM90rD6XXXbZAm6HwxJXrosCO6fAAm47p9UKuXcUONeAW9q2KOh+PKCA8AxgHHcbuHFPIvCjfn4zAOLPjQ2I5e89WgQm+HkWX1hpBqpcNcRfHPmVR2EBrcAam7s8SpvbJhCUlvSLWxzxuInrFPtxb6PKH83QT/24o8kCbo3QZS8KHGEKLOB2hBvnBBftXANumhJ4yyYsAwWBhZNgAwTatitkXCPjXr9AkS9+uKTZV0A++clPjvsG3RtYPFcBuePPRdvoAaSJz81VNdJzhZD0nEx2OXfATzrcgBBX21QGcd3V6CohaSqfa4K4iw+QubrG3YfyEI+f7wFLyylo6VWHk9JOwCjaBYLV9dJLL10atxPMd1fVTggFFnA7IQ15zKpxLgK3eZ8bIQmsnKSfOgFBLn72fVoXPrsE26XcgJI7Fn/wB39wXCTtc3b8hXWRtouaXfrsE24u6OYPpAF6Pnf3+te/frj79q37/7i7osaXWgJuvk3sPkHv7iX0/WFpuW/QJ+2AM5/Vk/Zb3vKWLWnJDzB0cbfDMjfeeOPWM5/5zBHGPYjSAjDVAbA7ae2lPoCotmMvjdsxY6SruOcmBRZwOzfb/bBrfS4CtzRuaH+SAEB1ocGhnfI1k5/8yZ8cYIDfz//8z4+vZfDz5Q1f4ghsAQvi0XIBZ7RmQIQLoAEpQAsI9Ik17sCfbwzTiAFu8qGVkwbg5hJuefpSx8/+7M+OfLyLKwx/l3OnPRMOqFM24Xw5xOfgpOldOOX1RRA/bmncepau5+P+U6+lcTtszrjyXxTYAQUWcNsBkVaQPafAAm63gYnjLuzn8hP8NG6+xPEzP/Mz4xkAAtb6zJxP4Pk0m3iBI/H0B5ouGjhLmoEhS5+A2+///u8PEEZr9tKXvnQAOtq70pKer6jQuCkDP1/xALz8pCefT3ziE1sPfOADx0bCKTUAACAASURBVOfYgMAAZMDOV0YAT+mJpyw+0WaplIbQF0paWqzuwkm79+Nmq3tlXsBtz1ndSnBRYO8psIDb3tN0pXhmCizgdvKAG+Gfxu2qq67auv7667ce9ahH3aFJ4wdQPelJT9q67rrrtp797GdvvfnNbx5LmOJaLrW0yd13eS2VAm7Pe97ztq655pqta6+9dutZz3rWWHZNe+cbx4CT+D7j5pNs3oGsxz/+8SMteVka9V1fAE6ab3rTm0Z6bFq9gIvPsfmuMfAH0NiLZ0mVBlBY3+mVPj+gr3gz+MntuNhz2RdwOzPvWiEWBQ6dAgu4HXoTnJMFWMDt5AE3oAigstQIUAEutGCWJrU3MJTGDeihuQrcOJTwh3/4h+MdkLCfzJ43S6RAnH1whZUPbRntWMBNHEujfZrNsiaNG01YwATgArwAuDRkP/ZjP7aFByoPtx/90R8dGkNhfTsZsATYaBF9d9f+uA5TSDetYWU7jnb0UfYF3M5JdrwqfdwosIDbcWuxk1HeBdxOHnADfgAZy52+SQsI/eVf/uXYQwYgAW72mH34wx8eYAo4AhYAB8ANMPqLv/iL8S6Md6dLATegbgZh4lmOffvb3z7S+PznPz8OJIgnnOVNe+uAQ/lwE+dDH/rQ8FNW5fme7/meU/auKSfgyc9J1Oc///kDdAKLgNzXf/3Xj7KKr9yBz9KXx3H7LeB2MnjqqsU5RIEF3M6hxj5CVV3A7eQBN/eA2RNmOdQN/IEZpzYtcVqSdBjg4osv3jrvvPPGXrNLLrlkaM0AIQcNLr/88q373e9+40QooOT06Gtf+9qtz33uc3ekV7riyOv+97//1kMf+tABuMThDvRJRz5+lk0tpQKWysBNPCdOA1ri0eABfZ5p9PBH/sAfgMPNUirNojAzKCyd42afEbg9+JIrth508eVb5z/stt8R4iOrKIsC5wwF5tNtmBTGusyiwH5ToEto2YCbax3mvrjf+R92+nNdgY9ZYB43Yb9deQNUbD+XuwI3wqqr5+pMU1V4/p75zT/uNF1scTe1W+Lw30ynOOyeS997ZSp+5cveTI97v+pQ3OqT/3GzN8t/mqXSh289CHhbwO2wecjK/xylAOEx3ye1gNs52hEOuNr6XR+09hxwmz8YfsBFOtDsGnPZgYfjJuhXeb8A4k4CLQBZILTfaYDb5VsXXHzF1oNv17od6MhZmS0KLAqcQgFCE3Bz1J5AWWZRYD8p0KRBHpbA3NPF7Vww1dOY8xxwIzBnLdN6PlXrtuixf/SoDwKgAbdtL+C1VDp+C7idC7xq1fGIUoDm4//+7/+GALGHA3BLsBzRIq9iHXMK6F/6XROENG69H/Pq7aj4jTngzZUU9oS1nLfs25Y1Fx0Ohg6Wnf30QUva/bYFbu1ty95Rb1+BFgUWBfaMAgRoyzUEKeD22c9+9pRlLGHWb9FgP/oA0KL/AS7f+Z3feQeQ27MOfkQTUuf55xJY78x+0HmlucbvmfpAQ0U/FJZ95ZVXrm+VRphlLwocFQo0QBusgNsNN9wwjrk76r5+iwb71QduueWWra/7uq/bet3rXrf1kpe8ZBxOCLwclfGxn+VozBmD559//gJsa4J4ZPpA/f7hD3/4nYHbbUulD9+6YB1OiE7LXhQ4cArQejAEyL/8y7+sPTYbp9nWvpr92VfTZm70tb9G39MHzwVTPQNvAbdzoe6rjkeTAvpkE6f65RVXXHFn4NYSafbRrM4q1aLAosCiwKLAosDeUyAAZ6n0f//3f8d3PB/96EdvPe5xj9t6zGMes/UN3/ANW3//938/vonpm5mebWn4jd/4ja1v+ZZvGV8M2CyVu8TcZxYQNjH7r//6r7ENwhcI/uRP/mTrqU996pZ8HvvYx2497WlPGx9kt+fuf/7nf07R+iTA5aGsftLrOXsW+J57n/1zz43NLdtlvA6peGfaA9n7Zj0P6r3yoY/y+vSWO+i4+0UPfi4M9pmtf/u3f7vDvXoo7xy++NXDuzQK17P3nouTXdy9tKXNsLfVuAXYsvcy85XWosCiwKLAosCiwFGmQEJyBm6+h8kABD7T9MlPfnJ8v/P7v//7t/7u7/5uAAfAjJay+HMdA27/9E//NIDYb/7mb44vFwB6n/nMZ7b++I//eIA4/gCBS2qBJgcB5AnY+aKArxcAHf/+7/8+yvDBD35wfHoKuLMn0bdEXayrfML88z//8/iygTSUU16eubvI1lcI/uzP/mzkafO7y2t9UcFXCVzU62PxPhIvLV9Y4O8SXpfkHrZBJz/09okrNPaBeV9TQINf+qVfGkBZe33t137taC9hf/u3f3vUowNf//3f/731W7/1W8PNh+odykGj6NFnudDdVyI++tGPbv3u7/7uyFu4QKDn/TL1KfYCbvtF5ZXuosCiwKLAosCxpEBCMuAGQH3iE58YAAFAev/737/1a7/2awMo+XTUT//0T2+9853vHIIekNhOgAfcACYg0AfWf+EXfmHrxhtvHKAPMAMC//Ef/3HEB0Te9773jUtlgSRfAgAgfFP0V37lV8bnpWiRgJMPfOADA7ABdm94wxuGm/IAJr75Kd3/+I//GKDGVwj+9V//dYAv4X07lNaQVgrwBNIAsz7Ufuutt45nIM73QH2i6v/9v/83QM5hN652AprQG5j61Kc+NYDo61//+kFbZQfifvVXf3V8zxRNvfumqU9xfeM3fuOgG8CLBmjhaw6+haqd0M0H7X/4h394/NCQm+uZAMRAW7a23y9Tn1zAbb8ovNJdFFgUWBRYFDi2FEhIBtx8FN1+N59fus997jM+wQT80MxY2vzSL/3SIfjT/hR/JkDAzbJqoAroAAp8FeVP//RPxxKp9O973/uOZdm0OsDSD/3QDw2g4HugwAXgyB2QlA6tEe3ZT/zETwyAKS6Nms8+ARv85fHWt751aNLe9a53Db///M//HIAQ6Pmmb/qmoemzPNwSrbrTQsnD0q460g4Cb4dtlEl52B/72MeGNhIYBWiVFS3UC2DjRuPou6e//uu/PuLRygFrgDBgLh3ADq3/6I/+aJyoRgv7PdGBBs5BMUvitTFbGWr7/aLJnN/SuO0XlVe6iwKLAosCiwLHkgIJyYAbjVvCnnbFTxgA5pu/+Zu3fDyd7Tub3QO3WfGAGxBgjxwtD6BAw2XZFDgCsCyV/s3f/M0ADZYmhbF0+chHPnLsgbv22mvH9z6BCADD90Xf/e53jyVVIFBaQIQlUcCFJg1QpC2i1aPpswz7NV/zNVtPfvKTt57+9KdvvfjFLx7Lhy54ffWrX7318pe//I4lVXVXVneJfeu3fusowxOf+MRRvs06HuR7gCmASXsJpKGndkA3mkNLoLSOtKRAM43jE57whLGH0D5C4FYcS8vo9ulPf3oAYPvlrr766q1rrrlm/Jy01nbvfe97R7sH1uTjmfFc39lrWpQuewG3vabuSm9RYFFgUWBR4FhTICEZcKNdouEKsLEJaxo3Gph/+Id/GNqct7/97WMJk/+mCbhZCqUV+rmf+7mxLEoDBmzRhgFuLZXSAAFi9pY5vJAWCcADUOxlA8CUwxIqwGGJ7z3vec/QrkmfO+D2bd/2bUNbBADKD0BTJ4CTJs6eL+BGHQE8cWjvaPMAN4cTlBE45SacpcXDNoEnNuBm/5+lTcvHAV7lVk/AzcEQy8qWgdUDXf/8z/98LFWjDVqj4Y/8yI8Md18NAaTtM5SOww2AmzaQJxNwq81z32va1Cd3DNyg1HP1R7VqrZvd4DSwvEeT+V2Y3j0Xh22GJC22uNIoXe/izeHzm8PlX3zvxWWfSz93TC2zKLAosCiwVxSYhaM0ATcC3l4z+6T4E8xsv/al4bveLbO95S1vGfufxC+sZ/vUfuAHfmCABwcY7K+i3bIPC+iivbN3qsMJNFw0ZZZRLcuKS9tGUyZfoNFdfs95znPuWMYDWuzfuv7664d2zDIpMPK2t71taNVo5lyoDJx97nOf23rRi1407ocEGIE52qdnP/vZW695zWtGXZRfvuIAdnjuzTffPNzstQu07BX97246aM4op2VjJ0sBzl/+5V8eZVMfgAvApeW0xOm6G/VByze/+c0DlAHVDoloD23tAAZAq81pJG+66aYBgi0rA7IOKMiTqQyb9vDcw785/R1p3LrX51y0qUZ1aA3ruXcI3DOaOH3jsxQGIzfv/MUzcPh5NhALKz2D3WCWhvCeuQN2nsXLT7r8cufHTZ61izz8ej/p9gMe8IA9HBYrqUWBRYFznQKzcPRsXxsBnTbFfifupwMsc1hLeExp9ux9dpO2d3Fnv55zZ0tTGUqruMJyB9yAQOWbTeUVDhBluHln2IUBWBj5ZfL3Xtr8y79wB21HG/nWRrNdHXKrvrVN7sJx8w4809h5L754/Ho/6HrKr7KzF3D727+9S6ADCM0gLUAWSAKe/ICkgJsw3me/OUx+gSx2/uz5vTBAG81b/tzzy20u50kHbeq3gNthsI+V56LAyaVAwlENPdO49UxoE97cE/js3IRLsLOFK07vhZ3jCxdIKBxw5bm8yzP/QBZ3P+9+Ntl3tYc8Cs/uuTi9s+dy8S987tu9C3fYpjpWzuqWzb1f9Qp8R3O0tp+NJtPXaSyTcisNdQ+sqq93cQ/aKA/DHsDt9g8kjGvbLrp86x7d35Z9LoCA09XRWr89DDZl2tTItj+BmtqauCPBgJNwH/nIR4b6WVpAnEFkLb207ROwv8CMiBvgZZ+CtXdunh0tlwe1rX0JNle234DKN7BG5WvTZWmfi/YCbgfNOlZ+iwInnwIJSDUF3DYFeCCG+yYo8L7pL1zCni0Mtxl8yWt+L+05rTmuZ6Zwnrl5z22OK+3yLSx/7n6lVZzCes9vTpf/UTDKVJk9q0vlZOfPXTjlBrq4z4ZfYbPFET5acN/8zWns97O8GfYM3PrC1QJukxbOJkRr/o4MO1Xk5Iljwu60sZYO1NGGOYrseLV9AEAUQGcPgOPVNkYCXMDZVVddNU4EtZxqLR7Kdw+Q49tO99hUKi/gzNFvJ3pe+cpXjr0FThlJH9ijFp+1bcDivHR60sHcAm77zSpW+osC5x4FEs5qnsYt4Z2A59dz9ixYo5p4+QMCaXv42y/FjUnDE8BgV47Ag3Q8F6c82NItn8Kx85NWZZn9Pffjz0jfc/nz75n/5vvsNxI4wL/NOkUHZQTQomN0n8te3IrLr3jc1Cs3z7Nb78U9CLs82aculV4+Pk+6gNsE3GzgtPnTZlAgqf1n9qsBZK997WvHDc1OnzihYrkSkHPqhkbOKSNADIgC3HzA2WZPgND+N+Duu77ru0YaNqHa/NnRa2CvfNzb88Y3vnFsnORug6TTL/Oy7FoqPYjhs/JYFFgUOOkUIBz9Am7qS9D7Mfw2ARQhn1u2cNztGyvNGQzkxi79Oe6sHco/2gsnHsOvPOYyAiyMcJv5euceqCnciLC1NYDPnJaw8uBWWptxintQ9lwHeaJJbp6VFShmuOc/066yqp8fwxY3t007v+IehD2X7VTgdtmW1dEF3Cbg5qTPM5/5zHFq58Mf/vC4F8dt1GmzaMke9rCHjSPYabsAMmEtbTp94iQPDR1g50ZnF/nZ/AgMWhZ1gsUtztJ9/vOfP8CZ+3ek8Qd/8AfjWLIlVpo+IA/Ac/LF3TMtnSqP/IHLynbS7aVxOwh2sfJYFDh3KJBwVGPPm0uluRcOGMhtPNwer2cCfvafwwciCitNP2H8eg8kAHE95yecdJg5nudMaRan9zmtOfycjrBzuNIUht9hm8pRmZWn+mVz4z/TiVv1Km5pcfdcWtUzt8LP6Xsu3KZdOiPBqX+UXuHzP51dOPYCbhNI2w7o0Li5pM9ty+7H8XOHTgDJEeSXvexl4yRKy5j2qjni7RLD173udePINQBG4wa42fcGmFlqdZcOgGap1AbJ6667bnzaxF0xAN9nP/vZAdxcmui+Gfm520c5bKKszMoTcMztpNsLuJ1uiC/3RYFFgb2gwKxxu7vpBQCyCdyENTfGewLZu+e0QfmxS8NzP2G5F6fw28Xnx7244qXNE597ZSqv3vkXpufsu0uTvQ6vHJWTXd1zjyYzrQsfLbK5z/WKJtn8ei4vdm7FZZcfv9wLl1txey/eTKPZrWf2Am5nAG40bsAUABcQ6uoPfu59Aa7cg+MCQNd1uDjRPTE0bMCY26379AbgRrNGY+bZxYeAm09vAHfuyLFUOgMxhxNo5izN8gMi3d9D4wasBdjECVBW1pNsL+A2D/H1vCiwKLDXFNgNcCNg05IR0ow71UzKH//4x48vEFg9ycyCPWHO7lk493b6nqj7QGf3wsmvZ/n7uRfOoTdbaSqTPdkO2DGBnco4L69aZuQe6BO+9EfkQ/6rjnOZuUUbz5U5dzTKTTgmPzKWwqQrUeb46OB9pvGcj7Z07xt/26N8lcKH7W13Khw/q232ykvPdiqYoTKU33DY+MuPfSpwW3vc7gBnAR7Lk8973vPGxX5OhVre9AOgXOjnZmrLlT4vYhnT4QR72GjTWsbUSPw0mD1uDi7QxjlwoKMAdRoQoPuqr/qqcSgBKJSPo90GmKVSzwaf06qXXXbZON2qUygrdwCuPCv/SbYXcNsY2et1UWBRYE8psBvgpiCBBM8OI3zwgx8ck3RACKAy4bfdxjswxg3PdkEuYQ9AAGv2TfOXnvs/+XnG/10u64sA3kuj+z4BGuFdNCsN8bi5AYF8kb5rprprtEMSvhBAlpApwgMLM3CY3/eU4HcjMWVQHz8XFPs2KTqiMzoCRuqGFmjKXRj0IC+BaOH5qSuak81kLTdKEHWXDjolY6XN3YX53NjCOywoD3R1eFBbwA+UMvUDq3Lkvtsi5E3+898EitvRd6b/AG63XweyTpVuo32zPOkaEIcQ3Cbtrpd3vOMd42Zme9PsXdPoOofG8I00S5gOH9T4lk41qpOi/Aw0S56WTA0M7rRzwKArQF71qlcNTR7bSVWfQpG2D+XKy4lUy6U+72Ew6mDc5Xcu/RZwuxtcbgVdFFgUuNsU2A1wS0MTuCAjHCoDxAIdJutWTgAlX1wgW2yvcQksMPJXf/VXQwP0hje8YWyPoTxwUA34IGN8fYEywOE4e6vJFwfiaHqsBlEAAC/SJivkC0RQFvDze+5znzsUC240+MVf/MUBboAJigmKBNt4AB5xqxNCqtdhG2VQLvWhGAGGKFPsGQfCyFO0Uw+0pli58cYbx6oVUGX7EqD2pje9adwMwY0/5QsaUroAs2Q18Ot7pVbTyHBpozv6+GIDGa4stlL5YsNHP/rRoYELhGtjW6McSCT/gT9tbKVOehlpROvc2NyyZ+B2/kWXb51/0WXrcMIm+AGK/ELcsz/gZdaz6e89QOVZnOye+fvNmrLchJHfnFd5cNsOsM3pz/FO6vMCbvOwXs+LAosCe02B3QC3QEU2TYzvjQICAAZD40KY09oAAibjNEG2xgAaVmJsxQG2CHfbZoRzuwFw1aedgD/gxYReetKw6mPbDqDoWirAkQEYhAfagD+fxyLDKBAoCsgjy7k+dC8foI/SYAYO1WkkeIh/ARzKDd9OJQOtblFuKD+aAZsAqeVLipgXvOAFo77qZgmZtpJ2DG3Rw0flyWHbmNADvax20bQBsOgvP4DP4cOAHVDN2PqEZq4Qs63JDRPa++Mf//gAbEAdcCmetLnLF02Z6Nz7cJzc+Z+6VHrZbcCN6m3+nVTBv5N6aUCdIHBWHO6edRQgKlA3u+cmHHfqaIOnNNgGiXAz6MpNusUtXfF7Zvcs3JzGnMdJfV7ArSG97EWBRYH9oMBugBsBOwMcwI3GzXJawtmKjeVToICQBzb42cdmS4xDaPZXcyP8yRAH1fB08SyzygPIs5eaGy0SQGAfGyAIFPo4PPkgnTRutEvABg0QN3usaZqAFIAG4AN6lEE4+QcmpON32CYNoLJadlZf5VVOoNgtDW59uPTSS4cWjsaN5gxoUs/v/u7vHiC3+lj1Apr5o7sbINAS0HrMYx6z9ZCHPGTY2hKNyF+aNEDYypp00F3boan0aED5Ae20b8A4bRx6CmNfnPbzXjnQdZO+vbO3BW59MSF7BgdARu/b2TpHQATYATS862jC82cXZnYThn/ApfQ345xUIHJ36hVNo9VMz5nWPUfLu5PHUQ1bfwDcdOKYYx37sJnJyn9RYFHgZFBgN8ANBeJJbOCCNszyZ0LbUpztNcAcQEaDQ7gDF30w3QE3PA4AA+xoegA4y4GunAJeaJMANxo3+60BD8txgIy0aaNon5TD8px3oILmiIZKeYAHQIXCwB4tMgOgtFWIpkrcgNtct6PQ0gAQTRcgRlMGbNE40kjyQ2P0AqDQz54y8u37vu/7Br3Ry5IyQKYd+NNIOqiA1u985zsH7YXRNsIBirR2wlruBBTRUZsAZvJ1YOF7v/d7h9btGc94xtZjH/vYrYsvvnho9exdF1cfAKKF36Rr/Wd257Yj4GYvF1WiH7WixvSb33UqHSK1I9s79+J4Ls7szq13Yfvp6NBsaXmX75xOYc81uzZQ72jK7jfTaG6rk0QnH4COmbDnTn4UmMkqw6LAosDxpsBugFu8CdjxAybsf6JNA7A+8IEPDBsYI8AtrwFUvsbDpvjwWUPhadKAKqBMOPwdQAFCaPGAL1oxe6lbWgUegD/lsGwnXfkCK0AeWQG40bgBHACiJVIygsy3z066wCY5PIM2z0eF30ZfXxqyr88BAPWx5035ATZ1t08ccPM5SUBNndALrdXRMw0moKqtgGi0RQ/AjYaNNs1eQCBXmhQn8geQ0R1NuLkcH40tq2qn6AWc2RMHaCuDJW1pKnNhZrpu98xtR8DtyiuvvKPRdDBGZMRh90ttORdAQXufw3MXnsm/dNj8uIvDLh3vpTMin6N/aKTh0WamX++5IU/tcpJIpf4PetCD7uh73tV5mUWBRYFFgb2iwG6AG767nRyzaZ6WBaiizRGGXKUtssRmXxpNDn7G3f4nbrRetHE0NeSh/VbABT/7s6QDBNIKiUtzBvzhjUAKsCF9e66AEWFM6i0fkqkOPNAGchcPyJS2sNWDn580/Q7TVAZlU35gFo2Si+hg2RhwAqYsS6sL+oUjvNPKdTcrMKt90Fd66CF99K0NuGkf+/5oMxkrizR80kUfeaGz5VZtWFnZyqJtai/AEoBjCjdeNv74FWZHwE2gzQRrvNIuUe8RsjjCZrjN7xGQzWTP6RW3PPnJ41w30VIn8xxd0KY2QCPuJ8lUb0xVn5j700mq56rLosCiwOFSYDfAbZZX8eB4V7WKfwEM9kI5GVrY+HoyMZnHv590Zl5fWBojafPzLDw/du+lX7qVqTSLz7+6zM/cDttUHuVQn+pUXauLevNTZn7isasDP25+gBb3ftHaeyCssNIvL0Dckql3RrzS73nOVzingAFB/rMpz0230t0xcFMASNGaLZWqNVmoUoWhVn6eGSheYcwIFFRctsJws7ZcZfl5hlgtrZoZUPlK3wfWIVZ7moTrt12l5gqeC881NNtMyTJyNOXmGb0MUvTT4U6asVS6zKLAosCiwH5RYLfALbmHHzN4czLPO/eAFPf8e/bOSCeb2xyOu/fySg7P+ZRe6fRe/t5zE6Yf//Ka8yjsKNQh/lW26q5cTPWZ3T1XbvXynHZOnNKa65n7bBdXuOKU7uzmWVsUhs0ohzSYypnfcLy9LNu58ee+I+B2xRVXDMFvM54b+6312nBHtWuGAMg5yQHAAV7WdiFJAK6M2ApMLeurAVSD3v08W4u2vkyd64I66+7yccpF+irqp9AqK965bNDBDx1sMqXKnWlT56LutRZvo+lJMdUdU/W8zKLAosCiwH5QYDfALR6MR8ezes7OnUxLvvHrfdMtP/GEyVb3+T13NmAonfIs7d7ZPZeOd+Fyn9Pz3G8/aH530qxcytqPW+XPLTrOfrkJy8xpee4njZ6zo8tmPnNYz0xu5TGnMbuNwHfxJ17hdwTc7HGjKQMArAVLQGGszVINOkYMuFH32txosx0whjBlVBxr0DZa0q5BozZKvvGNbxyX29Kw/c7v/M5II3/5+FkvtjFTmu6bse4PLdsE6MsGz3nOc+5Y37f5z3rzS1/60nG6A8h84QtfOI7/Ko+1aZcO3nLLLWOzIm0UsOk4tnQc/a28owJH8K/OhoY2sNJQ2uCoHdRL/bw74fKkJz1pbGIF4rTNTTfdNEC3/RIMraZj08CzO2bQHggH1KWD3vJxbBmNhLO2r12YuUMNhwP4U/+Am3JUhr3Mek7Tc7+9zGOm4fy8l3mstBYF7g4F5n4v3n6Nr7tTpsMKuxvgNgv3aEoufuhDHxqXvJJPlBIM/soIFx8g62ba88PDxacg8e6XLBDWr/fSIpddceG+Nj/3mFkh41/ePbN7ntMZAY/gnzL6KTM7elWP3uei84tOhUN/dHJAQRtxZwqXnVvxyhuGcBiEskobwRxkJ7fCaE90d/pVOFiITC2vuYzbPReOvSPgJpCC0YA5uaEggBytmI5n+ZRmjFAH7qqUzCs0wnB3ZLaTGmwnZiyTPuUpTxlLo9JywsPSX8QSD8iQv42FNgkCDkCekzYI3Z03lmgBFUDGJkNfO3Byxq3GbqV2J5vbj23iFJ8bIrrnxu3IiOkbYzRUyn5UTTTWGZwYsr4O+PrCg7o5zq3zWEZ1OshyqSPMLhQEypykcapJR7r11luHJtTJGCdubLx0AgcAds3ItddeOzbBOmkE4GpL+TLKEZ08H6TBVL/4i7946573vOfWF33RF41n9l79vuRLvmSk6XZyRn/02w+DdqXNPmha7kedVprHkwKNaeNaXzTWaW3ORbMb4IZejWO0pGgAuoADPBRvtq+NHBIOnf3QfKZ3/LZ2iT9Ik5uw3HLnVhxh8H6nG/FyfuSirzOQcfLjVr6eK3fpzWU5an1AeZWzelQXNhpEF8+FhR08Ght0ZAAAIABJREFUo40fbOPdYQZKCQcz8osWxeUuTen17N1qIQUHQx5TasnHCVWKotrIlxYoTrQFY/WRgmUnRhkY9o6A27xU+sxnPnNoZ2ho3NSMYECS24af9axnjY4IcW5WVOW4WdIDKhAJWLLMp1IAgcoDbs9+9rO3brjhhjErsTTbrcKWWX2aQkdHOAPBXSu0SkAIEGfp1hFpZQBgLNlqCHH5A5o+W4XIgJrPhwBzQKiyAIE0VvbvHWWDlg02qD4tJEAGmKGLZ3QGqu0rdK+PAQzkAWXqjObuqtEJnXRxXByYE06bALzurdEZtbcZgrAZ5fBjsvPbL7u6dx2I8lSOvbbVH9jVfxuoe1mvubyly22ZRYHDooC+7sckEHs/rDIdVr67AW7GMbpFQwoKMqj9yGQYWdYqB62Y7Uc0Yi5rJfjxYnzcihGlCPmJNwN9ZBoAZsVJPAANMAQGaXtuvvnmIdPIQnJTWspE3rowlsyQhxUwMtcnnuwvJzMoNKRLFkr3qBq0BXxgCStF6ogW6uDKDTSAS7qPjbx3nYo6wwp4u89hWfmjtKG4IAO1AQUSLRyA6zNXMAma9MUJX6OAg6wEWnmkNNKmsAglCFwCg6C5cvpCgmtFtI/ycbfa5doS8c5khGfYOwJuAtGw6UCW5RrYbIkAQwqjgrQyOo8O0WBXaEJP4XQ8nRKYev3rX3/H0VuVBdp0ZJ0b+Ch9cf3cwaLzOgItLZo0DUFrB9lqHI2hnMqLkMpioAhrGRFQAdw0inzcYgz9AjHiaijfaOu4bsQ6E1EP2r82QBegyvFydQS2zCACbrRnATcAz0BXb0gfCHP3DFqgpzqLjx46pQHAj2YUzS0hCy9PdNmkzeb7ftJEXh1OqCz1l973wtbfLRkz6l2f3qu6zWUszdx6X/aiwEFSQD/3wxPqi3vd7w+yPrvJazfAbeZHZCDFAF5K4RBdab/wY+AKIMOTyT6TZTzXZ60AA+0hPmBF1pGfAJ+tL/g9OWeVhE0eWqGyjUh6ZACwYvIuX+VyBQYgIX8rUICEqzOEszLTdibyGvg4iqa6qCtgij4pJShg7Jcn+9WfP80XGlM0Aa/kYVu/0NWPfIRBAEBYg1KHEsd2MHHQ3DYsgAu4tWStLYBEYFpZgDxxrXQBlPJHQ7hHm1qZ5MbIhxJFm5/JqC/DvjNwu/zO3yqlcVMgBYEidaKIJiHCXOdTCagXgEozo5MIz/azVKoCwlnr1dF0KAgXAERsAEtadXDxACodEnFVFJF0PEBD2Syj8gc+CFqdGRCjcRO2QaMR7Kkzi9ApdVDPlhX5IaCO3FJpxDoTUQ/aP6bKBty0i85Emwm0WjZFE3VHDzTmZg8i2lrybtahM6ObDqvTuVvIrINGEm2BcswD3YXRnpvmoOkkvwsuuGAUw3N9ZbNcu3mXLuAG+KpzNN9Nmptxoxu7nzC5b4Zf74sC+00BfS9+nX2u9sfdADfthG5AGzqaWANu+LN3hnIBHybI8Vnv4pChvq9p4oyvM+IACVaUyCfADD8WngwmC6WFZ+FVgIkJPRADCAIJ+JifpTygD9ABQIAScpBspBmUDk0VmYq3HmWDvpafKRYojmAE9Uefpz71qVtXXXXV1kte8pIh7wEqIIoMhEMoi9QdDck98k9bALL8yUWgGgC7+uqrtx7xiEcMzGIVEIDTlgChvIBE+ZK7tIDKRcPmqw1oTUMqLIWIdpSnvIDzDnLeFZ2FZ9hfAG6Xb/nClU+U3qNPXWU/8pGPHI2nEV1mJ6JCJcADDMAVP4SzxEn1WEZlChwBa8LqELRu1LQqSBsGkdpj5nNGNCpf9mVfNhAqYkhXOmYEAIqOSIUsvMMLGkXH1+k1hk98WN5DUHF1RoDON8qk/xVf8RWj4wpLS6dBlcusQyc2UCr3qMgR+lOuBqGOQTWrM1GBq6OZVLdga7dXvOIVo7MAZBdddNGWz280AwP6gCCdEwBHL8Da7AOdAD8dFCPQRjNNPPc7KPKUH6ZKs6svMjHDvSqHfPR3/ao82Nz3yiizdsRIMGN9Wrtke16/RYOD6gP4HmElP7b+b9/PXo+tvRo/+53OboAbPhHfMMaBAfwVbQl4brZi4Kt4NtBAtnm2ZGcpEzgw4ZYWHoxHkE/SIvDxY2nZ9w3kWbkyyeYGLJigAyQtlaKX9K24iCs/+XKzokVOABGBS5N1+RxVgy7oCBSpB/kHFJH9b3vb28bqkfpQTlDUkGV4q/pSHFEU6dvqq12AKvQiA9GS8oeW7SMf+cgdNAUS4RR5wTDiAY1kJrrDJuQvP7iFzLVkC8+Qp/e6172Gcoq/vKR/VsDtdsAWTrsTcIPuEMhPJWfbM4N4/OYB3nNxheuZLc6m4cZvMy63zfi5cb+r8MUbCdz+J+78K0xplt4c5yg9V77q0Ds7t+y5brmx0dpsjLoY+DNrsHRMy1a46lz6pdX7HM7zQZqZqe5H3tI0ewXcGHXers/uts7yQXMMgOC0VO35pPzUicDJxji9V7/5WZjct7NLh98cb7uw3Ob05riF53+6MHP4+bm4J9Wurvoh3mBD9X6Mr92Om4OIP/OYs8kvfhxQs0pkQm01w55jGjhaGBNQgAz4omyw3402xsoVICA80GeC7luaVlIAO6DaMh0tHAUKUEH7BjD2rVIaI5+Ckq79VIAE5YY0AECHr2jrgBoABOjgD/hxpyk8ikafbCINNFEW4dVAmb5rG1WH7FwxBtzZ00ajiI+jJa0a2acdKH+APatuaAO4mbxoA8ubDkBKkwIIcAOq5Q90obV0GfRHY/6UH/hE8lJbz0ulViABd8DxTKYxyB4at4ddvnX+RX6Xjd9pgZuEi3ymTJb/0aOAtuun4/rpdDqOAW+gYhbMcWjn3TLVnbQQjQOGtp8GrTHugADB2fNJsAE14Ei9/GbgFkhQzwBrQCo6eC9O9hymdLnNaXgunPQ9z2HKO3fvlZVb6eZeGsUrL+8noZ22qwONEOB2rprd8JhAG9o14bO6Y0sQbY1JMmFv/Ju4AWE0XHixtuBOoAPPQIB9VjTztETc8QzgTXigDYigNdMf5W31SfqADHAinB/tUct68rCsxx1AUQ5ltN9NGbV/ZT9qfUDZlU1d2bSHgJFnQJlGUb0AT1pLss3ebyBPGDRUT2H4oy0ac0cz26u4AXKAM/mIVvKhKUNr+aAXzaZlV21AGWIJev4qgjL6kbfykgdjm5OVMnU5kykM+wtLpbeBNuBtAbczUfAY++s8dXgdrs5AbetZx/Pjd9TNbpjqTuu2gNvuNX8BH8sOZsTuhbT9AvMxgwWWMDp7auwh4W77hOUfAMpM2Gl27vbbfuVXfuWYDds4TMDRFPMT18k4Asu2B1oI2wACYU5+2QNjycSyCmEIfPlZDiI0MWdXE8mn/GhCCATbPIB4ZS1NtvJvB3pOgtsCbg/cKavYNly8lqdngj63AAcb/6WJ0af5+3GPX7PxZSZ7disOO1BQnuzSkr9nwEVYac1xARa//PkdVaMe1Weua/VRh7kengNa1T26zDThV1jupec5mVmYaE2rSUMH6BWndmLP5eDvZ8uW5drSPBOd5Vk98aY0bdkLuJ2JgsfUX+epU1UF79znjlXn4HaUzQJuuwdVBwEuAm6EkiUgACo3e0AsQdiI7YAQcBdYc0TfDNdstvuQ2n+V5s3SkiUSs191AcbsV7UEYZkC6Csve0ns9wTCXHPgfkJ7X6UF/Jkhy1s6lp/sv6WxEN++GRu9nTiXhz00wvqleTsIWh50Hgu4nT1wI2jxVyYh7jkBHG/tvfAzmCpM8fID9DLySPjHx7nF24uTLZ5wvbMZ4ZXBj5sw/crrqNlzPTyrg7KzGW7qA7B5zsx17ZlfNJndxI0uwuTHrTzntAvLZipDaQ/HKZ38cz+dXXrsBdxOR6UT6K7DMXW87Dodu19+R5kMC7gdD+AWGAJ2ADD7bAAw7k6qW7pxPYEDSrRhgJJlDtotAIzmjYaM3wySLGW4W8nxfoBGPKDMvhb7dFxGDWyVP42aE8IOTbn+xzMtB7BoucR+ntKxZ8UJO5o7ZQXg7DGikQP+pC+/gwZSB53fAm5nD9zwzoQyYdtzICIeC3R55s8ONInjV7jC5BZACRCwiyts8Uq3+PllK6c0s4WXzlE3ylx92dGlcs/1R/PCCjfTRPje+QXUSjP/0i8sm5nd84u2lUEYRpqzW+HzH4FO81cY9p2B2zanSgWaI50m3eV8DCgwd5r5WdG91xmzj3KVFnA7HsAN2ACeADcbq6+77rrxPWInrZz2AoLsIeHuM0Avf/nLx2ZqQIs2DHB7+tOfPo7086Nhc2jEMrZN15ZGATYbqr/6q796bDC2D8WyqT1AgR3pAV02KQNu9qTQztn/A7SlcQMO7T0B3IA6AE169noBj/b+KBN39TrJAG4Bt7MHbngouTn/7CGzLE8b7K5MGl98lwYtIe6dmYFG8tceKVd5WKIrfWE9+wU6hA946KuuuDJu5Ms2eWp7jLAz7/de2twrz1GUBcqZtrF6VP7Kzp4BU+G5i8+ghW0VeIn4hS8N78wMAIvLzWEFvEp4k0B0RvfyYFtGtZxqf5x9bZZKKyv7TKYw7C8At9uuA3GydC2VnomCx9Rf59HobJ2N8b75q0MKd5TNAm7HA7gBN360VzRuNGKAkM/XWQoFrCyVOtFFe0ar5aQbgIUZ2jTtegSbumnZAD3Lrk5vublcGtKnSRMfGATKaNzsR5M+cEWzB7jR4jn2j9m6OsFJMyf9LJfKT1jLuZZFlVnalk7PO++8rQc96EFb97///ceSb+nyDxyeNHsBt90DN3w0ngv0uw5Ln9FvTRwcLNjktXgyU1zv+DK+bbN8QEKYwsbHufH3zrZZXr+0rcCeKsABACztwha+NJMDpc/9qBl1UL7KGh255Zet7MIVfg7roEcHGaLHHE+c0iwN74x2xB8As06o2g/rXj6TVUZYWzUuvvji4eY0r7YXp3RGwLv4Kxz7NuB22/1t4zqQi/YZuGGQj33sY7cuvPDCrUsvvXR8KgvBHMvVmTBXyyRMhI2AToNArIii8LO/8Nyq3F3U/0R4Vf86kc4202DuyIXdrHjuZiCEHYHGrV90l7bn3ntmY0AucHR8mhC0qfyJT3ziEL6BQ2VxUaSlMDNOQtuMz6xRGmdrFnA7HsANGKLFwsQAMMzNe+7s9rgBSrRcwJSDBJ5pzRxioO2awRI+4N4pQK+lV8DOYQIzWlo1AEwcQE8/tdwpHX6Am/yAuRe/+MXjmL+9bPp0S6XyNy5o7zroIN83vOENg09VHvZJ/C3gdvbADV+LP+Op+hb5h1cyeJ/JBw0a2UYbbfLiwlgAzyEBJyFNMp7whCcM/kkjZJ+o+0b1Q18BesxjHjM+2SRdshSffdSjHjXuODX5UQY83sSEZhtflp+tCK961avG2DI2nWp18MdlvSYv4r7sZS8b3/5WbnHi1+pzFIxyqofDAWgCHyi306Mu9X/0ox89tlkAr65DQS8TMsDJBNIFvdzQFb+xfcL9ru40xaP8TCIf//jHj7vY8Bm8hJvDVCaKJpYwCxrTytOimkTKA738TFKVU17ajZtJpf29yeoz0TOaswdwcx3IuBKk60AuuXLrwkv9rhgee7lUKlNEVAlLHSpAgDsii0n6KDwQp0EwDcTQIGbbGsedNpgtdxW3xKGRVN5PelXwTIQ4zv7qaqASUGiBho42m43ZqG3ZxyDWgQxUwAlYcrScWliHQztgy4Bs7xGGAViho1mIe4d0aEfXAWtLUgQpdb9ObKN2AjVQrQzy0W7SwXwIXp0dcONOeIun7GdrFnA7PmAh4KYfAEWBHO6Akv7gcIL+xQ8jTAPHz83n/J1KtSRqGcK+MwcX7H/DT4A9J0mFw7ztb8OAxTH7dQmp8QKIAW6egUZXADznOc8ZwA3fUR5X5ABnmDTA5hnDVTb9XpoOVvAXp/qcNHsBt7MHbk148WoyiWaN/ALI8EXutMc0YXg5QKavu6rDMj0+bMm+LyGQkdLAq4ECPJmmR3omJHgybZ6xgAe7bwz/ljc+Sx6YIHnnr//i5fyAR3lJqwtnyQcyBc82VpQxbVR1OlvevVfxyD31RRu8Qx2VE0AFRsksS8O0YmSVupF/wJV3Gi80JR9N4NCUP1lGhrl6hR+6uJvN3W9wCh6DH6AdOuMB5KglaXzo1ltvHTyGrNOeQCMaAm7Kog3EscdXft7PZArDvhNws1T64AHa9ge4ARE6ghNjmIIOrBOaJSAExkvrphGc6kJYQM1sQIMEDnRI6Jbq1yw+FJvm6UxEOO7+Go/QM0NAP8KIALNu7jJBA1QnxhT4m83pmJgBoOtZ5zaTAu4INbdpm4VYYiKAdFzxCUmCjpAkdIXVgaWlrQxighLTIOBcdggYKqP2xVCkk8ZNHzDTlJ64Z2sWcDsewI2mAUACiEwU9FF9N5Ckr5lsYJLCCIs54g/CAvgEFKaqf3qWjnDS0A/1S/7AGjAlTUtCBA+h5EcbJ32AT14Yu3dADHPGwL2La4ZsYikPz8Jz95OntIwB/n75nTR7AbezB26Bs0AOvkspEXAjq/RtfJeApxFujxW+7MAOXo6XSkt444aMZJuc67fcTXQACPIRX8VjaaI948MABv5MLkgLcJMvMAE4kCPXXHPN2GPqQ+omJsYVmULbTEkiHz/1kYZ0D9PIX1mAXXUHcGnY1R2QM9nzAXlXCQFLLhdWD2VHW/JR3b1TUqCneOqIdvo+pYPVKHtvaSMBXfxFu/BDRyAOrwHcaDDRDW5x8Cnwp2zkMH9tLE9tnkzcCR2jN/tU4Hb7J69u07btD3CTqY4LJauMd6jYei8GjzGbAWOuVJq0c4CbGTNCaSAVpz7W6eqQNh4zVW4nhDjOYXRYsw3aBwIHgNLZdNoQPBoanIQRTUeDz+A20KUhvA6nc9Jq6nBmdGiundBXR3atAuFIaAJ9Oh5hBtQxZjA22wKQQLQ0dGbpCI/5sA0QbQQs0moow9maBdyOB3DTD/0AHn0iwNayQyCOra8CQoXzHJgqvrSEBZI8s72Lk3vplKZ3/oEsaZVPYGt+VzZx/YQtfOXxLkx+pXHS7AXczh644Z34mx+eR77RjJFjeCoeanJA0yUsDTNwx4/2DbiwAoK3Fl4aFBVsMg9wk7awZAHwoc2EJw/wbf74fBo3/BbgIAcARzzZxIY8bkUE75cGGQNwWGY1gclIU/kP2ygHGXPLLbcMOpJhFDzAJrpFL5iB7EIvtDDxM9HzrJ7qrY4u69VeACCQBliRU+jFX3sBbnCIfIAvdIRh0NEyMyWG9gSGgUUKJp+5uve97711z3vecxy+ooUTHg5i78SoK8M+BbjdvmR6D0ukt2nd9n6pVGOn3rQEgUgqYbaBOFSZiIs4GgNhoGUaN42ASGa7/CBb6QEUOp7nBslOCHGcw2g8daU107EAMzQjaGjH3FH1pCc9aYBfdKNxo70A6oBeYE98NNNx7QvS4QA3YXV0G7xvuummMWMxG8NgMAMdXjwd2xq99qQxoQ7Wht6pi8XXrmZ52of6nyaVAfAMJGU4W7OA2/EAboGwQA1tmueAlj4LEAFC7MCSZ+G8A15+M2AqPW75i+NdHP75eZa+PIXdTNc7vwCmeNLyE55deYvL9iu93k+SvYDb2QM3fA2f7BeYonUz6QUC3vOe9wy+jO9a1gcOTIbxSn0Yf+cGkIjHzyTbtiFgjbZHG+HZJuOAGy1zedH4MIAJ4Ca9Jusm9SbQeDAgU7mUiSJAWni01RG835ggd5IZAYmz5d97EU8ZyDSg90UvetEYo2iJfjRx6OV75uqpDjAHUEXWUSQAq5aEyS5LocAe+sAUtJXwBu0n2tKWkWV4hCVvbSB/dJUeOlKOaC9ykeIJz+AuHHAnDZp+bvISVn47oWVh2AO4+dRV3yt1OOHCSy7fN+CmsQh2SFYH0wkAN+9mIoAbgY8ZIjgmiIDUwy2Vqjg0C7Aghs4rzFHqUHvRKe8qDY2nvmZoOqlOqAMDvTqbgYqOOjQaGtj2UxjQOkuzPNpNIIqGzOyLhhMI1NGF0/HNvqSpM4uH7vKm8TQ4lEV7GehsP/mavVgmtZfC8ur1119/h6qaX2r7u6rnXfkt4HY8gBvQow/qFzOQ8p47e7sf4ZVmi7+0SoM9xwngcZv9yod7z9lzfG5zPH7S3HQrXGls+s9pHvfnBdzOHrgRzv3wXQYvtcRuKRJAMpHFP7njmUAEfgkc4LH4uMkyN6CDIgM44O6HH/MDQOThwI2JkXxN1KUvnfi1CTZDVuD9ZC8/+dPOWfnqg+nkMY0Q2WKiL31hlbffSOwQ/5RDXSlz0AAoU0blRRf7utEL3xDGapA4wpGP6gZzAHtWhYxpQArtKC+MX+mQbcAtGaoN0E4cBs1t0aA5kzaZKE6KJeVDO/7akiIF/bW19MTZiSkcewZuHVC4x4Metn/ATSUAN3vcEBqRdR4dRkeBXm1iR0BaG5uGrRWbZQBpHU6gHgVY3O+ESIjJ1LG2I4QK+9UBhYkY24U/W7fNMpTv2aa3XbzShOjRC8CSrwHvDhmnO9EKDQ1kwJeqWxid2N4FYYC0/AE4bYPWwDEwbBZjz5v9EWZhGIWBLX+dWnsZ9GgKiDudp82AO51TOHmaXSiLZVlhDSYgU384W3MSgBv6MJgmmqAlumkHz2zvufU8h9v0854/u+fiZs/u5YO5FH8zbmGKVxnnOLllF7Y8SyN/7uJ79yutwrMxWb/ces7edC/Odu65ZZdG9uy+WXZhuM11qNzieeZPoHpnezcZmv3Lg83fL7ee0cFzeeV/EPZcJgLQUo8xfFhmNzxit2XeDY+JZsrfc+Vp3HPnr29ZCcF3C1s8YT3HS7Ol5bnf/F4+cxrCMdKff7mVjjhzfpUx/8Kz8XLupVcY9kGZ8p/zLv/KpSybtOAnXHUovrCe+fecH3tOhz9cQpMJ6JVfcee057RoW2lMd6ptK252S6UXTB+aH/e47edSqcqoGCakw3qvsyhYBtNi6kTZ3MTfJGL+3E9nhBE327PfXpvqqCzqWXn3Op/qzGZ0hOqDAUcjfrnP4YqnvHMY8aSVf+lIo7rxM1tp8+xIYCOf0hSv/O2ZAAABv92Y3TDVneZrgJl17qdBW3S0nOx500Q7fgQ6unvm7rmfeMYTPz/utau2nNutMNxKr75TXOnx4+7HXZ7y8PMsfuGzuXsWh6kMnrkzpWdszO6bz8PzCP0pf3WoXr0rZrQ09maDlwmHNtFH2O0Mf2Yz/JzPdvH2ym3On0Yg4Cb/g/jVb5QjGmXvVR13ms5ueIzyz7Ssz9eO29FyjqN/eS+8Z3QoTc/8ok1xN/3VdeYL3su7Z3G4yVN6bHHyL9/C5O69cNwKNyIewJ9y1l8q92a20WV2FzYazHVXlxl3FFf44khH3GzP/JhoMbddafAXrvzKv34xEriLvznPgFvatvO7x22/gJvMK7gyVqkqUcVUPDfhemZHlNLxHlH5n87wK47wCOZ9r420+1WP/chHJ9mOHtFCveRbWao/t8rFbzNM8efw0ios936AhGVUWgXpKFPplY+4wtdO9gPYs8G/QXc2bbAbprrT/PYbuKEB2gButJQMt3618dyG0V7YaCp87VZcdkYc74CS58KWVnHmNp6fi5ObfEufX+Vgey89dnE9x6QKI73GYWmXbmU/Snblrh7Vcy57bmzh++U+h/XMP/p5Z7jNz+IepJG/PAE3+4sPMv+ZXtGGfRhmNzwmGtZXlB8da/PqxDYuuedfmOjeuCqOtHoWxnM2v9IqvcIL5zenJ0zvlbEy5ye9uUzcmfotm5tf4UaAff4rrzn/+Tm6VC5+3IqXv2J6zk94z7n3nn95ZEtvDuM5w6+f+PwKG+8r7F3Zc3kCbkPj1uEEKG4/gVuVqJBVmpDqGUGYCBPBisvODREKH0FKe9MWp3js0t8Mt5v3Of0GQPnuJt05rvSY6NHznHd0qY78uEW7/LnP5eTuxy26CtOPn2d+0srmzqRhLNymLe7sNiKdxd9umOpOs9tv4BYtuubCUrLlZ8smNB22CdjHaGy46NGyNtrR6Dj5ZIl8HjfSsz/Rfg7uDDfhXZ1jmdyRd1sTHGLxAxodKtGWtYs4c9vXzvxrb7b34hRG3J7z4wbc26cjrzmeZ6b82UfVKKu9LV0gXZmrM3/7itoGoh7VdbajnfjRek5DPO/i5O/5IIz8+tni4O4p7aZOB/Gzr87P1gv5pgE5iLpv5rEbHlPbzX1EXeyHMq5t8dFX6u/6RG2O9zK994w/GPNp3usTbOlIg/Hez7vwDhoY7w6M4SPSLk5hS4df5REfT7c3zz7zwrDnvDwrtzTF328TbcqP7adc+c1lLZwyFkY47tpBX1dPRt0LX5ri9BMvWls5smdbumy822EHbVV42ybwa/yXu1UqeVVO9plMYdiA2x2g7aLLt/Zd41ZF5kJwQ4T8ekaIORxBVBh++ReGX8/bEYFf8WsUbncVZ7t0zuS2XR7c9tJUbrTyrBPUkTbrVsernr0Xjt2zMpamMku3srOlwe65tMTLj90v/+IIpx3553e2dNkNU91pnvsN3KI1UOXwh5NKLqEG0mxudZrJQRybau1LtCkWCLPU7BQYRiCN0kFTcQELz9EYaHKTuH2OmIp79TAZB0xsvHVyzHjKiMewS7s2zZ7btHwakzNTKr66de1PafBjeq9vDMcj+Kee6mYvaXXkpvxs9UdLm8/nevFX12jW+NkMEx1yjz7lMRLd5z9lkx9jAmAvrO0C6rTfP/tgXUoqP8Dmuc997jicokyHYXbDY6Jh9NQ3bIew99jeQSdL1dVGeEZ4P+HqH5s2P4d1jBN9oz41x/FcP6oMNsyjqUmbfJ2UtE+89IXvuT7HjfEOcIrvhofyKnx5ec9tRNznv/Kd7TCCrJWFia7CVUZunqMPUIqnznVT7+KUnvC5sfFityzYH25/okn5j2kbAAAgAElEQVQOnu0aF5OPwnIDthxkwDesruDl/KP3KOxd/AnLsNO4AWznO1160WW3fat0vzRuTrU8+clP3nrAAx6wZVD4NIcZBIKoUISp/N5rABV0EtGMhZsKIPQmgYu7aQsvPUT8si/7svGzad/mwr00GLfG1ImY6rWXeUirjocGaAjpo0X0Kgy07yZn14Vk0KL4ZmMuznU6zgy3JbtouylMxS1+eQnLjREenRn+3GvXwtVZiz8C382/3TDVnWa138BNOdCE1ssJXNoot2+3SRntnHyidXNoxGA3+DF/s1/+4jNois6Am+PomAqG4nuePr5+ww03DDAoL+NIXPR3KIJAkYcwLlDG1Ln71M7Tnva0MSOVj6WzpzzlKeNzL07BOWDi/ijl0u4AqGVwgskhmauvvnp849MJLht4L7vssnEpJuDjzqPzzz9/6373u98AkfUZ5T6qBs2ME3cWAs1Ar8M7X/7lXz4+iWPWft11123d9773HePIhmU0uOCCC0ZYdaOxMx59WgetXdlAMDpl5luGDgSZxUvfnV0OYDnhjY8cpNE3gHvtrN4HYeIT5eUAmoNqB5V/+Wbvlsckm6Rn4uIeN+OW0RfICoe9jHsHxZzu1wcIfvQnm0zYHvzgB49JD02ZO95MxPQPn6Qiy4Aqmhz9Eb8gXx0S0//wd8vdNPHxCDLU+DZuaf+MXc/S0c+sAFx55ZXju7zGtKufjF2X2QI5vkYAPJj44QF4gjyN8015ES332kY/Xz8ARvUPQAkfc9hRv1GeG2+8cUyy8CRXWxlveKu6ui7LtVlOjqMFOhiT6CYMfmcC7PvEl1xyyZjwcjOhMCZpLm37cXBPWfBvZdFm2jO+LH1j2yW+JuOMPmASpB2VfSf9uzDsLwC320DbgQA3V390B4pC6KA6lNkd5q5yKm0QOzWJqFT0mBt/Hd2JDJ0ewRiCgDAitDDWuZIjwO0ggtADUhzJla8O6T4b6ZhNUM9jVjqvcpipsCujZ40J4AT4DBjvfgaJzfc1vHykofypTg0gsx516KRnZdyprX5o5goPg9BAMzjVw+BWRmCOACZsXcWBNuoFwClTdSCwzWwJEHQUR/sQQgaDcJiEAatjooW20WkBBINVe3Gf6T4zrble4grrtxuzW6a6k7z3G7hFL+0HMDsdffPNN4/lUkfHMSJaCO3iShdjx11AGI+4Mw3rE9pZ+2KgmIt21SdMkowxzE5fMV7kiVmbzOgHBAemQlhizmzjzHUu+gQm5d1kgADBtGkEjSv5ARie9RPgRHwzWczOqXHMCiPT752kNV70U9pDfShmt5O2OYwwaIwnAZ3GNtqpM95Em2i8oA9NirZ0wzqhgUGjk7Hi4lQXeBIw0kEHSydog+Fb0hKflhUo1HZMfeWg6i0/7WTJ/iDzllcAztdzjitwUwcmfkd26A94dOMWffUL7W6M0bobHyY9NHH6Av6Ll+pbxpUJnD4IKFAQGIvAmrjGpzFP1pBrvjBErmlD8gptjVP5e25pT5nwFOlIm2zCB/B945yWzxgGBMkFfEj/16+5A3BkUcDoIPqo8sMGaIDGbHwMvcglsg5fcTsCdxMQPAwdXCGGzhRJeKXwgJsxazwDwHCEzz2qI1nn+hbtZJyKg4byxAPlhfY0mSbJMIb2027KCLcYy+hUG5jwWqL1vhNTOPZpgds4rXD7pjeB5kg7yeR0YYAWRNMppKliiK5D+jqCje4ElM6BYF0EqHNj8JgeAhM+LixENLNTjaKRdCLEDjTIw08ehASGqTMjup9O734WDYbotFbSNMh0TpoNs16dGnNVDg0rHAGpwyujPM2mCFudhCAG4Gj0pKNcyk4wiUsYaziNbKCcjSHMpQ/No539C0CXMrtMUFktiREWZkrKBlByE8cA1/GAEx/M1XkNWG7aw6zFzM91IwS9jonmGClmoPzcDGyDI5qfTV3OJs5JAW76p+VLAAdT8akWDFQf505w66fa2qxN39Eu+nOz27mfGydAGc2Ovis+xuKSZcBNXO7S9zNZ0Y/1b8xJPAzGx6sJk1tuuWXMTAkZgkcfkp909HX9QH+Rh/RMSmjc9DNjGJDruh9Mz3jFQI1F/YnWQJ81NvSho2zwkRm4oQGghh7GTXvAtBHBALy++tWvHrR/+ctfPgQxwYu+6qp9CRqM/RnPeMYI79Z3dMf4jWltX/seNG0Cbgedb/kRgPjNYZnd8JjaTJ8ha4AkMgrI58YAQsaB8YCHAxLGAeBOTglvLDHS0Pdo4IAKfQdv14/IMOng+ybyxiJ+b7JN5pI5ZJy0KxebnJMvPmKCQYbhBfgHfoH3u0iWrCHHAA08RD7SUw7yHIiTtnFOVh6UMUbkSdYac3hLz7TitGcmRuoGyKI9RYYJKt6EpgwFjpUIdUdLMh4N0RKPArrQA29EI3xPG6Kd9ISVPjAtDcAOJgB88XW2vqwtk5Pa1viqDGeimfZi2AcO3CzdPPWpTx0ZP/KRjxzo1czTvW4YGGLYxAdE6MTAlNkDImsQ4AcoQigCCqE0hgZDEIRAEJWLQJ79dDSCByhELB0tgzmKB4Bwl4dySEOjagSDSxrcaDHMcAAlwEUZNaq6YOQYuk5F6BGwgI4OoKPrYDqHBta5zFTurlFGAjJtoY6kE5kRAMXoSGCrkzIqhxm8WRtwrP5mEeolnJktQWN2gMaErfQACZ1QO6gfMKheAJ5ZiXZAT4wmAXN363K24XfDVHea535r3PQlBvjXn2ilMAkz3Aa0tkR7wE2/wSQBu1nrpn8zGLAJhfGjL5hpa1/jx4QI020/nT4kHlseNG4AlDYVDrgzXjHrvsrBH3AT3hgBVIwpwE37x9QIKWGNTc/Gt/GLyRI+xq6+S6jQ+umnwlaeUZkj+KdN0J+mzHhpkqPc6BpwMx60JXoQrsY/IY0GBJ3xZfyLo00JCPQQDr3RCM2lo+3rJwdNkgXcdncBr/bSN4xLba8/kBGMvoRvW0HiBpAZd/oFcG8c47EBN3H0C3yAvNP39B3p6D/SxtvxeP0FcCO7jEsTb3JGWYQH2Mgp47aVGmMSn8ffKUfka4KBh8jPGNY3+Rv70tXHm6TIUx1MAOWx30ZdyGPlAlBNGvE5ABYII9/UBz3ISjIZb8NzlFP5G1fkOT6EF2oTig18S93hEJNbPJecZ+OVeCB5GJ6Qp5Uu5UJbk1QrJg95yEO2HvGIR4xlZ8uz+LG4wK88hN+JKRz7wIFbnUJH1bh+GLbOY23/0ksvHT+VgpKhfB1ZOEQHInRGBNZZoVmNpzNbh37oQx86NEUqJw4C+XnWqDq3zh4R+AFk/BAeIRlaBARXHgBTY2FiQKe1fuv/OgoGDBRpUEa6yq2TyAcwU27MnlYQqCKkDACAjhuGfneNfNTdzAAtdB6zKsCQgFbmiy66aOyXAgKgfYIAza666qrR8Bpf2QliqnmDM9WzjokJoL3Zl/p4NhB0ZEDjwgsvHLS44oorRp7a4SDNSQBu9VOzZ4NcX9QmBjemkr8xgtlgKow2oJnRj+rfwnrWxoC1+IQCJotx2QtDMDi1iqlnxPHjBzzol8YncKIvY0bKhEkbI8oJYOgzQAnwb5wSBsJhWhg+5qfvY+QAmzGAmRlHtAk0ctLBHOWrHxunR9konzFmXAfcElQEKQZv3Gsr9SV4jVOTJoANvQgJYxUdaFCBbMKEVt7s3dgiOMVBL+2hbQ/DLOB29sBNezW2tJ/+jY8aFybTaAuYGzfC6VPGqgmZsUXTaPwab3i0MUIzC9ThtSZ6+LG+Q/6ZNOAj+h+gyJ8iQt7kJpkGvJHB5K2+BtzYU6kMQIg+yh8YUj58woZ7Gjd9UV83tvGQFCpko/QBzVe84hVjXBxUX1U3y8nnnXfe4FV4Hr6ifOhiRQv/AlBhCvwI7ShbyG7lNhaBVsAN3YxhdIQFyFLyGR08qzMMgQ7yxmfRWDy8WDugG6UHegQMTb5oLgPhxjSeiJdIZyemcOwDB25m8JiS2YfOihESSsBMa/lACIaOcREItD7Ahw6t4wIXCAJlIzZCU2NKh9AwA2CkPf/EwTR1So3HT+dVHkzWoEFY5dIZNKo4OrXGgOQTiPxppghYyxqEmtmQDkJLg/kaFJZHCEGdgHpWvuqKDoCQzqDB767BBAhvdQU6CUICUN4Al46i3OqmjIAb2zKwTq2jKTOAptw6lU6EtrSYOqb6KqM6A6noa3AbEOiojgaCuhgEynSQ5iQAtxg7oY/RorF+qG30T4PUTzvw14be9UsADXDnx0146QFg2t67fq3NtCUATmBg7PppcYTzA+y1a+1oDJpYYPL8hNdH7OvCvPQ940X/4QZ4YHDGrXyMZ/0M0wdOlNOYoonjL77+SRBgcvzVSx2OqkEnmkxjBF8CpFs6NraMSQIXTwCWAXF0se1A3dVR/QgGAgN9tUe8iZZTeBM8fANd9An5HobB9/CVwzInYalU2zVmCWyywxKkwwjGKn/9Ql8wJvQVY487oGA7ivD6j/5kjOH5+qFxLTwebazh/8CZ/mRskm/6G+0S7a50AER+0vcjU000rDDh/8qIt0sXP5AvPgKgBOzIWeHEV1Yy1bYA/Ene6rvfJv5lGRL/MWaUB1ZQT9gBIDP5VEa0wdvEA07VGRglK41bMkx89KOlQzN82QTW5IuMRXNjEv9ST3kC4uS6dOWFDuSldLmhv/ZFf/Txrl2EqTw7oZW0GPaBA7fQPMGkAjUyZq8j2w+C6BiGikPJZvE6kc6i04ZkdSQEJVTMUIQxA8EQdWKNgDDsfgYCrYEN4E7vYZQ6sUYiMAk85dIwBJaN4JgHd0DRjEL5zDI0qoaUHuCDWevoOoi0MHbaCDMadbDWrr6EHrCDIZ8tcNN4Bo6OZ1YBvWP4QJXyKrdBbUCpixmGMhMqykRbg2aEuXKiHXfvZniAm3fATIelOVBeaWhD2gbP0rCJ3WxP3Q7SnBTgpi31F5MQ/dS7X8/1XW6M/lkY7/zRfg5f2NnNWBC38KXhvXDcepam8Ax3/U05LeUap/oEQcJPWLbwxSmd0p/t+gq38mHrb9yOqok+0RFNlduv+gkzh5vpIp6xgoY2chufxlJtwz/ehQbRgtthmAXczl7jVj/I1pae6yuea2OC3Z5jvLrwwnnWJ+pvxWdLjzsz+xe//shfWszsV1qFK83ZLm92cUunvl+9+G+GG5nu499c9k26Kstcb+/CV8bsOUx1L93Cs/kJWzrcGCAPFkGPwkWrOaxn8clbMhZuEb50zkQmaTJswG3+3NUdp0r363CCggNkKlkhqiRQBdlDrzoyAyzQzhEQ4nr3Ex+T9yw+AGXmL42QLmZX2uL2LK58MExE5I54ZjH8/LzP5RFfesrix48gE1dZpSf/wknLs7S4mz171nitrfOXDvvumsqsDPJWZzSQvjrJUxn4y5c/d8/Ka1lUPdBQWsrBX3hh1VV8dBCeu7T5oTl3z/LWNvykc5DmJAA39EI34J9GjUFL9K2NZ5rO7p4LXx9i1w75ey+t2a7NctsML+38PNdf9S3trk9UnsJJszJxy124/Cojt/LMX/jqMhI6gn/KqpxMdfRcvarnHI5/7sYV+tFeGrOF41960iq97PIcGR/Q3wJuZw/cNFH9ume2duTec22uX9RH5jaf272JDbfCSkf4TP2o9L3Lrzxz751dHuzccyvd3vnLr3iey0PY3Iu333blrd7KOZfVc2Fyr0ziMJWZXd3yK37pk6Hc/LjNOGS7dhCmuOKIj3fO+KTy3JUtLsM+cOB2VwXbKz/Awnr+4x73uHEPlbtZbAqkTg2oReAIuld5r3QOjgInBbihGE1WwO1sKRjz0bcN7t7ZDLcGv/fGwN3Nr3TLQ/zyOF1ajbPyL43ThT8p7tF8ZvbRKlqoa8/Z29U/P7RkSoftF417zl8795PGHM67n7DszT6xgNvZAzc0Rc/oO7dZbVhbCJO/eH6F6T27cOLM/cp7P3FLI1tYRhhu7N49z2UpDve5DilUis/OFH92y28/7fqssvrJf/5Fx/yzhaluypf7ds/RszBsJndpzX7ze89spnfhcxseZ/grT/YdwG18ZH66gHe/NG5nKNueeEeQmUCbBK6x7w7h9qRwK5E9o8ACbqeSEmPe7OfzGPDcu3C7MQkBacRQTpdezLFxye75dHFOkvtM9+pdO3hnoknv29V/jiu+NuSmLaJx6bK5F45/z3Mfyb3wm/ku4Hb2wA2d55+2Anzsi7QFyB6n9o6iuzYQprac27u2tlpjT2SrHsIwczv2zPYTl1bIVh/52jNnX5j8aH6VR1+RVvnXV2ag1pjn1y+tUeUrjcq12Z/2+l0+laVn9kz32T8/drTx7Gcvrq1GnsVhSic3NsP2448utiC1781+OodQ2rNcOGlK3346mnb7jGe6j4Tv4m/O+8QCN5VEKHbP3hE69xrgLmi1vI4wBRZwO7Vx9PP6tz5eP+fONA6yT42987fNcXSm9ITHoCqb8H7ngpnboWd29c9Gi9n9dLSJhgln8XPzLA2Gm19u3MVhPPOb37UP9+KPgFtbY6/xOpwQNe6+PQtmIMchAofT7NO26d9VOvY7o7u28mNqN3FmP0AKmM6dX3loz/pF7V8fcJDJZn37lR1GsKEeeAMggAnxhGWk7T27slQ24eTrJ1x9h3/5FXYkuE9/c7k89y67ypgdDdlM9WUXz95TKx9zWp4Z8UorfzY3YFpb2vtt+1CHtOwRtwe/eLZG2HsuD8vitsfcnTvvKgsbcKNc+8L3Sm//5NVx1rhpjLmh5gr3rDEQdH4fLbT+jg0FFnA7tan0Zb/6vzEQU425F0bMs+37pSuNGNqpJTn1rTzZxhyT26khT+YbGvlV52gQHfj1LMzpTGkQqJk5Tc8EO1tY+SSY6hNsZs6Hm7BzuUp/adzOXuNWO9QWtukAagATP/R2kM2BO8IfQHbzgM9bOSRmzNKsOcDmugvAi2bHpcz2Fdtr6vJqn1ezDUjbuzHAJdrC+9QdjZ79y8AEYFFbO+XtxKVDd+I6Ec12BZZrtWjnhAXsXN5uu5GrbPQ98VyJ5XJbGjv1E1Z5GfWa+1d9aT9s5XH9h/Irh0MCNv6jBbrd5z732XriE584TnO6QcFVKj6xJxzN2DXXXLN1r3vda2gxHX6UlsOEtlY57a4eDhwKI63uxUNnF2ZLz+0RtaE8nDhHj37S0I7aXhu7jYKfvfzair0TE03ZM3DrkMI9LnjYbWgu8CbQHGknmRx2GI3op9x+Pc/lqk6IuMzxo8ACbqe2mT6OkTkI46S02Zzj6a6b0ccbC/V74e+uEVcelgUIBO/Suau0hFGmTpKX/93N+ziGn+njmVDDxJ2ij+8EmPifiTaEI9q3SV1buI7Eu3TM6glYAqQrCuQjP/2hi535aZOErParHDOdF3A7e+DWZKmxAQi4i622QmdXX9mPDdS5lQDocGjOTQHGLUAARGlnoAHQc1cYwORWg+7XdCKVJs1Jb+DANRVuWADQpOPGBnkoiz6mbNpbmQBBJyNdjyGefAA9ebhmC8DRx5x6d6DNdRf6IHDZ1wTqu9V17kP79SxPdQC4gE78yDU7+r6f6zfQzZK05WFurlwRTv93lZJlS3QRhlbSRfT83P3m9gf1dmURuljadAsF0Iy2rk+RP9AICGpXV72gJ0DtCzjxXmGUjZZNuwVyaT7Rdycm3sAOuIXR2Pe44NJHbF1w8RVDFcfhuAK3GnZmSNxmAvA7yM62kwZaYXZGgQXc7kwnDIHa/jWvec24agJDx5DdKabfE+K77e/SwOTM+KWFOd6VMcYAB0JK3MZg4/Cu4h53P3VEo9kmDAg8WhYm/hRdTldn/q7pIQBoFAgKwsMVRU6JEy5m9a4GcpWRmb20CSf9gEDxc5cULQEB0l6p0/HBBdzOHrjVntnu8rRMiua1uXHh3k1gQNtoF+HdvUiz5c7D7hfTjwAnWjljD2gDCIR3l6l0XAEFrOEDgBbQJ03gg/ZsbmfP7pFzfZZlwkCg8NLSb1xZA9jIo/D6kjooAz5DC8ivemafrh/vpbu89GfXE+mrlieNBUuRQLB78Vx9BaQBqehp7BiDxko8TJnQAP2kiebGh9OfQK1rt9DdnW6AHY2bvYHCAsziooGlUWHFc/2XODSsyiIvafrFBwHzNHtnoou8GPYAbhddfgdGuw24XXLlKQ57CdxsAIRqr7vuuvG78cYb72AgFUrBdFKMiNpRI6goExPUMYUrrH0COpsOlV/EmcONRKY/fsfR6CSMuhq0GDoTfXQSaN5AR0Pajkw06/242gu43bnl9AezxS531E9o3bpo0lgyW7z++uvHeAG6MDr3it1www2DwUiDsZHZOMV0gAyMzn1/BEKXSBMuAIJlE9qEtHCYvxvXzfQJJYzQkgOmWbqWCaRrOYegonGQn1lq4zL7zjXdP5fyjOfIybgCPAFWz7Qixpc9LWbRz33uc8dl28IYc4Sw2b0LTYVBB3dHYvCEhrsWASyCUX0ZApBg0DZdEk5ooI17IgkmPI6mTDsSRt7xU5o2vI9GTZsTZvKnNdEfaGLQngCnKVE3AsclyepbnbOj7gJuZw/c0DB6sglwWpxZ00kLmoyjKbOcafzpLwAYIEJ7Lr6f9rQEqL31uyZktGTGnz5JA2Vcp60DNEze+kKP/qtdjck0bmSIca4PBdzIVIBI/2X0K36WbIXTX41x/EOamerc+37Z0QS9gE8TGn1b2YxTmkwHOYA3Gjd1FQZtjBMgDR0rO20mmnpHcwDLeDa+jGN8z4QLkOUnjLDaCc3RBx3l5dkluzSn9jNee+2143vgj3rUo7ae97znjX2F4tLQnT1wu+wUnHaPWf12wSVX7qnGTcd0+zLmxkS0njVCgAtz1EmE1UhmmPwQJeNZHB3YJbMEgbAQr7Cb4Yt3Emz1Vn+fRTFwMWbvaKrebELTZ1UMLh12pvdxp8ECbqe2oLbV/rQwbj7XPzAxjAYQwPQxNMKA8CAcMA5hMThjxjtgYRO1WWX9x4TL+AIk9LMurgY+CAV5YYQYlwkXAIIp2gxNMGFe0tZXMT8Az9jG9AgIAMaN5ZY3CDDpxZirpfeDMOgor+zytaRBGKAJwEpIqi96ojMaEsyA2NVXXz2Ys3qIgz8R3ECrfUX2DVl6QReA1cRKesCtOC63pk0hIPgbz7Qj2namDS0KMI1Xcq/MNpxb7gLwCBjgT3toQ+VUJ+1MqGnP6ij+bBZwO3vghqbRNTml/esvJte0V8Cb/uOLBk4iAljGg/5mbAIjxiZAQKNj/BhjxorJj/Ft+dTYNmHTvvqLvkIuMMagvqk/iGvsm+xrX2BeHMCNjOBmQqBPmWx49/MZJ3zABfTkuPzFVTb9Rh0P2iTnbA+gYDJ+lEN9aRDV9ZZbbhk0N+7QB44whtGOFlQ7oH1xtBnaGHvGrUmtcaYt8DU0VHfpSUv74WPKgsfCN0CtMSwP6TUuAUMT3cacCTCt605MfYl9m8btNMANaLNsupcaN4idEAmMKQRCdxrDhkodg5rWRsEnPOEJY+aASGad/DUEJkT4YIo2E2JAhInZBWb49Kc/fXwHkKAwKA6rY+2kQc4mTPXBrA12GhUMnOoagqfF8FF7tCBEzNJ0FvFOilnA7c4tifFaKsVY9HvjCyjAYI05DNn4M4OkQcNcMHgCASgDLjBi2ppm+santAAqgACzwsD4B9bkY9aJ+bNpnIQTl589IBgWRgWQYHLcMFLATX6YqXFveSHGFsNTU+kchJFPebHVQTnwFgAIsyf4AE11NN4IDHVBX+4veMELBt0JBWMP7UuHNsxXW7QLIQ34SoeQQRvLW5g/7Rz+pZ3kTwj39RVpMQAwoYMfcsMPCA9LQtoTnbWp/mBJFT8gkBkCCK3Tks60HgHWqdKt3fCY+k7trm3QHKB48YtfPLRVAAK6a3/9RF/o26HiA2VkGzenEfUZAI6CApiwt+uFL3zh6CfGDPBG06PdjUN9U/rkK42csPIG1JQLaABI9Gn9Df8A6E248AFyhDymITY2pQUkkTP4wXbLr9v1o/rTXtvR2NjR59vDaTwYF34mV/ibCVX7BcXDy2AKY5VmzS8NNJ4kbHQzdkw88S9tgHfBMtKRJ20c/qAdrXBYntU22qH2FxafkAc3+wSlh847MeIz7NMCN3vcbtvr9vA9BW4a38Y9DANzBzgQTGczk1BxnQlzwXBoiwC0NlmrpKUeal5gjuDRuRFSp8cUzT4QU6cjpDQYAp4ko/EMEPXSocyGMAWd1ADXqdCYpg0NdWThM3WC3o+jvRumutP6Up8bgPtttNluL+BVRv3BDJ2g9kxYAAcBI8zNBMfs27N9GgQ3sGeiBHwYf8IYlzEd446GrI3xNijb7Au4GZvCAQXAGeZkbMtbn/MDOMw2zUDRlJtwli6MTzSWB60SAUaAMOW/3/TfTN/4aIyxlUOZACkzc8AKmDXbJsDQDjhm05Rg3ISacWcczhNVfIlAIRS0jfpi+tLFrwA1whLwAoSN7+ibBgVtlUseQDSAiKY0IgS9tmj1gZbHcmm8grAQH1DWL/CNaL1JB5oW9TssAzDQXhyW2Q2Pqe/Wf9ShPjU/azdjUP8hv4RhtFfhs4X13Hs2d0ae3MQtbOXond3YLE7v4jLCiMf8//bubTeyo2zjOGcEwcGHZpIIZZ+ZCUlIgAAhbBIgIEUISCIQIA6iII4QR9wBV8ZtcD3+9Fv2365ebo/tdrvdtldJq2tf9dZbu6fe2nR0sJd++Yo3uhde/OtWaPCVvzyjm1t2dER3/tHPr3Dc5mFHv3kapWUcML71Lltx6CPv2KMZZiFh1/+lexEVffRj4HZ0zs3N0q88fOn1Q9D28uEFhW1K3KBcV2gN3lYDkL4BxKAN+X//+9+fQIiBDHgDOhTS4P7ee+9N/u+///4E3DDLChfY428wNZkEYgyMbU3EsIsw6DaE0QgoHcdqwtaNMgLAtris+k0YeC1iJzYAACAASURBVAgcA7KpGgD7bebLVQbVeHGeftuAm75gktaXmH0Ak35ggLAFmp92YjsAYNB/DECACeABPGhX+p4+BlDpX9qRcBZZQAuQYOvHAAWEkeRZrfr/WpIfEqTcARBpmqCkC8SR9gmvn0tXPhZgo8StOhrbbW7XrY+DtT6nPdjmRLcy0zs3A3wrB152NsgYBJgBwcCVMPhGGg4wCQs84RXQZ0w09pGeA254BtDL20LVuSUAUt7qFjgDoi3QSB2MreODquJJQx2Loy7VrTQsjG3VBZLxcs7jBbhtvlWKn/iPp3gff7WpJmvu1SeQr06FL15xstcehRnD8edHNyfwm4eV1pivvAtT+nQfvzH90uYWWCvsGF4e7LtQlVF+0Tqne+4++jNXBvQWdkw3/qijysV//IQBvI1pY3rxIjf5UcKrZ302XkrvPFUY+glwO9wuPQRutkiHCwrbBG4kQSaAVqAKhSkK0ArRxEPkazBzTsMq0srL1owCkxYAaK34DfgAiwEQggVUDIoAoZW8AS+Gncec2+SPZz4Du8kDL02UTbRulploSSXnErfKWWPIfpv0Bbit1paBwaAAxL/zzjvTNo83oUzs+oK6JqEBuh48eDCd3TDgABXCv/DCC9MELw0LKfHwGKDQ71oA8NO29DkH5J2bevbZZ4/BF6oAOHE/++yzKW92h+HFJbnjhw6Dna0ZfZqfszMWXto1esf2OZpXS75d25gPM36kG4uMM2jW30hIXLBSHltgPotTEjU7BRQJm6MbDiYDXu0KqAsSTOcE1YN6e/PNN6cDzbZe2AFp4FD+tmh6TgJ/KGANPUChFb/3tdDy8OHD6cIId33f+MndFpexUVshlTPOKkdlTp8SX7ZKJ57Fi8vq+oy2g9f46mvyrv5G3gsvDD/xfIHqsT+M7bH6okuLkgez9JjH/CuDNIQpL+bCZRaGKm16btHAX3hKfsx9k+M1/6Aj3pRVdn6ViV90RXvl4lccbpVTeGYq3YJyVNWPNIUf064+RxrEZReWTpXnmO46czTQzwRu4wWFbQI3g5rVuC0VA5JtHYAMCLP6YzcZmExIi4jp+QF7VrNAignFoUGDklW7bSGTi5sl3EgBfNIx0BncKvRZDLko89bFvwm3sREa3E2kBmEgzUrddheJm8EeeDUJ1DjRK/5tVyai61a3TeLWIKF+xzafOffqf97uR/tojs+50UmT3FbUP6n8CisPn3ZHlXeDW+HSG/yy06V5E2peFjRUnvyilzuVezRnn/uLlyoMvfRHv8I2yNteNm4mAZinnZ0uTfFLW7qlY0FHUgo8jv7Mo1okblcbY/AzngLM6s8c52iCA+1AffVe2PSx7rgJl1v2uV795147YPdRc53EmyCFKv300ik+ffQrvcJNiezopzzHMnOjaufsfehOcascwBiBkoVj8UZex8PCZy9dOxTGQrtc+qZjWxZL/GEPi1Z17sxh/RYO0gYcM5G/fih+Sty5yo0+B26Hz4G8dH0P8CoI8GVl6jwN3bksTHNgEggDPEjRFIjZKhwQsbXj0KTzbQYeTOYHBNpise1qkiBdMKHYIph3DEyP8XQKI8avCopRcwbugz168cB2Cz5YzTsDQ3JpBe8QKT4CxtzxszLViLPvQ5kuS8MC3C7LsauHr93pO/qaM6sWB7Wnq+ewpHAWB/DeKt5g3yJsU747N2YMHcdC6c/TW4Db5sCtvoKnPtJaf3lEmGCHpHOm5sTqYYyjHWTnL43qaHTPnF/xhB/TnZtLj9BDm8p/1LUz9n1TlTla0bfOLNzop8w+ytwpjvmScEN/EL50yiM37n3xjuS9C1bqFJ5xYZIboO5YhDOosAsJdyCRwIkb3sM92oB47YzJMzonYmeA+wS4nfzt1cpzIJDcNiVuCBobQwxAXIzipoABjdwxbR4uv5Aye4znll1aKW6UcGMewjcg8ivN4u2Tjke+ysqM3uyQfeVcp8/d9qlsF6VlAW4X5dT2wtW+tB9t7i60o+1x53pTitf17caoTccp9We8G8eReQkW4LY5cMPLcVwmRHB+0+QMgDvL6IA6iZe6JYF5/Pjx9PyLeiHFccnnjTfemM5EksqY/J1ZdcvUG2rAIMBh0gdAbL0DIeLbsQIUpSmOdkOqw27r3hlxoMG2+p/+9KfpEgjp0JMnT6a/gpJX9M/bxS7ttfvyZNf2lZWwAp/0AWUk4CEIUkZ/W+XIAeGFHTtvqgFWwtrdE8aZUxgAn+3YOUfvNqn01Zf314Rz5pRU0vGQL7/8crqNalcQ30nP8F79SMvZUe5ocaaXAAnN8uWPr4QqeIt28eRH8AT8xXNxxrJnph8CtxPQ9uCFHfxXqYwRp/EqTHbE+wJPudMpuvDCjPvH0qK4Fyd7abKLW36jWYNml07hA3RTwnv4M/IEzdE+kirMODDzK17h5vbcb4O+ALebqaXaTP1N31nU9XMA3+M9XZ8f3S5LQXHTxZ/X5QLcNgdujcl4iscmcudBHS1gdiaRxMUhdYCq9/xIa5x75A9oAAWOupCKAQHOKQIRzoKzA35eUgACAAtHZJyvtBUOnJkDXAgCSOjOgQN1dq/EATIcPbLl52ym/OzSOJpknr1phXdzxc0ZeLfaASxgCWC18+TMp3LZDXB0SLjeoBTPDp3jRc7Xkn46XuWykF0p7d1/kKofR6081wL4dXueBO33v//9lCbQLM/6jPEQv9CAp+qV/7e+9a2Dl156aQKJpHDyV0fOvALW0tFWxAXk7WCgc17u7HTAbfyD+WsHbg32EcZewVUOd4XgVtgavgbIjb9vHpZbcUq/dLiPcctLuFRx6fnnt2965YoP8ahyKlfliW/xpLKMZc/tNukLcNt9bWkztSdtT7urDe6emvuX48jz+K4ONlGl1ZjRuDemtQC3zYFbfGwsBjC8GeZBV9IyLygAZ5SzUSRCJC7Ahnf+8N5E7hY40EbAQILjqJG6A9KAPOG8KwgUOKsFxAFmpEjOepMqkfQBeczAoItCtsvRZttO+toRUCkMN0/TAHH7qtCGP25Rk6zhizK4jEj6BhTjASCk/PgEhNm6JC2r3SeRA54dMeoJGmCwY13iu/jnmBbQBWRJQ12pC5/08B3vvIknjOd8pAs8eiII8LNFrk7FUe/qkKAI7d7o006kxX+cozPTJ4nbi68dAGx9175VKuPxq9CI5T4SzI1IVKNTeAc6nWHj3qfATSalkV9p8WcWVoVDwhipg9BVMtF14YUrrX1tuOjTSK2OopWuDHTl1IAgf/ZRxf/R7baZF+C2+xob2xdz/USbW9RuOBDP8V8/NrZtohprSyf7mNYC3K4G3JpP8NhtYpftSHhIhMxBtkeFMYGTuAEKtv9sYQIUpDcOtpP42F7jby6kjPuAC8lSEjcSItIl27HS9wyQ8KRzpEiACcmSZ4BIftBBsgaQABjo4+5lAsCteXVsE/tixjcSRTzx+gTQSmpIqkiiRuLYCxYAnPNoABI+A13au74EYOEVoGbbEiZwbhzPpSEt26ikknhOGgpE6xtu2lfHgDSA50KbustdPvLAT9u46sO8zF09k86pB7wOuAlPCZPKTD/cKj0BbdcucZNpBCiYBj0qjEw1IGEWhlhRACPcS0P8GKSw7GOa/KRZeGkDflY30gUGIfIRtAkz0hk9+6RXZg2xbV3lRne6Mum4OiQVX8ayjXzZp/JdhJYFuF2ES9cTZgQPtavryWlJdeRA/TW9vj6GuYi5MaB0ijO3L8Btc+DWGE2nCCAAI1IZfGY38QMMtjtt1zmkDsx5JcANVO8u6msme5M+kAKYmQuZvc9nfLd9B5iR3kgHAGmrVN6kQMIDKPIgbQNIhCM1IgnyeQfQPApIolU+N63mbZJdu/fhoXddbY+ilSADVjAnOq/nDUXbyviJP+J6wB9wtVUK2LnYOAI3/03q3BqApv0D2vgCOAPG3PEIDwFGII5whCSuB5Tlg7cANT9StC+++GLifeANjiERVbfSkKZH0dsqxfex7JnpOwduGErc++GHHx7v7yosFOzvrVqRKIiGRpxMtKmxCkcyhpH+NsIhSu9EYZhKAMK8+P7WW29NjTcGKGidR2Vbddhbttcfc/hb3XSmACJXuUCe1Yo0HRLlj8H8iKc/+OCD6cyBRy0dhvQquY6mM6HN+1gqR57tbfszb3/dZYVQ596kc6h4Zx9IIYm4dV5/zaEhu43reZAXX3xx4o/8gbi33377+I+BlUNdOKiqYSqPlZrVFxo9NKoO5GPVR8yvIwDP+6AW4LZaC7Vz7VW/0fbefffd6YBtf+XSgCcsM/G/wV9byK2+kj3d9opzH8Jq49RV2u8q9bfDZhLQxw3G8YVuPGjLxoQRf25Hqc6mcgFumwM37UL/0M+YTfTOVGlD7ICGdmOc1qeM4/qrucl8Zv4yt3HrnUPjMQmNudKcCYTV/hykJ4Hzt2zGbPGdhzMOyNfca0tUesZyEiS02WYEVkiZSJZ+8pOfTG3cfGHe2GflNQrAE8jFB2UErMzFwKr5Gm4AiJwli+/AHT6Y/2ANr1DAD+Y2YA64Js1z3s3WqS1P/NIfhFWv4sEj5nF4wd+JSdMHpMmXH/ePP/74+D1ZNALYaEQr6RwFdNqmNnagc65yo+8cuAE0GpeGqbAmDo2XeFhjMzFYCViBfPrppxOQIFbUgN2eAZCIhjETilVYYI+o0W0NFcRMzOnDXEzGjDqQjiNtoksiYZ+zBsKa4NADZKlohzw9UUJ6hSa3UdBu8JaXhiN/qJkoVqczqGv06FZJwmpY0rUaEh9tVlZVxrySzrOLp1wOmEoHHzQEqzduxN9oduUY3RodOrnxbwWiDOi16vjyyy8n3mp0eGs1oxEbcIABAFQj25dJaQFup1uJPgRgOSvDrI1Q2j47QK//1TYN6BZG6toiRd/TNvVLcU0o2q44xPgGLW4GNv3GoK89l89piu6Oiz5n0ag/A2f6uH6nP/jHA+OZia9+Jvym/XtfuLYAt82BW/ONvlFboHPvy6/JeozDzN+XGXCz1ckujo/ZV9r04nBvHCjcPM3iFSc9d/o+qpG+zPGBPbd0fvErXbniC13ZhU8f/cY0czc3mmMbA8e4hacXXn7ZRzMADgSai0c6hE1lpu8cuJkEgAUAAAFWHez2etlNGCYdN2BI2YApIk571ICUlYcH7kiHgCIFhbgxDjACMBQc0u1wpYYb4+QBvJCGycdqB7K22pCXNO2Rm5DEE56ZNOvXv/719HgwmiFwNKpgNAF+QJP/GIS0AbSPPvpoiverX/1qkmoAgOLJRwcENKUvn8sq8eQ9Ajf8MqkSeVuVWS1ZceAF0TepIcAK/fu/WJO4yVc4/LNCAfAAQCsyV87R7poyPuEv2vFyH9QC3FZrQb0YkEhHHX6t3WsrPuc/rPBsv2gfwLk2aTGibwFsBiGLEODdip1Y3z8dkOwCJRZWQJtzoUAc4CeO9O+DwhPSCdst+pSxp3HJAgpfLS6NMXeBJwtw2xy4qf/mHX2j9sCNWV+lG8frq/wCDfkXhm6OsXhgzt2YzCx8c0nj9Lp0xzzkReUWndnLZwq0hz/KjNZ4wOyLbjqVGz0exefCFnfkWX7C8i8tZm4+i14CnMKWB7/oK01h5mkJY1sVBslfGGZ+KXaKfhq4vXZwrZcTiGoN/hiNOEADIAAYEAlEWd3bTzZRYAgg5G9wSNwMmMIG3GztcUviZtKSjnyEIfpkr9CYKk3v1pCQ8asi+dkuBdyASdI2e93AjgHbxEcCBeiQTDiEqBydETCh+VcIAznpBMAkL2WUj3Ia7OVDKgKAct9E1TjwC3gD1gBVgNg+vAlEYyAVIHEj0SSeRY8wdBIC4FV5SFuI2KVDGsetsPIiYQBg1Rlwuw9qAW6na0FdARC2yJ955pnps3UOfNvKs6rTFxrY9TOLCXWtH6hffcmRA20fiOsgrYWK21qks54N0I4sqmzZ9PdOpym6Wy7GAWORsUO/tgADboFeW136tT6pHvC5cee2cmEBbpsDN3Wu/hur9Rdmfaw5iZkbxa35IH9+uQmbak7hLw9+5VV49tyKl174MS6zvt/YcFbc0rhpfU47ergZx+jxQVnxq/DC8Yt36dyVfYzLT9xUaQqTGtMe+VqY3ITn1jjLLD/+8smfe/nknl/6KeDmT+bHv7va9gO8VvkOZNqSBNCACVIyh/yALaDJBEOq9Y9//GMCHA5Z+l9DAM7EY9XhMKLtTBOLbVQTh3hAB+mQiaUJB2MqMIYAKSROBl15+pwRk35iT+e8DMQGrj//+c+TRJAUg0QNGBSXlBBj0ZTErXMHgBK6pW2gn28Jo9sAr5J8myh5k57gny0bUkmNAvgCZgE3EwpeA714BiySCPBv28dEb8L5/PPPpwnJQU3nnqQtDiBKPI/mGvwm9G47zgLcVjnaQDBK3LiNAwMJm7OLtr21D3/Doh8BbkAZkMff2Q6AX38A2qUB5OkD4ugHBh2LFedF9Kn7oByzsMDRJwzYFmMk1/qTcUe/18dSm/bt4t+0vgC3zYGbujdGj3qgQr3y81Ethuuvhcu/PszOr7j00i8Mu3E6u/DM3Asrz/PCFJ++r6ry0Cn8aI5irgzM8S0+CJ9/6cR37qXDb4xbuuLDAqU36uKzU/TilN+YdmZtoLDiiTOqMb2dAzeEA0W25Qx6SX+ABNs4JgkDonBW80CEiQhIMjmQtpEGAW8mHxKltkQVHBgCDG1DtnKIaTFFOJOUtIWVLxAJvDk/J28V4tapvWdpodfKGoCxKjGgAXrSNpGhx/aILSWTIBpNks6akVQoE0mFTxySPaJR5ipkrKTzzOL5TK4+W8YmEA3Mvjs+MduaBsqYlU9ZbZ+iT76kKoAnqQtpIomCbVNSUVvAneFBqzLLU1r7oBbgtloL6lPdAOIA1jgQaNPaNskbs3Na6lPbVfcO5pJCu7CjXVuskDCT5pISS1d7ttDSFv7whz9Mbc4iwYUVbf4+KP3DK+pALOCr7+CBxZCxB3AzRlDqY5O+vU98XIDbdoCbPqctGD8z033c8susDTD31Zby1x/FpUz8pcM/d+b85umVjrDClH7plh6/fVXxbK6jnduoV96RD5W5+IWPZ+zM4vaN6TKP6RVm1Od5lFe6sJnHsLmNvOdG0S8M3MqgSlaobaiIiaBRzxwjKoxVr8nC+SuTDXASfcLU2AA/f0gvnFusbt2YkExe1Jju5HDOz0jrOUEn73Xhc0u/SDqXDTNPOztdvVV3wJ7ryvhCygKYVr/Fkfdoviwt1xEePb6AW3VP37a67j+Zj2YLCVvRtd1NyiEt8QE3N8O0e3VLBygAelJsbhYiLU5s79tet+VP4uaIgnAWFyS1jhyIY/vdYqsznj/84Q+nW8xAzH1Rxh67AxZAn3zyyQRm8cMih8TNIs8Dq7ZSa6e3mTcLcNscuKl3fdLXFlxjb+7aCDOVuXYzhhnTaowQjhrtxW2cH9PIXF5T5Nn4Hi357bteeeNBZeQOhGZXjszC4k/8S5+XdXRnHu3zsOyj/7rw+c/9RvsYZp7H6Hch4Pbo0aMpjSLeROXWEOd6hVNJ6EMbfb7vHGNVGv/CV6bSucu6slZe/Ikn3AwsKTy+DQpwqy2O9G+T9usGbmhFO2mWrehU9ZT9orp4Y9tmH3nEXh+ap9ngl7t4o1s00effGK74d1HHu8pam6u/xGf8p3K/zXxYgNvmwM1uEqVd6C/GXG3DRxqemV9hajfamPbDj6Jzy85cO6yfNudJl5v4PmZqzGNyuOU/8a1i6I+VGe+Z40W8Liw9XqaPfvtojk76KeD2whln3Kr0Go/Iu/rKu0aYPrqjhftIk8qiauDRroKZxS+tMd5dNVdW5Y4XysrMz5c7vu0rH6o3wA2NdU70b1tdN3CrDdvadG6yetikHKUVT+jSo/OjmHNnj5eFYR/DRk/x+BW29HKbMrjjP5U9ftTm8MC4wp2qTWa/rWxZgNvmwE3dj/3H+W4vE3gj83e/+9103MDlMEdvhK3fGYMdC3Le21Ed7two4QrLzec4i+exSNDlJzydHz060m9rW1xHd2VSVkc6HEtS/tydPXfG2xEQN+AdA4o/eEOx+/ZdKRNFPw3c1vzJ/P/93/9Nh/69T+RzAcCX/Tr1Ma/yHN0cnpe/g/kOSUdLYej85jq34vEr3l3W44kyGhTiHXdbz3Me7TMv1LVbkxpxHfU6Ot91Azcd0QDi4UUSt7E8mwwkxW8wijfcx4974KIBzODHnX0eL3d+5SH+GGcTem9bnJGHyk7hTR+7MHhT2NtWxpHeBbhdHbjVd1xoMea6FFbf04a0E+OM8dbZYudNvVrgeIJzk4AdgMefZJ5dPGcrPdXDDXCzZe+ykLPKzm87Ty2fsc+i5S4pvKPwA3BzVt1RBud2SSCd63UMxEVBYJmZNE48vKDXj/edL5WVfiHg1qH6dM9IZL5u3Xm0PvkaSMY8ueVu5VFYYbhzo7OL21e8/MY076oZL5QNj/yvWmUf3fOf83lfeaIRG5gCG9vufLsCbs64kbg1CNVJL1OeJoF40cCUvbS5kw7RC8MvXtL7iiucgTD7qJfvZWi9rWHjS8AMH3zxAJ8oujC3XRkHAIabUgCJs5k3pTpHu0n+tYX6lUs/FpwuuPDTbvhxt2h2Gc7izcUyF87c3HZ5zM1ugK4XCuguwzl76ny385XOcuMT0GIR6FIRszOqtdXa7iZl2ec4gVNvkro4RMoGvLqsB/h6IcElLK87AM/xXR1UD/tcvmhTfxT9QsBNwLGQ2UuohK9Ll7eJhmIuX4NldpVB8fOxN3BWUflVFnbmwk0J3OEf5a2Rx6v4h5dUdjyLp/vGkuoPXdGtbNehrhu4KYvbyG43u0Bw1fKoMzebDdwBLXxxA9KDyi4c1A+0BR8aXOTxN1kmqocPHx48ePBgekTaKl6Y4tSXpDmapXEflGeHvNHYXw2pr3jj3JI6NFncFbUAt80lbtpAbYMZQPvRj3508M1vfnPqX6+88sp0IcktbeDYZTH91FynnQEfLsNoY3SAj+QIsPNCgJvh2pwtWH9ZaDvQBSNvm+q33iL1RBYa9M/GlrvSNiuT8hmjeh5MOQklbI16UYE7HpPG4UvxxjFrNO8rf5STop8GbmvOuBWhAu1yQpf3mD8Gj27r/Cocv3Fy4T5W0GiubPdFn5c9ntL5zf33jS/ROerM21YBN2lfNf0xvsHFgGs16B8v/FtFW6WblkH60gUc3Cw1mHn2xcrTytxWQc/dqF9h6fqIlbm3DXuVnbv02K1ShTWZ9Gg12g2KblLangESSXFJDbwrKI6tHPn29IxwnsrwvI+zJm1lmIS4kQTLZ58Vmv1tn+0W0hCre+89+ssr55K88WbytJ3l037wCX8p55DwALAGok3I+EyCIpwbuupN+qTcbqni5U31x/sG3OqjdJ8FzKaqtOpLFkdubNsKTeVHivaXv/xluuWvXQBpwtK1L2fj/A+1/7jWpkiQ3AwH3PRJ0jf9zxaphaB2lpROHs2D0VT+t11XLp8y+t9R4xE7fnqix7hi21SfBeQai5QbL+L/beBDdUc/AW6vHXhr9+G6B3hvQ6EWGhcObJsDBoARuDVI6DjrvgbIwo06QGJC9llZE+v7j1Dv/Jn0raS7nCCdTZU8TfaAG7NByzuHzsG8+uqrE3CT/vgJB1j88Y9/nGhTtvwBNHFJmLyxCFgIa4VvBeuMja0ck4WnZfwNlvcVvfPG3YQCqABqzul4ENqWhadFSCD8NZwBll1Y+e2zArRIOtqWUhZ1CRRb5eMHfuOHSQSQM8H2V3hArfOleOfhcA9zA8ekK/jg7K2JWvrOQ3nYlyRFHamXXav7CNzwOn6TPm/Kd31e3NLS3jvjVpr8vJfo0WZ9zkF6/cUiSTsB6P2LicWNPsjNm6b+ZskCQdvR340l+o70ATjxtEVmeaBF+uW763Z0XflVJuXzpiueAK3eKrVlbPchiRsJpMUUNdYL823gSzTSj4Hbi4fADXj7CvQ2ftfF9CXdhQP7zAEdxL9vvPPOOweexNFZ6Gd9T548OXjjjTdOfd/+9rcP3nzzzQP+/i/WFsk3vvGNactEWm+//fbB888/P60Y5VkH3YQ3gKHByoPWHsUFImwTMHtfjMTNYBeQNKhTJpUPPvhgog1NaPZmG1oAEv8IYmAkCSJ1Ij2TjvORwIWVrP88JYUiWXA2yeSDDithK14TiXi2K2wNkSxIly4sUGcS22cFuFm5mzCBMpIzEwUASkJmq9TNNnwC6ripE7wB5AA2ZeTvJjEgbNLGG254DRQDx0C9CZpST/i9a3XfgBs+1//0kZ4cyu0y/BdHnfmkC0z99Kc/XRlHtBsSM4BMv/vb3/429UXAXx+yLa9N+Qu73/72t1N/JlG3neoxbGOThZK2BpTYRjXOfO9735uk+fqqDy19lynDvofF1z67FxaP3pfEDxLwzrhZ/Ph/ZQsnYxW1SZ3eJD+ilz4BtyOc9uCFQ/B26i+vbpLYJe+FAzfFAQNug91VJ80mBOkZUEhbPvvss2kyB1pIo9wk499gv0m55QMgABRW6B7SBaSAAit3K3B5UHThTQIAgsepARIKDSYun3M3Dk/b+uSOfoehSfBMKIAGiRogQ5po5W9CMpGgxYAKAPz4xz+e4hh0fvnLX06ghaRJOBOVSQqoQdO+KvwhGbOFRUroX2DwD2+BLtvdtoeB07/+9a8TEH7ttdcmME8KYJK19WkyBWidQbKdY0vOxI03X3zxxXQ4HT8CyNXZrvly34Bbbb/+SuK2qZKG/lJ7rl/TqbGv62fc65P8xRvdS0sYbY7uszAY4+WeX2lVpinzO/CjfPFsXhx8o4RJjWbx8LA6Gv0Kv296NNIDbtPfk77w6rRdugC3fauxhZ4b4UCDpswb9BoodJ5131mECitu8Q22pDG2B4Ei51f8c0IDylnpPM29gZ7EzXab8y+26Zw7IynyYnYcLQAAEjNJREFUflRbJ8I2aEkT2EID4BWN/EmTpGeb1AqfZM75GpIy6XO3PQG40QENwASwA17EBUjFQwvgA6TZEhLOyhjAHIHb08p4034AG+BGIubvrgA3IMxtQdtZniTAE5MCf2COP6kaUGqblZtVv3QAN/x0AxC/SF8AZPwC3Bw0p2pruy7/fQNutf36K0CtH2yipFU/o0uTXh6j39yN3UcZh3zFLSyde22jOOUz5ll56HdJVdbKrmzc+oyz8Sv+8RvduN8Ghe7KNwG3Fw53Rg/B25rLCbehUAuNCwe2zYE6unR19AbCTfIZBwtpBQrpDuW7xt7lBP6bKPEABtI2wM2g5fD83//+92krxuUD25KVKxrQBrjZxhHGloItG1t1ztvYqgHS/ve//03SM4CTNMlWDjBmmwfAGCVuJFAkaYCbp05I/JQPLc6DOTgN/IgLuAF+tmJtqe6zAtxslSqvsjufiOeAG0CmvKSNQCne//Of/5wkmc4eiQOo+Zs+B8+BNXZ8Aujive159eHcI6Bbe2jg3iV/7htww2Nt3dlD50QBN26b8D6JjriBA3XJXt/LLix39vyyc+vjp1+PY1Fxi6d95F/eY1q7bD/XnVdjmfJVRjpeZB/N3Kj4Lr7vNqhopx8Ct0NJW8faFonbbajFhcZr54DOTdWxGzw3ybhBpAGDvY5IIjO+41bYy+aDTnFNPNKk6EARiRaJjkFsHKyiw+BvCxS4ABZI6MQBuHzFcVbOxGH7FIghkQM8+NNLn1lZ5Y8e/uUhbWb+xWGWVvEvW/ZdhUcnHigPfuIFHjIrqw/fuAvLrLzisCu3rXHnnWybAsHc8Qg/1UETc3F2VbZ1+dw34AYw++/eTz/9dALizrhpk5so9Vr/Er+2wt1H5Z9enNoP99yYtbt07qVZv8mvtIs7ZTY8n5T9tuvKm4o37NxHv+z4QdELn1/p7KteeejHwM02qTNu6/7yal8LstC1cOCucMANqB7g3XaZGpjotij96fx3v/vd6d02uokKYBsHhm3TcF/TG3kKmLqB6i0v5/1c3DDhmkSaYJtY9oVfNwHcRp6R6gK52+aLPIAeyuIBgPaW4nvvvTedOQSkqSRuk+WKPyTMjhNY9MgfcLAokq8ne1z0IfX+zne+M10u+Pjjjyf3gCNdvLG9SIPdgoBiT4+P/JiLm1k4caXrKRrb+QHB4qZPiV7zDzqMT27NVsYRXFkAuanuzG5lEK4yR3tx41fukV+c/Nlvg6ou6KvADXhb85dXt6FQC40LB24zB3YB3BrQdHxmeoMeffS/zbzcJ9rj66jHf/zmnp3ZZLJP6iaAGz5Q+GOL+T//+c/0mKznHLb1AdClZTvbRZv3339/unBiK5yfs4cuJ9RXrlovATcScJJZZyE9teNYAbDijCQQx1+bcBvc8zriuQ3pc2ubFNeFHxea3JYETABNl2KMI7baHYlwXlIaFPDrfCuJrudDHKVQRucuSYDx2UUhefvXBn54ZMtf+XehtH00A2akz52PVU5v3zmr68kiZ2aFVR50CseOTrfmgTtldFaUJBxQdoPbR6KqfTn20WPZ6gK/911FI30BbvteWwt994ID1wncMLDJh57ZAJZ9dGuAuBeM30EhA2P47cNf/ObOnESAXtgdkHWhLHYN3MZ2yGwid87S7WT6tj7PREjLBO8sJykXCZdzmNz5A0nPPvvsVEfb6BMBN8ALcHIxCRj75JNPpjwBNw/oAk/K7uyrs49AGEmc28f44fkdgA8Q6WIQaZ3zos7lefbHeKIcLstQQAwA5AwpibujGUCic5aAmxvSQBDQBMThgzOcwuyqTeob+KGunQ8l/US/86Au6gBbQC7JoHcOudul8JSOi13AHn65re0MrXO6eI6n3nJzuco5XGBOeIC9/y69UGe44UC1QfoC3G64MpbsFw7gwHUCtybDUTdIUun8KINCA8TksPxciQP4Gm8DahLMDKyNdVDYK2W6xci7Bm5Ib9sPLwK1WyzS1L6lHSBhNukDKl/72temvmhy1w96x20b9RJwcxkH2PC6PxpcQvGeH6DmTcevfvWrB1//+tenN9pcfiH18nQQHbACzEiRfG4mk6qRwAE86ARcADvgE0CkADdjDODnEoy0PAHkwWdb+AASQKQt4r90SOMApepjm3WwLi28AE6VAy8AL7evSSMBVNJCEkhlsLVLMqp9COtJImDPkzvKg8fq07t2/pFCOgCzdJJgAndtI9cW1tG1L26Ny/QJuL30+sGD4VsuJ+xLTS103BsOXCdwi4kGJwOzjm9gpmfOXpjiLPrVOIC/FL6OvOZWXXDPPxB3tVy3F3vXwE07rC2alDNvmy9jPiPvnfX0OLSb1YDAVZ4DmddCwE0ebpE7VydvYMPZrrZKScAo7cIHZHnbDyCx1ed85M9//vPpc0PZbWYgBvACREjdSONsxQJCeAcYkrjZBnVuEIgBAgE3Z/wCbty9MUnC5yFbN6Q77zcvz7bt6HTuk6TQMzseD9cGgC+ACxgD3ABKEjOPnX/44YfTR3KovEAw0O08HMkkwPruu+8e/OxnP5vCefKI1BE4BP7w33cblLZA0RfgdhtqbKHxznPguoGbzt4kmI6pmZvI6NueJO985T2lgPET/6uDgucWv+mZC3PT+q6Bm/LWFvHCpMq+bRXvR11+7MCPrcfOuKGB+1VVwC3JEckYM2kR4EZy1Fap/Go7gJtndEiNSAb//e9/TwBOXFI1unNewJowzqoxA0C2GKVFAufMmjNx0gICmb2jmMTNP34ATEAl8CP+v/71r51K3AA3ZQFibf0G3PAFoCUlAzj9FSGJmpvX+Aa0Od+mjHjEzVaoc3DAJ94DfrbGSSrpQK30b4uqDdIX4HZbam2h805yoM4IuPlbrI8++mj6fvGLXxybc7uqbnV6Vhr5tYI9K9ziflg/l+ED6Ujh43N2em77wnv/ahF9P/jBDyYJ1HWAp6d1aP3Ct8t864vRJW9bpVdR0ihdAMwZK8DBGS0Ayb+VeMz6v//97wRWAm7yrPxAh5vfQBkQCbTY7vTH84AKkOXha0DFNqptWECNdM5/mKpL+Tq0b1uVxI2UDXBzTozZlqr/03WejrTR32uR4vnnFfnuQgHOzrgBbqSdyqG8ALQzeOhEL2CqzB64Jhn8/PPPJ6kjEEeq+Jvf/GY6twj44Qve4pczjCRybvICvIBbC4PqaBfl3DSPaKQvwG1TLi7xFg5sgQMGDmoc4HPbQvJLEgsHLs2BwFJtMknUpRO6AxGuAtyS5jThYgdzX+yJv/GbxK+zV9VFYQvDLp6Pkpc4tjVdLnDDVD4Bk3FMYeZX2uIyd7syP2kXpvyvW482ZaHiFRqZuVdmtDFHL7/44AaqrVZbv/yFG+MJK35xr7tc20gfrfFkAW7b4OiSxsKBK3DAgNLgSafqpFdIdom6cGAjDjSh1Razb5TYLY90FeAWKNC/4yEz97le/xduDN84ENDITzgfxc0/PfhHEt/4n8fij1/5iitP9sCScKXLfQy7i2qMTvSgg44G5vxyZ4/u/D154qYuHvhnl/6+j39hxJunyY3/vit0UvQFuO17bS303XkONJjQfbdhELnzlXKPC1g7TG8ivY8suSpwG8FP4Cy3+IrPVPaAxQg2hOHuE85HjWHyowvPj5leODqVu3QKW7gxnfKZIl3zT/nTx0WDbNlHOisjNwqd3ChufaObdHMf88p9irzHP5WVvgC3Pa6ohbS7zwGdcByERvPdL/1Swn3kQJMa2kyIpD27nMD3iSdXAW7KoT8HDOJlE7AzWfHVFif3PnHyk07AZZ5eaZXXOH7wYy/t6CjsaGfuS7qXP30XqjKWb/TjAzf6WD40cc+tMMUb/bixF2cMy8+37yoa6Qtw2/faWui78xxooBwHoDtf6KWAe8sBE6SviUK7bNLbW6KvibCrAjc8xLvAU3ZuzOOHz76kTfwCLYrHvXiNFdVN6cYG4QrLzfm14rCX7+jOrTBj3sy7UvIPwBkXo5WOF5RyrbPnXtmkRUmPOZ5It7I29u6yjBNRG/xEI30BbhswcImycGBbHGiwKb0GzuyLvnDgJjjQpGeSmLfRm6BnV3kqb588/XPCVcovrVGN9hEcC5Mffcwz9+okv9wDONy55V6audOLmx999GdvDCqd8uV33Sr6ynNOm/xHv+gZaUZ3YXIXjvuYfub00to3Hd1jmdC7ALd9q6WFnoUDCwcWDiwcuBEONLk3WQJugYAbIWjJ9F5zAEgD8OdSwwW43etmsRR+4cDCgYUDCwdGDpgsfcCbv8AyST569GjSmZdv4cGu2sDjx48Pnjx5Mn3a4FtvvTW1v2eeeWbl76789dVXnn3xtYMHd/J7dPD8K48Pnn/59Ttavrtab/enXA9ffO3gvG/qmy+8evBgm1/9fZtpjmkN/6k3/r/e3PzsK08Onn/50alBaR5usa/+T+Fe8+PlxwfPv7LU6bl1dNf5dNXyvWz+fnTw8IJjybn8ntJ5dPDcK48PnoMJtpnuy4+GNB8dPPfqNeQxo/cKwO0IGAFH47c3QGkBbncTkN8dYHceaON/LcDthdJ97QKA8DJhjwDmbJA5a5BcgNuWJ5AL8v2s+tiK+1Un7H0owy5ouOt8umr5bhNwm7UX49rWweEsj1N/Mn/xyX4NMHppjVuTz871faLl7oCNi7ePpczn8Wq7wO2Q3ydg72mg7BJg7EgqeCkAORtkzgIEZwO3VsZWr08Onp++xwfPPjXdMezJwPnwaAJp5Z59oonfkP7JYHuS/7H/JEUa85jTM/qd5P/gpZO0Ll6WAJ005TOmPa7mT9Je5dEYfqRFunM/42SSjfIr/9cPHqxMwCf5rSvLxNtjfg75nsnnIZ+XXj9Y2x5m9XfSlk5ouWjZV+mr/irzyJcZj6c6GGhd4ck6np6EXZfnqtvl+XTIg5FeaVymHp9O8wmPK8c8r9xfP1gtyyFPV90uWr55HmN5jugloa99HbfZQ1pW86xuT+g85tkkcRvzmoU9o61euG2e2V7ntFzNvl3g9uJrkyhyEpXvHKjNgcIC3M4DDot/beb1g2dffnSw62MDWwVuI8Cq743bl3PzRcIkmTsO+zQwOGznPhVgnQxY02DYQDzpDaImZYN09qNJ/cwtuKPwx9uuBuaTyVc+EyhbmdwO6zxAF0A5tB+ldzw5NNCfpDlNFMf0PC3/y5blhD8nIOuEDxOdx3yZ0ynuBWgZ+YTPK+Uc8lKPKyDlAmVZCX9YFn1rPZ/Hsh7ldVy2k7KcAOox/CXLru7HtPX3qZ2e1O3xwmCavOPDYVs69juLJyNPa3tn5jnn6yX5tK6ON6nHdTSf6rtPaU9bK988j5P+Pu+Pgcr63+T/NDpWynN++z2zra60iTPa5lHbP27rK3mPbffq5hlwOwI7w9bncy81uc319cDIHvIKcJsK8/jguaRxEO9xmq8fAb22W2eTZ3FfnNP16PS5taOwx9u2KhMt49btQEPhTmiZl2+x7z+w2xbg2lY6l2sz2wNuQ74TQDuyA15zwJb9GIwNgCu/9DHMaM7/LP2CA9baVewU1wB7ApKmwXrqzwMAGPNYM2CupH0U91SaYxqTJGqYrGf5TxPF8URn4jW+HNHz1PwvWZY1NK0Cl8PJ59BtNB9NBk+jBc0jeJHXWI4VHqymtyqxGCaelfjrAUmT7XEacxqOyzwrzzp6zwo7leVw7hknzuN2cJTWKi+VYxXkH9MY2D+PJxfg9+k8r8indXxZqYdzwObTaD7m72r9X46nlyzfeeVZ569e6qNH/mv5vFKeIU7uK3wb2vXkP/LxvLa5rh3N09ue/QS4BWpGoOPQ3THIGiaHaRBfA4ymBvH44LkGefqRG6C04n4Mxk5AWKDvWPKxLm5uL5/Q82z5HtM6AMKhPFNFH4d57eA43kjvYj4NiveWJ9sCXNtK56RNXgT0bg+4vXpSZ8BU9XUh4HYWuDu8ODGlNQG0I/vT0gzINSieox9PqqfCXXKA1f9XJHdHWyoD0DoFvOQ5DfjD9ssxoDid/6n444D/1PxPp7UKlp42mI8Tx0m4E76tS/spvJjGyRn4HctxHkgZJ8vqbCX+GRP2mXw+KVPgLkkK+ymel+ekX7Lss/o+meQvwOPjdnFE7xEfJ5qfWverbewkzyvy6ar1eB7NI5/PCzvU7cblO6886/znbfEsOsayzOPUJlqAZV8ZS1rMHbXHIyn76ba5vh3Vrret/z8+f3HGv5wuDAAAAABJRU5ErkJggg==;" parent="1" vertex="1">
          <mxGeometry x="20" y="530" width="622" height="272" as="geometry" />
        </mxCell>
        <mxCell id="MeHVMLw1KAwCeqkkqlxQ-3" value="USUARIO" style="shape=table;startSize=30;container=1;collapsible=1;childLayout=tableLayout;fixedRows=1;rowLines=0;fontStyle=1;align=center;resizeLast=1;" parent="1" vertex="1">
          <mxGeometry x="280" y="840" width="180" height="160" as="geometry" />
        </mxCell>
        <mxCell id="MeHVMLw1KAwCeqkkqlxQ-4" value="" style="shape=partialRectangle;collapsible=0;dropTarget=0;pointerEvents=0;fillColor=none;top=0;left=0;bottom=1;right=0;points=[[0,0.5],[1,0.5]];portConstraint=eastwest;" parent="MeHVMLw1KAwCeqkkqlxQ-3" vertex="1">
          <mxGeometry y="30" width="180" height="30" as="geometry" />
        </mxCell>
        <mxCell id="MeHVMLw1KAwCeqkkqlxQ-5" value="PK" style="shape=partialRectangle;connectable=0;fillColor=none;top=0;left=0;bottom=0;right=0;fontStyle=1;overflow=hidden;" parent="MeHVMLw1KAwCeqkkqlxQ-4" vertex="1">
          <mxGeometry width="30" height="30" as="geometry" />
        </mxCell>
        <mxCell id="MeHVMLw1KAwCeqkkqlxQ-6" value="usuario_id int" style="shape=partialRectangle;connectable=0;fillColor=none;top=0;left=0;bottom=0;right=0;align=left;spacingLeft=6;fontStyle=5;overflow=hidden;" parent="MeHVMLw1KAwCeqkkqlxQ-4" vertex="1">
          <mxGeometry x="30" width="150" height="30" as="geometry" />
        </mxCell>
        <mxCell id="MeHVMLw1KAwCeqkkqlxQ-7" value="" style="shape=partialRectangle;collapsible=0;dropTarget=0;pointerEvents=0;fillColor=none;top=0;left=0;bottom=0;right=0;points=[[0,0.5],[1,0.5]];portConstraint=eastwest;" parent="MeHVMLw1KAwCeqkkqlxQ-3" vertex="1">
          <mxGeometry y="60" width="180" height="30" as="geometry" />
        </mxCell>
        <mxCell id="MeHVMLw1KAwCeqkkqlxQ-8" value="" style="shape=partialRectangle;connectable=0;fillColor=none;top=0;left=0;bottom=0;right=0;editable=1;overflow=hidden;" parent="MeHVMLw1KAwCeqkkqlxQ-7" vertex="1">
          <mxGeometry width="30" height="30" as="geometry" />
        </mxCell>
        <mxCell id="MeHVMLw1KAwCeqkkqlxQ-9" value="email text" style="shape=partialRectangle;connectable=0;fillColor=none;top=0;left=0;bottom=0;right=0;align=left;spacingLeft=6;overflow=hidden;" parent="MeHVMLw1KAwCeqkkqlxQ-7" vertex="1">
          <mxGeometry x="30" width="150" height="30" as="geometry" />
        </mxCell>
        <mxCell id="MeHVMLw1KAwCeqkkqlxQ-10" value="" style="shape=partialRectangle;collapsible=0;dropTarget=0;pointerEvents=0;fillColor=none;top=0;left=0;bottom=0;right=0;points=[[0,0.5],[1,0.5]];portConstraint=eastwest;" parent="MeHVMLw1KAwCeqkkqlxQ-3" vertex="1">
          <mxGeometry y="90" width="180" height="30" as="geometry" />
        </mxCell>
        <mxCell id="MeHVMLw1KAwCeqkkqlxQ-11" value="" style="shape=partialRectangle;connectable=0;fillColor=none;top=0;left=0;bottom=0;right=0;editable=1;overflow=hidden;" parent="MeHVMLw1KAwCeqkkqlxQ-10" vertex="1">
          <mxGeometry width="30" height="30" as="geometry" />
        </mxCell>
        <mxCell id="MeHVMLw1KAwCeqkkqlxQ-12" value="password text" style="shape=partialRectangle;connectable=0;fillColor=none;top=0;left=0;bottom=0;right=0;align=left;spacingLeft=6;overflow=hidden;" parent="MeHVMLw1KAwCeqkkqlxQ-10" vertex="1">
          <mxGeometry x="30" width="150" height="30" as="geometry" />
        </mxCell>
        <mxCell id="bHWrnw9SkG1g4iROit9P-1" style="shape=partialRectangle;collapsible=0;dropTarget=0;pointerEvents=0;fillColor=none;top=0;left=0;bottom=0;right=0;points=[[0,0.5],[1,0.5]];portConstraint=eastwest;" vertex="1" parent="MeHVMLw1KAwCeqkkqlxQ-3">
          <mxGeometry y="120" width="180" height="30" as="geometry" />
        </mxCell>
        <mxCell id="bHWrnw9SkG1g4iROit9P-2" style="shape=partialRectangle;connectable=0;fillColor=none;top=0;left=0;bottom=0;right=0;editable=1;overflow=hidden;" vertex="1" parent="bHWrnw9SkG1g4iROit9P-1">
          <mxGeometry width="30" height="30" as="geometry" />
        </mxCell>
        <mxCell id="bHWrnw9SkG1g4iROit9P-3" value="especialista boolean" style="shape=partialRectangle;connectable=0;fillColor=none;top=0;left=0;bottom=0;right=0;align=left;spacingLeft=6;overflow=hidden;" vertex="1" parent="bHWrnw9SkG1g4iROit9P-1">
          <mxGeometry x="30" width="150" height="30" as="geometry" />
        </mxCell>
        <mxCell id="MeHVMLw1KAwCeqkkqlxQ-16" value="PACIENTE" style="shape=table;startSize=30;container=1;collapsible=1;childLayout=tableLayout;fixedRows=1;rowLines=0;fontStyle=1;align=center;resizeLast=1;" parent="1" vertex="1">
          <mxGeometry x="50" y="1180" width="180" height="250" as="geometry">
            <mxRectangle x="335" y="870" width="90" height="30" as="alternateBounds" />
          </mxGeometry>
        </mxCell>
        <mxCell id="MeHVMLw1KAwCeqkkqlxQ-17" value="" style="shape=partialRectangle;collapsible=0;dropTarget=0;pointerEvents=0;fillColor=none;top=0;left=0;bottom=1;right=0;points=[[0,0.5],[1,0.5]];portConstraint=eastwest;" parent="MeHVMLw1KAwCeqkkqlxQ-16" vertex="1">
          <mxGeometry y="30" width="180" height="30" as="geometry" />
        </mxCell>
        <mxCell id="MeHVMLw1KAwCeqkkqlxQ-18" value="PK" style="shape=partialRectangle;connectable=0;fillColor=none;top=0;left=0;bottom=0;right=0;fontStyle=1;overflow=hidden;" parent="MeHVMLw1KAwCeqkkqlxQ-17" vertex="1">
          <mxGeometry width="30" height="30" as="geometry" />
        </mxCell>
        <mxCell id="MeHVMLw1KAwCeqkkqlxQ-19" value="paciente_id int" style="shape=partialRectangle;connectable=0;fillColor=none;top=0;left=0;bottom=0;right=0;align=left;spacingLeft=6;fontStyle=5;overflow=hidden;" parent="MeHVMLw1KAwCeqkkqlxQ-17" vertex="1">
          <mxGeometry x="30" width="150" height="30" as="geometry" />
        </mxCell>
        <mxCell id="MeHVMLw1KAwCeqkkqlxQ-20" value="" style="shape=partialRectangle;collapsible=0;dropTarget=0;pointerEvents=0;fillColor=none;top=0;left=0;bottom=0;right=0;points=[[0,0.5],[1,0.5]];portConstraint=eastwest;" parent="MeHVMLw1KAwCeqkkqlxQ-16" vertex="1">
          <mxGeometry y="60" width="180" height="30" as="geometry" />
        </mxCell>
        <mxCell id="MeHVMLw1KAwCeqkkqlxQ-21" value="" style="shape=partialRectangle;connectable=0;fillColor=none;top=0;left=0;bottom=0;right=0;editable=1;overflow=hidden;" parent="MeHVMLw1KAwCeqkkqlxQ-20" vertex="1">
          <mxGeometry width="30" height="30" as="geometry" />
        </mxCell>
        <mxCell id="MeHVMLw1KAwCeqkkqlxQ-22" value="primer_nombre text" style="shape=partialRectangle;connectable=0;fillColor=none;top=0;left=0;bottom=0;right=0;align=left;spacingLeft=6;overflow=hidden;" parent="MeHVMLw1KAwCeqkkqlxQ-20" vertex="1">
          <mxGeometry x="30" width="150" height="30" as="geometry" />
        </mxCell>
        <mxCell id="MeHVMLw1KAwCeqkkqlxQ-23" value="" style="shape=partialRectangle;collapsible=0;dropTarget=0;pointerEvents=0;fillColor=none;top=0;left=0;bottom=0;right=0;points=[[0,0.5],[1,0.5]];portConstraint=eastwest;" parent="MeHVMLw1KAwCeqkkqlxQ-16" vertex="1">
          <mxGeometry y="90" width="180" height="30" as="geometry" />
        </mxCell>
        <mxCell id="MeHVMLw1KAwCeqkkqlxQ-24" value="" style="shape=partialRectangle;connectable=0;fillColor=none;top=0;left=0;bottom=0;right=0;editable=1;overflow=hidden;" parent="MeHVMLw1KAwCeqkkqlxQ-23" vertex="1">
          <mxGeometry width="30" height="30" as="geometry" />
        </mxCell>
        <mxCell id="MeHVMLw1KAwCeqkkqlxQ-25" value="segundo_nombre text" style="shape=partialRectangle;connectable=0;fillColor=none;top=0;left=0;bottom=0;right=0;align=left;spacingLeft=6;overflow=hidden;" parent="MeHVMLw1KAwCeqkkqlxQ-23" vertex="1">
          <mxGeometry x="30" width="150" height="30" as="geometry" />
        </mxCell>
        <mxCell id="MeHVMLw1KAwCeqkkqlxQ-26" value="" style="shape=partialRectangle;collapsible=0;dropTarget=0;pointerEvents=0;fillColor=none;top=0;left=0;bottom=0;right=0;points=[[0,0.5],[1,0.5]];portConstraint=eastwest;" parent="MeHVMLw1KAwCeqkkqlxQ-16" vertex="1">
          <mxGeometry y="120" width="180" height="30" as="geometry" />
        </mxCell>
        <mxCell id="MeHVMLw1KAwCeqkkqlxQ-27" value="" style="shape=partialRectangle;connectable=0;fillColor=none;top=0;left=0;bottom=0;right=0;editable=1;overflow=hidden;" parent="MeHVMLw1KAwCeqkkqlxQ-26" vertex="1">
          <mxGeometry width="30" height="30" as="geometry" />
        </mxCell>
        <mxCell id="MeHVMLw1KAwCeqkkqlxQ-28" value="primer_apellido text" style="shape=partialRectangle;connectable=0;fillColor=none;top=0;left=0;bottom=0;right=0;align=left;spacingLeft=6;overflow=hidden;" parent="MeHVMLw1KAwCeqkkqlxQ-26" vertex="1">
          <mxGeometry x="30" width="150" height="30" as="geometry" />
        </mxCell>
        <mxCell id="MeHVMLw1KAwCeqkkqlxQ-29" style="shape=partialRectangle;collapsible=0;dropTarget=0;pointerEvents=0;fillColor=none;top=0;left=0;bottom=0;right=0;points=[[0,0.5],[1,0.5]];portConstraint=eastwest;" parent="MeHVMLw1KAwCeqkkqlxQ-16" vertex="1">
          <mxGeometry y="150" width="180" height="30" as="geometry" />
        </mxCell>
        <mxCell id="MeHVMLw1KAwCeqkkqlxQ-30" style="shape=partialRectangle;connectable=0;fillColor=none;top=0;left=0;bottom=0;right=0;editable=1;overflow=hidden;" parent="MeHVMLw1KAwCeqkkqlxQ-29" vertex="1">
          <mxGeometry width="30" height="30" as="geometry" />
        </mxCell>
        <mxCell id="MeHVMLw1KAwCeqkkqlxQ-31" value="segundo_apellido text" style="shape=partialRectangle;connectable=0;fillColor=none;top=0;left=0;bottom=0;right=0;align=left;spacingLeft=6;overflow=hidden;" parent="MeHVMLw1KAwCeqkkqlxQ-29" vertex="1">
          <mxGeometry x="30" width="150" height="30" as="geometry" />
        </mxCell>
        <mxCell id="MeHVMLw1KAwCeqkkqlxQ-32" style="shape=partialRectangle;collapsible=0;dropTarget=0;pointerEvents=0;fillColor=none;top=0;left=0;bottom=0;right=0;points=[[0,0.5],[1,0.5]];portConstraint=eastwest;" parent="MeHVMLw1KAwCeqkkqlxQ-16" vertex="1">
          <mxGeometry y="180" width="180" height="30" as="geometry" />
        </mxCell>
        <mxCell id="MeHVMLw1KAwCeqkkqlxQ-33" style="shape=partialRectangle;connectable=0;fillColor=none;top=0;left=0;bottom=0;right=0;editable=1;overflow=hidden;" parent="MeHVMLw1KAwCeqkkqlxQ-32" vertex="1">
          <mxGeometry width="30" height="30" as="geometry" />
        </mxCell>
        <mxCell id="MeHVMLw1KAwCeqkkqlxQ-34" value="email text unique" style="shape=partialRectangle;connectable=0;fillColor=none;top=0;left=0;bottom=0;right=0;align=left;spacingLeft=6;overflow=hidden;" parent="MeHVMLw1KAwCeqkkqlxQ-32" vertex="1">
          <mxGeometry x="30" width="150" height="30" as="geometry" />
        </mxCell>
        <mxCell id="MeHVMLw1KAwCeqkkqlxQ-35" style="shape=partialRectangle;collapsible=0;dropTarget=0;pointerEvents=0;fillColor=none;top=0;left=0;bottom=0;right=0;points=[[0,0.5],[1,0.5]];portConstraint=eastwest;" parent="MeHVMLw1KAwCeqkkqlxQ-16" vertex="1">
          <mxGeometry y="210" width="180" height="30" as="geometry" />
        </mxCell>
        <mxCell id="MeHVMLw1KAwCeqkkqlxQ-36" style="shape=partialRectangle;connectable=0;fillColor=none;top=0;left=0;bottom=0;right=0;editable=1;overflow=hidden;" parent="MeHVMLw1KAwCeqkkqlxQ-35" vertex="1">
          <mxGeometry width="30" height="30" as="geometry" />
        </mxCell>
        <mxCell id="MeHVMLw1KAwCeqkkqlxQ-37" value="telefono int" style="shape=partialRectangle;connectable=0;fillColor=none;top=0;left=0;bottom=0;right=0;align=left;spacingLeft=6;overflow=hidden;" parent="MeHVMLw1KAwCeqkkqlxQ-35" vertex="1">
          <mxGeometry x="30" width="150" height="30" as="geometry" />
        </mxCell>
        <mxCell id="MeHVMLw1KAwCeqkkqlxQ-41" value="EXAMEN" style="shape=table;startSize=30;container=1;collapsible=1;childLayout=tableLayout;fixedRows=1;rowLines=0;fontStyle=1;align=center;resizeLast=1;" parent="1" vertex="1">
          <mxGeometry x="40" y="980" width="180" height="190" as="geometry" />
        </mxCell>
        <mxCell id="MeHVMLw1KAwCeqkkqlxQ-42" value="" style="shape=partialRectangle;collapsible=0;dropTarget=0;pointerEvents=0;fillColor=none;top=0;left=0;bottom=1;right=0;points=[[0,0.5],[1,0.5]];portConstraint=eastwest;" parent="MeHVMLw1KAwCeqkkqlxQ-41" vertex="1">
          <mxGeometry y="30" width="180" height="30" as="geometry" />
        </mxCell>
        <mxCell id="MeHVMLw1KAwCeqkkqlxQ-43" value="PK" style="shape=partialRectangle;connectable=0;fillColor=none;top=0;left=0;bottom=0;right=0;fontStyle=1;overflow=hidden;" parent="MeHVMLw1KAwCeqkkqlxQ-42" vertex="1">
          <mxGeometry width="30" height="30" as="geometry" />
        </mxCell>
        <mxCell id="MeHVMLw1KAwCeqkkqlxQ-44" value="examen_id int" style="shape=partialRectangle;connectable=0;fillColor=none;top=0;left=0;bottom=0;right=0;align=left;spacingLeft=6;fontStyle=5;overflow=hidden;" parent="MeHVMLw1KAwCeqkkqlxQ-42" vertex="1">
          <mxGeometry x="30" width="150" height="30" as="geometry" />
        </mxCell>
        <mxCell id="MeHVMLw1KAwCeqkkqlxQ-45" value="" style="shape=partialRectangle;collapsible=0;dropTarget=0;pointerEvents=0;fillColor=none;top=0;left=0;bottom=0;right=0;points=[[0,0.5],[1,0.5]];portConstraint=eastwest;" parent="MeHVMLw1KAwCeqkkqlxQ-41" vertex="1">
          <mxGeometry y="60" width="180" height="30" as="geometry" />
        </mxCell>
        <mxCell id="MeHVMLw1KAwCeqkkqlxQ-46" value="" style="shape=partialRectangle;connectable=0;fillColor=none;top=0;left=0;bottom=0;right=0;editable=1;overflow=hidden;" parent="MeHVMLw1KAwCeqkkqlxQ-45" vertex="1">
          <mxGeometry width="30" height="30" as="geometry" />
        </mxCell>
        <mxCell id="MeHVMLw1KAwCeqkkqlxQ-47" value="titulo text" style="shape=partialRectangle;connectable=0;fillColor=none;top=0;left=0;bottom=0;right=0;align=left;spacingLeft=6;overflow=hidden;" parent="MeHVMLw1KAwCeqkkqlxQ-45" vertex="1">
          <mxGeometry x="30" width="150" height="30" as="geometry" />
        </mxCell>
        <mxCell id="MeHVMLw1KAwCeqkkqlxQ-48" value="" style="shape=partialRectangle;collapsible=0;dropTarget=0;pointerEvents=0;fillColor=none;top=0;left=0;bottom=0;right=0;points=[[0,0.5],[1,0.5]];portConstraint=eastwest;" parent="MeHVMLw1KAwCeqkkqlxQ-41" vertex="1">
          <mxGeometry y="90" width="180" height="30" as="geometry" />
        </mxCell>
        <mxCell id="MeHVMLw1KAwCeqkkqlxQ-49" value="" style="shape=partialRectangle;connectable=0;fillColor=none;top=0;left=0;bottom=0;right=0;editable=1;overflow=hidden;" parent="MeHVMLw1KAwCeqkkqlxQ-48" vertex="1">
          <mxGeometry width="30" height="30" as="geometry" />
        </mxCell>
        <mxCell id="MeHVMLw1KAwCeqkkqlxQ-50" value="fecha_creacion datetime" style="shape=partialRectangle;connectable=0;fillColor=none;top=0;left=0;bottom=0;right=0;align=left;spacingLeft=6;overflow=hidden;" parent="MeHVMLw1KAwCeqkkqlxQ-48" vertex="1">
          <mxGeometry x="30" width="150" height="30" as="geometry" />
        </mxCell>
        <mxCell id="MeHVMLw1KAwCeqkkqlxQ-51" value="" style="shape=partialRectangle;collapsible=0;dropTarget=0;pointerEvents=0;fillColor=none;top=0;left=0;bottom=0;right=0;points=[[0,0.5],[1,0.5]];portConstraint=eastwest;" parent="MeHVMLw1KAwCeqkkqlxQ-41" vertex="1">
          <mxGeometry y="120" width="180" height="30" as="geometry" />
        </mxCell>
        <mxCell id="MeHVMLw1KAwCeqkkqlxQ-52" value="" style="shape=partialRectangle;connectable=0;fillColor=none;top=0;left=0;bottom=0;right=0;editable=1;overflow=hidden;" parent="MeHVMLw1KAwCeqkkqlxQ-51" vertex="1">
          <mxGeometry width="30" height="30" as="geometry" />
        </mxCell>
        <mxCell id="MeHVMLw1KAwCeqkkqlxQ-53" value="codigo int" style="shape=partialRectangle;connectable=0;fillColor=none;top=0;left=0;bottom=0;right=0;align=left;spacingLeft=6;overflow=hidden;" parent="MeHVMLw1KAwCeqkkqlxQ-51" vertex="1">
          <mxGeometry x="30" width="150" height="30" as="geometry" />
        </mxCell>
        <mxCell id="MeHVMLw1KAwCeqkkqlxQ-54" value="" style="shape=partialRectangle;collapsible=0;dropTarget=0;pointerEvents=0;fillColor=none;top=0;left=0;bottom=0;right=0;points=[[0,0.5],[1,0.5]];portConstraint=eastwest;" parent="MeHVMLw1KAwCeqkkqlxQ-41" vertex="1">
          <mxGeometry y="150" width="180" height="30" as="geometry" />
        </mxCell>
        <mxCell id="MeHVMLw1KAwCeqkkqlxQ-55" value="" style="shape=partialRectangle;connectable=0;fillColor=none;top=0;left=0;bottom=0;right=0;editable=1;overflow=hidden;" parent="MeHVMLw1KAwCeqkkqlxQ-54" vertex="1">
          <mxGeometry width="30" height="30" as="geometry" />
        </mxCell>
        <mxCell id="MeHVMLw1KAwCeqkkqlxQ-56" value="habilitado boolean" style="shape=partialRectangle;connectable=0;fillColor=none;top=0;left=0;bottom=0;right=0;align=left;spacingLeft=6;overflow=hidden;" parent="MeHVMLw1KAwCeqkkqlxQ-54" vertex="1">
          <mxGeometry x="30" width="150" height="30" as="geometry" />
        </mxCell>
        <mxCell id="MeHVMLw1KAwCeqkkqlxQ-96" value="HORARIO" style="shape=table;startSize=30;container=1;collapsible=1;childLayout=tableLayout;fixedRows=1;rowLines=0;fontStyle=1;align=center;resizeLast=1;" parent="1" vertex="1">
          <mxGeometry x="50" y="1450" width="180" height="130" as="geometry" />
        </mxCell>
        <mxCell id="MeHVMLw1KAwCeqkkqlxQ-97" value="" style="shape=partialRectangle;collapsible=0;dropTarget=0;pointerEvents=0;fillColor=none;top=0;left=0;bottom=1;right=0;points=[[0,0.5],[1,0.5]];portConstraint=eastwest;" parent="MeHVMLw1KAwCeqkkqlxQ-96" vertex="1">
          <mxGeometry y="30" width="180" height="30" as="geometry" />
        </mxCell>
        <mxCell id="MeHVMLw1KAwCeqkkqlxQ-98" value="PK" style="shape=partialRectangle;connectable=0;fillColor=none;top=0;left=0;bottom=0;right=0;fontStyle=1;overflow=hidden;" parent="MeHVMLw1KAwCeqkkqlxQ-97" vertex="1">
          <mxGeometry width="30" height="30" as="geometry" />
        </mxCell>
        <mxCell id="MeHVMLw1KAwCeqkkqlxQ-99" value="horario_id int" style="shape=partialRectangle;connectable=0;fillColor=none;top=0;left=0;bottom=0;right=0;align=left;spacingLeft=6;fontStyle=5;overflow=hidden;" parent="MeHVMLw1KAwCeqkkqlxQ-97" vertex="1">
          <mxGeometry x="30" width="150" height="30" as="geometry" />
        </mxCell>
        <mxCell id="MeHVMLw1KAwCeqkkqlxQ-100" value="" style="shape=partialRectangle;collapsible=0;dropTarget=0;pointerEvents=0;fillColor=none;top=0;left=0;bottom=0;right=0;points=[[0,0.5],[1,0.5]];portConstraint=eastwest;" parent="MeHVMLw1KAwCeqkkqlxQ-96" vertex="1">
          <mxGeometry y="60" width="180" height="30" as="geometry" />
        </mxCell>
        <mxCell id="MeHVMLw1KAwCeqkkqlxQ-101" value="" style="shape=partialRectangle;connectable=0;fillColor=none;top=0;left=0;bottom=0;right=0;editable=1;overflow=hidden;" parent="MeHVMLw1KAwCeqkkqlxQ-100" vertex="1">
          <mxGeometry width="30" height="30" as="geometry" />
        </mxCell>
        <mxCell id="MeHVMLw1KAwCeqkkqlxQ-102" value="fecha timestamp" style="shape=partialRectangle;connectable=0;fillColor=none;top=0;left=0;bottom=0;right=0;align=left;spacingLeft=6;overflow=hidden;" parent="MeHVMLw1KAwCeqkkqlxQ-100" vertex="1">
          <mxGeometry x="30" width="150" height="30" as="geometry" />
        </mxCell>
        <mxCell id="MeHVMLw1KAwCeqkkqlxQ-106" value="" style="shape=partialRectangle;collapsible=0;dropTarget=0;pointerEvents=0;fillColor=none;top=0;left=0;bottom=0;right=0;points=[[0,0.5],[1,0.5]];portConstraint=eastwest;" parent="MeHVMLw1KAwCeqkkqlxQ-96" vertex="1">
          <mxGeometry y="90" width="180" height="30" as="geometry" />
        </mxCell>
        <mxCell id="MeHVMLw1KAwCeqkkqlxQ-107" value="" style="shape=partialRectangle;connectable=0;fillColor=none;top=0;left=0;bottom=0;right=0;editable=1;overflow=hidden;" parent="MeHVMLw1KAwCeqkkqlxQ-106" vertex="1">
          <mxGeometry width="30" height="30" as="geometry" />
        </mxCell>
        <mxCell id="MeHVMLw1KAwCeqkkqlxQ-108" value="disponible boolean" style="shape=partialRectangle;connectable=0;fillColor=none;top=0;left=0;bottom=0;right=0;align=left;spacingLeft=6;overflow=hidden;" parent="MeHVMLw1KAwCeqkkqlxQ-106" vertex="1">
          <mxGeometry x="30" width="150" height="30" as="geometry" />
        </mxCell>
        <mxCell id="MeHVMLw1KAwCeqkkqlxQ-109" value="CITA" style="shape=table;startSize=30;container=1;collapsible=1;childLayout=tableLayout;fixedRows=1;rowLines=0;fontStyle=1;align=center;resizeLast=1;" parent="1" vertex="1">
          <mxGeometry x="340" y="1280" width="180" height="160" as="geometry" />
        </mxCell>
        <mxCell id="MeHVMLw1KAwCeqkkqlxQ-110" value="" style="shape=partialRectangle;collapsible=0;dropTarget=0;pointerEvents=0;fillColor=none;top=0;left=0;bottom=0;right=0;points=[[0,0.5],[1,0.5]];portConstraint=eastwest;" parent="MeHVMLw1KAwCeqkkqlxQ-109" vertex="1">
          <mxGeometry y="30" width="180" height="30" as="geometry" />
        </mxCell>
        <mxCell id="MeHVMLw1KAwCeqkkqlxQ-111" value="PK,FK1" style="shape=partialRectangle;connectable=0;fillColor=none;top=0;left=0;bottom=0;right=0;fontStyle=1;overflow=hidden;" parent="MeHVMLw1KAwCeqkkqlxQ-110" vertex="1">
          <mxGeometry width="60" height="30" as="geometry" />
        </mxCell>
        <mxCell id="MeHVMLw1KAwCeqkkqlxQ-112" value="paciente_id int" style="shape=partialRectangle;connectable=0;fillColor=none;top=0;left=0;bottom=0;right=0;align=left;spacingLeft=6;fontStyle=5;overflow=hidden;" parent="MeHVMLw1KAwCeqkkqlxQ-110" vertex="1">
          <mxGeometry x="60" width="120" height="30" as="geometry" />
        </mxCell>
        <mxCell id="MeHVMLw1KAwCeqkkqlxQ-113" value="" style="shape=partialRectangle;collapsible=0;dropTarget=0;pointerEvents=0;fillColor=none;top=0;left=0;bottom=1;right=0;points=[[0,0.5],[1,0.5]];portConstraint=eastwest;" parent="MeHVMLw1KAwCeqkkqlxQ-109" vertex="1">
          <mxGeometry y="60" width="180" height="30" as="geometry" />
        </mxCell>
        <mxCell id="MeHVMLw1KAwCeqkkqlxQ-114" value="PK,FK2" style="shape=partialRectangle;connectable=0;fillColor=none;top=0;left=0;bottom=0;right=0;fontStyle=1;overflow=hidden;" parent="MeHVMLw1KAwCeqkkqlxQ-113" vertex="1">
          <mxGeometry width="60" height="30" as="geometry" />
        </mxCell>
        <mxCell id="MeHVMLw1KAwCeqkkqlxQ-115" value="horario_id int" style="shape=partialRectangle;connectable=0;fillColor=none;top=0;left=0;bottom=0;right=0;align=left;spacingLeft=6;fontStyle=5;overflow=hidden;" parent="MeHVMLw1KAwCeqkkqlxQ-113" vertex="1">
          <mxGeometry x="60" width="120" height="30" as="geometry" />
        </mxCell>
        <mxCell id="MeHVMLw1KAwCeqkkqlxQ-116" value="" style="shape=partialRectangle;collapsible=0;dropTarget=0;pointerEvents=0;fillColor=none;top=0;left=0;bottom=0;right=0;points=[[0,0.5],[1,0.5]];portConstraint=eastwest;" parent="MeHVMLw1KAwCeqkkqlxQ-109" vertex="1">
          <mxGeometry y="90" width="180" height="30" as="geometry" />
        </mxCell>
        <mxCell id="MeHVMLw1KAwCeqkkqlxQ-117" value="FK3" style="shape=partialRectangle;connectable=0;fillColor=none;top=0;left=0;bottom=0;right=0;editable=1;overflow=hidden;" parent="MeHVMLw1KAwCeqkkqlxQ-116" vertex="1">
          <mxGeometry width="60" height="30" as="geometry" />
        </mxCell>
        <mxCell id="MeHVMLw1KAwCeqkkqlxQ-118" value="estado int" style="shape=partialRectangle;connectable=0;fillColor=none;top=0;left=0;bottom=0;right=0;align=left;spacingLeft=6;overflow=hidden;" parent="MeHVMLw1KAwCeqkkqlxQ-116" vertex="1">
          <mxGeometry x="60" width="120" height="30" as="geometry" />
        </mxCell>
        <mxCell id="bHWrnw9SkG1g4iROit9P-4" style="shape=partialRectangle;collapsible=0;dropTarget=0;pointerEvents=0;fillColor=none;top=0;left=0;bottom=0;right=0;points=[[0,0.5],[1,0.5]];portConstraint=eastwest;" vertex="1" parent="MeHVMLw1KAwCeqkkqlxQ-109">
          <mxGeometry y="120" width="180" height="30" as="geometry" />
        </mxCell>
        <mxCell id="bHWrnw9SkG1g4iROit9P-5" style="shape=partialRectangle;connectable=0;fillColor=none;top=0;left=0;bottom=0;right=0;editable=1;overflow=hidden;" vertex="1" parent="bHWrnw9SkG1g4iROit9P-4">
          <mxGeometry width="60" height="30" as="geometry" />
        </mxCell>
        <mxCell id="bHWrnw9SkG1g4iROit9P-6" value="comentario text" style="shape=partialRectangle;connectable=0;fillColor=none;top=0;left=0;bottom=0;right=0;align=left;spacingLeft=6;overflow=hidden;" vertex="1" parent="bHWrnw9SkG1g4iROit9P-4">
          <mxGeometry x="60" width="120" height="30" as="geometry" />
        </mxCell>
        <mxCell id="MeHVMLw1KAwCeqkkqlxQ-123" style="edgeStyle=orthogonalEdgeStyle;rounded=0;orthogonalLoop=1;jettySize=auto;html=1;exitX=1;exitY=0.5;exitDx=0;exitDy=0;entryX=0;entryY=0.5;entryDx=0;entryDy=0;endArrow=ERmany;endFill=0;" parent="1" source="MeHVMLw1KAwCeqkkqlxQ-97" target="MeHVMLw1KAwCeqkkqlxQ-113" edge="1">
          <mxGeometry relative="1" as="geometry" />
        </mxCell>
        <mxCell id="MeHVMLw1KAwCeqkkqlxQ-124" style="edgeStyle=orthogonalEdgeStyle;rounded=0;orthogonalLoop=1;jettySize=auto;html=1;exitX=1;exitY=0.5;exitDx=0;exitDy=0;entryX=0;entryY=0.5;entryDx=0;entryDy=0;endArrow=ERmany;endFill=0;" parent="1" source="MeHVMLw1KAwCeqkkqlxQ-17" target="MeHVMLw1KAwCeqkkqlxQ-110" edge="1">
          <mxGeometry relative="1" as="geometry" />
        </mxCell>
        <mxCell id="MeHVMLw1KAwCeqkkqlxQ-125" style="edgeStyle=orthogonalEdgeStyle;rounded=0;orthogonalLoop=1;jettySize=auto;html=1;exitX=1;exitY=0.5;exitDx=0;exitDy=0;entryX=0;entryY=0.5;entryDx=0;entryDy=0;endArrow=ERmany;endFill=0;" parent="1" source="bHWrnw9SkG1g4iROit9P-11" target="bHWrnw9SkG1g4iROit9P-46" edge="1">
          <mxGeometry relative="1" as="geometry">
            <mxPoint x="560" y="1000" as="sourcePoint" />
            <mxPoint x="590" y="1030" as="targetPoint" />
            <Array as="points">
              <mxPoint x="540" y="1085" />
              <mxPoint x="540" y="1135" />
            </Array>
          </mxGeometry>
        </mxCell>
        <mxCell id="MeHVMLw1KAwCeqkkqlxQ-126" style="edgeStyle=orthogonalEdgeStyle;rounded=0;orthogonalLoop=1;jettySize=auto;html=1;exitX=1;exitY=0.5;exitDx=0;exitDy=0;entryX=0;entryY=0.5;entryDx=0;entryDy=0;endArrow=ERmany;endFill=0;" parent="1" source="MeHVMLw1KAwCeqkkqlxQ-42" target="bHWrnw9SkG1g4iROit9P-14" edge="1">
          <mxGeometry relative="1" as="geometry">
            <mxPoint x="260" y="1125" as="targetPoint" />
          </mxGeometry>
        </mxCell>
        <mxCell id="MeHVMLw1KAwCeqkkqlxQ-127" value="Estado: &lt;br&gt;1 confirmada por el usuario&lt;br&gt;2 cancelado por el usuario&lt;br&gt;3 cancelado por la lic no se haga disponible el horario&lt;br&gt;4. finalizada&lt;br&gt;5. el paciente se ausento" style="text;html=1;align=left;verticalAlign=middle;resizable=0;points=[];autosize=1;strokeColor=none;" parent="1" vertex="1">
          <mxGeometry x="380" y="1620" width="300" height="90" as="geometry" />
        </mxCell>
        <mxCell id="MeHVMLw1KAwCeqkkqlxQ-128" value="ESTADO" style="shape=table;startSize=30;container=1;collapsible=1;childLayout=tableLayout;fixedRows=1;rowLines=0;fontStyle=1;align=center;resizeLast=1;" parent="1" vertex="1">
          <mxGeometry x="60" y="1630" width="180" height="100" as="geometry" />
        </mxCell>
        <mxCell id="MeHVMLw1KAwCeqkkqlxQ-129" value="" style="shape=partialRectangle;collapsible=0;dropTarget=0;pointerEvents=0;fillColor=none;top=0;left=0;bottom=1;right=0;points=[[0,0.5],[1,0.5]];portConstraint=eastwest;" parent="MeHVMLw1KAwCeqkkqlxQ-128" vertex="1">
          <mxGeometry y="30" width="180" height="30" as="geometry" />
        </mxCell>
        <mxCell id="MeHVMLw1KAwCeqkkqlxQ-130" value="PK" style="shape=partialRectangle;connectable=0;fillColor=none;top=0;left=0;bottom=0;right=0;fontStyle=1;overflow=hidden;" parent="MeHVMLw1KAwCeqkkqlxQ-129" vertex="1">
          <mxGeometry width="30" height="30" as="geometry" />
        </mxCell>
        <mxCell id="MeHVMLw1KAwCeqkkqlxQ-131" value="estado_id int" style="shape=partialRectangle;connectable=0;fillColor=none;top=0;left=0;bottom=0;right=0;align=left;spacingLeft=6;fontStyle=5;overflow=hidden;" parent="MeHVMLw1KAwCeqkkqlxQ-129" vertex="1">
          <mxGeometry x="30" width="150" height="30" as="geometry" />
        </mxCell>
        <mxCell id="MeHVMLw1KAwCeqkkqlxQ-132" value="" style="shape=partialRectangle;collapsible=0;dropTarget=0;pointerEvents=0;fillColor=none;top=0;left=0;bottom=0;right=0;points=[[0,0.5],[1,0.5]];portConstraint=eastwest;" parent="MeHVMLw1KAwCeqkkqlxQ-128" vertex="1">
          <mxGeometry y="60" width="180" height="30" as="geometry" />
        </mxCell>
        <mxCell id="MeHVMLw1KAwCeqkkqlxQ-133" value="" style="shape=partialRectangle;connectable=0;fillColor=none;top=0;left=0;bottom=0;right=0;editable=1;overflow=hidden;" parent="MeHVMLw1KAwCeqkkqlxQ-132" vertex="1">
          <mxGeometry width="30" height="30" as="geometry" />
        </mxCell>
        <mxCell id="MeHVMLw1KAwCeqkkqlxQ-134" value="descripcion text" style="shape=partialRectangle;connectable=0;fillColor=none;top=0;left=0;bottom=0;right=0;align=left;spacingLeft=6;overflow=hidden;" parent="MeHVMLw1KAwCeqkkqlxQ-132" vertex="1">
          <mxGeometry x="30" width="150" height="30" as="geometry" />
        </mxCell>
        <mxCell id="MeHVMLw1KAwCeqkkqlxQ-141" style="edgeStyle=orthogonalEdgeStyle;rounded=0;orthogonalLoop=1;jettySize=auto;html=1;exitX=1;exitY=0.5;exitDx=0;exitDy=0;entryX=0;entryY=0.5;entryDx=0;entryDy=0;endArrow=ERmany;endFill=0;" parent="1" source="MeHVMLw1KAwCeqkkqlxQ-129" target="MeHVMLw1KAwCeqkkqlxQ-116" edge="1">
          <mxGeometry relative="1" as="geometry">
            <Array as="points">
              <mxPoint x="310" y="1675" />
              <mxPoint x="310" y="1385" />
            </Array>
          </mxGeometry>
        </mxCell>
        <mxCell id="bHWrnw9SkG1g4iROit9P-9" style="edgeStyle=orthogonalEdgeStyle;rounded=0;orthogonalLoop=1;jettySize=auto;html=1;exitX=1;exitY=0.5;exitDx=0;exitDy=0;entryX=0;entryY=0.5;entryDx=0;entryDy=0;" edge="1" parent="1" source="bHWrnw9SkG1g4iROit9P-8" target="MeHVMLw1KAwCeqkkqlxQ-100">
          <mxGeometry relative="1" as="geometry" />
        </mxCell>
        <mxCell id="bHWrnw9SkG1g4iROit9P-8" value="Cada cita dura dos horas" style="rounded=0;whiteSpace=wrap;html=1;" vertex="1" parent="1">
          <mxGeometry x="-140" y="1485" width="150" height="60" as="geometry" />
        </mxCell>
        <mxCell id="bHWrnw9SkG1g4iROit9P-10" value="PREGUNTA " style="shape=table;startSize=30;container=1;collapsible=1;childLayout=tableLayout;fixedRows=1;rowLines=0;fontStyle=1;align=center;resizeLast=1;" vertex="1" parent="1">
          <mxGeometry x="290" y="1040" width="180" height="130" as="geometry" />
        </mxCell>
        <mxCell id="bHWrnw9SkG1g4iROit9P-11" value="" style="shape=partialRectangle;collapsible=0;dropTarget=0;pointerEvents=0;fillColor=none;top=0;left=0;bottom=0;right=0;points=[[0,0.5],[1,0.5]];portConstraint=eastwest;" vertex="1" parent="bHWrnw9SkG1g4iROit9P-10">
          <mxGeometry y="30" width="180" height="30" as="geometry" />
        </mxCell>
        <mxCell id="bHWrnw9SkG1g4iROit9P-12" value="PK" style="shape=partialRectangle;connectable=0;fillColor=none;top=0;left=0;bottom=0;right=0;fontStyle=1;overflow=hidden;" vertex="1" parent="bHWrnw9SkG1g4iROit9P-11">
          <mxGeometry width="60" height="30" as="geometry" />
        </mxCell>
        <mxCell id="bHWrnw9SkG1g4iROit9P-13" value="pregunta_id int" style="shape=partialRectangle;connectable=0;fillColor=none;top=0;left=0;bottom=0;right=0;align=left;spacingLeft=6;fontStyle=5;overflow=hidden;" vertex="1" parent="bHWrnw9SkG1g4iROit9P-11">
          <mxGeometry x="60" width="120" height="30" as="geometry" />
        </mxCell>
        <mxCell id="bHWrnw9SkG1g4iROit9P-14" value="" style="shape=partialRectangle;collapsible=0;dropTarget=0;pointerEvents=0;fillColor=none;top=0;left=0;bottom=1;right=0;points=[[0,0.5],[1,0.5]];portConstraint=eastwest;" vertex="1" parent="bHWrnw9SkG1g4iROit9P-10">
          <mxGeometry y="60" width="180" height="30" as="geometry" />
        </mxCell>
        <mxCell id="bHWrnw9SkG1g4iROit9P-15" value="PK,FK1" style="shape=partialRectangle;connectable=0;fillColor=none;top=0;left=0;bottom=0;right=0;fontStyle=1;overflow=hidden;" vertex="1" parent="bHWrnw9SkG1g4iROit9P-14">
          <mxGeometry width="60" height="30" as="geometry" />
        </mxCell>
        <mxCell id="bHWrnw9SkG1g4iROit9P-16" value="examen_id int" style="shape=partialRectangle;connectable=0;fillColor=none;top=0;left=0;bottom=0;right=0;align=left;spacingLeft=6;fontStyle=5;overflow=hidden;" vertex="1" parent="bHWrnw9SkG1g4iROit9P-14">
          <mxGeometry x="60" width="120" height="30" as="geometry" />
        </mxCell>
        <mxCell id="bHWrnw9SkG1g4iROit9P-17" value="" style="shape=partialRectangle;collapsible=0;dropTarget=0;pointerEvents=0;fillColor=none;top=0;left=0;bottom=0;right=0;points=[[0,0.5],[1,0.5]];portConstraint=eastwest;" vertex="1" parent="bHWrnw9SkG1g4iROit9P-10">
          <mxGeometry y="90" width="180" height="30" as="geometry" />
        </mxCell>
        <mxCell id="bHWrnw9SkG1g4iROit9P-18" value="" style="shape=partialRectangle;connectable=0;fillColor=none;top=0;left=0;bottom=0;right=0;editable=1;overflow=hidden;" vertex="1" parent="bHWrnw9SkG1g4iROit9P-17">
          <mxGeometry width="60" height="30" as="geometry" />
        </mxCell>
        <mxCell id="bHWrnw9SkG1g4iROit9P-19" value="pregunta text" style="shape=partialRectangle;connectable=0;fillColor=none;top=0;left=0;bottom=0;right=0;align=left;spacingLeft=6;overflow=hidden;" vertex="1" parent="bHWrnw9SkG1g4iROit9P-17">
          <mxGeometry x="60" width="120" height="30" as="geometry" />
        </mxCell>
        <mxCell id="bHWrnw9SkG1g4iROit9P-36" value="RESPUESTA" style="shape=table;startSize=30;container=1;collapsible=1;childLayout=tableLayout;fixedRows=1;rowLines=0;fontStyle=1;align=center;resizeLast=1;" vertex="1" parent="1">
          <mxGeometry x="590" y="1060" width="180" height="190" as="geometry" />
        </mxCell>
        <mxCell id="bHWrnw9SkG1g4iROit9P-37" value="" style="shape=partialRectangle;collapsible=0;dropTarget=0;pointerEvents=0;fillColor=none;top=0;left=0;bottom=0;right=0;points=[[0,0.5],[1,0.5]];portConstraint=eastwest;" vertex="1" parent="bHWrnw9SkG1g4iROit9P-36">
          <mxGeometry y="30" width="180" height="30" as="geometry" />
        </mxCell>
        <mxCell id="bHWrnw9SkG1g4iROit9P-38" value="PK" style="shape=partialRectangle;connectable=0;fillColor=none;top=0;left=0;bottom=0;right=0;fontStyle=1;overflow=hidden;" vertex="1" parent="bHWrnw9SkG1g4iROit9P-37">
          <mxGeometry width="60" height="30" as="geometry" />
        </mxCell>
        <mxCell id="bHWrnw9SkG1g4iROit9P-39" value="respuesta_id int" style="shape=partialRectangle;connectable=0;fillColor=none;top=0;left=0;bottom=0;right=0;align=left;spacingLeft=6;fontStyle=5;overflow=hidden;" vertex="1" parent="bHWrnw9SkG1g4iROit9P-37">
          <mxGeometry x="60" width="120" height="30" as="geometry" />
        </mxCell>
        <mxCell id="bHWrnw9SkG1g4iROit9P-46" style="shape=partialRectangle;collapsible=0;dropTarget=0;pointerEvents=0;fillColor=none;top=0;left=0;bottom=0;right=0;points=[[0,0.5],[1,0.5]];portConstraint=eastwest;" vertex="1" parent="bHWrnw9SkG1g4iROit9P-36">
          <mxGeometry y="60" width="180" height="30" as="geometry" />
        </mxCell>
        <mxCell id="bHWrnw9SkG1g4iROit9P-47" value="PK, FK1" style="shape=partialRectangle;connectable=0;fillColor=none;top=0;left=0;bottom=0;right=0;fontStyle=1;overflow=hidden;" vertex="1" parent="bHWrnw9SkG1g4iROit9P-46">
          <mxGeometry width="60" height="30" as="geometry" />
        </mxCell>
        <mxCell id="bHWrnw9SkG1g4iROit9P-48" value="pregunta_id int" style="shape=partialRectangle;connectable=0;fillColor=none;top=0;left=0;bottom=0;right=0;align=left;spacingLeft=6;fontStyle=5;overflow=hidden;" vertex="1" parent="bHWrnw9SkG1g4iROit9P-46">
          <mxGeometry x="60" width="120" height="30" as="geometry" />
        </mxCell>
        <mxCell id="bHWrnw9SkG1g4iROit9P-40" value="" style="shape=partialRectangle;collapsible=0;dropTarget=0;pointerEvents=0;fillColor=none;top=0;left=0;bottom=1;right=0;points=[[0,0.5],[1,0.5]];portConstraint=eastwest;" vertex="1" parent="bHWrnw9SkG1g4iROit9P-36">
          <mxGeometry y="90" width="180" height="30" as="geometry" />
        </mxCell>
        <mxCell id="bHWrnw9SkG1g4iROit9P-41" value="PK,FK2" style="shape=partialRectangle;connectable=0;fillColor=none;top=0;left=0;bottom=0;right=0;fontStyle=1;overflow=hidden;" vertex="1" parent="bHWrnw9SkG1g4iROit9P-40">
          <mxGeometry width="60" height="30" as="geometry" />
        </mxCell>
        <mxCell id="bHWrnw9SkG1g4iROit9P-42" value="examen_id int" style="shape=partialRectangle;connectable=0;fillColor=none;top=0;left=0;bottom=0;right=0;align=left;spacingLeft=6;fontStyle=5;overflow=hidden;" vertex="1" parent="bHWrnw9SkG1g4iROit9P-40">
          <mxGeometry x="60" width="120" height="30" as="geometry" />
        </mxCell>
        <mxCell id="bHWrnw9SkG1g4iROit9P-43" value="" style="shape=partialRectangle;collapsible=0;dropTarget=0;pointerEvents=0;fillColor=none;top=0;left=0;bottom=0;right=0;points=[[0,0.5],[1,0.5]];portConstraint=eastwest;" vertex="1" parent="bHWrnw9SkG1g4iROit9P-36">
          <mxGeometry y="120" width="180" height="30" as="geometry" />
        </mxCell>
        <mxCell id="bHWrnw9SkG1g4iROit9P-44" value="" style="shape=partialRectangle;connectable=0;fillColor=none;top=0;left=0;bottom=0;right=0;editable=1;overflow=hidden;" vertex="1" parent="bHWrnw9SkG1g4iROit9P-43">
          <mxGeometry width="60" height="30" as="geometry" />
        </mxCell>
        <mxCell id="bHWrnw9SkG1g4iROit9P-45" value="respuesta text" style="shape=partialRectangle;connectable=0;fillColor=none;top=0;left=0;bottom=0;right=0;align=left;spacingLeft=6;overflow=hidden;" vertex="1" parent="bHWrnw9SkG1g4iROit9P-43">
          <mxGeometry x="60" width="120" height="30" as="geometry" />
        </mxCell>
        <mxCell id="bHWrnw9SkG1g4iROit9P-49" style="shape=partialRectangle;collapsible=0;dropTarget=0;pointerEvents=0;fillColor=none;top=0;left=0;bottom=0;right=0;points=[[0,0.5],[1,0.5]];portConstraint=eastwest;" vertex="1" parent="bHWrnw9SkG1g4iROit9P-36">
          <mxGeometry y="150" width="180" height="30" as="geometry" />
        </mxCell>
        <mxCell id="bHWrnw9SkG1g4iROit9P-50" style="shape=partialRectangle;connectable=0;fillColor=none;top=0;left=0;bottom=0;right=0;editable=1;overflow=hidden;" vertex="1" parent="bHWrnw9SkG1g4iROit9P-49">
          <mxGeometry width="60" height="30" as="geometry" />
        </mxCell>
        <mxCell id="bHWrnw9SkG1g4iROit9P-51" value="seleccion boolean" style="shape=partialRectangle;connectable=0;fillColor=none;top=0;left=0;bottom=0;right=0;align=left;spacingLeft=6;overflow=hidden;" vertex="1" parent="bHWrnw9SkG1g4iROit9P-49">
          <mxGeometry x="60" width="120" height="30" as="geometry" />
        </mxCell>
        <mxCell id="bHWrnw9SkG1g4iROit9P-52" style="edgeStyle=orthogonalEdgeStyle;rounded=0;orthogonalLoop=1;jettySize=auto;html=1;exitX=1;exitY=0.5;exitDx=0;exitDy=0;entryX=0;entryY=0.5;entryDx=0;entryDy=0;endArrow=ERmany;endFill=0;" edge="1" parent="1" source="bHWrnw9SkG1g4iROit9P-14" target="bHWrnw9SkG1g4iROit9P-40">
          <mxGeometry relative="1" as="geometry">
            <mxPoint x="480" y="1095" as="sourcePoint" />
            <mxPoint x="596.04" y="1139" as="targetPoint" />
          </mxGeometry>
        </mxCell>
      </root>
    </mxGraphModel>
  </diagram>
</mxfile>
